mtllib biker.mtl
o XYT_generated
v -0.42500 0.00000 0.55000
v -0.44750 0.03897 0.55000
v -0.49250 0.03897 0.55000
v -0.51500 0.00000 0.55000
v -0.49250 -0.03897 0.55000
v -0.44750 -0.03897 0.55000
v -0.46709 0.00000 0.73440
v -0.48736 0.03897 0.72464
v -0.52790 0.03897 0.70511
v -0.54818 0.00000 0.69535
v -0.52790 -0.03897 0.70511
v -0.48736 -0.03897 0.72464
v -0.58502 0.00000 0.88228
v -0.59905 0.03897 0.86469
v -0.62710 0.03897 0.82950
v -0.64113 0.00000 0.81191
v -0.62710 -0.03897 0.82950
v -0.59905 -0.03897 0.86469
v -0.75543 0.00000 0.96434
v -0.76044 0.03897 0.94241
v -0.77045 0.03897 0.89854
v -0.77546 0.00000 0.87660
v -0.77045 -0.03897 0.89854
v -0.76044 -0.03897 0.94241
v -0.94457 0.00000 0.96434
v -0.93956 0.03897 0.94241
v -0.92955 0.03897 0.89854
v -0.92454 0.00000 0.87660
v -0.92955 -0.03897 0.89854
v -0.93956 -0.03897 0.94241
v -1.11498 0.00000 0.88228
v -1.10095 0.03897 0.86469
v -1.07290 0.03897 0.82950
v -1.05887 0.00000 0.81191
v -1.07290 -0.03897 0.82950
v -1.10095 -0.03897 0.86469
v -1.23291 0.00000 0.73440
v -1.21264 0.03897 0.72464
v -1.17210 0.03897 0.70511
v -1.15182 0.00000 0.69535
v -1.17210 -0.03897 0.70511
v -1.21264 -0.03897 0.72464
v -1.27500 0.00000 0.55000
v -1.25250 0.03897 0.55000
v -1.20750 0.03897 0.55000
v -1.18500 0.00000 0.55000
v -1.20750 -0.03897 0.55000
v -1.25250 -0.03897 0.55000
v -1.23291 0.00000 0.36560
v -1.21264 0.03897 0.37536
v -1.17210 0.03897 0.39489
v -1.15182 0.00000 0.40465
v -1.17210 -0.03897 0.39489
v -1.21264 -0.03897 0.37536
v -1.11498 0.00000 0.21772
v -1.10095 0.03897 0.23531
v -1.07290 0.03897 0.27050
v -1.05887 0.00000 0.28809
v -1.07290 -0.03897 0.27050
v -1.10095 -0.03897 0.23531
v -0.94457 0.00000 0.13566
v -0.93956 0.03897 0.15759
v -0.92955 0.03897 0.20146
v -0.92454 0.00000 0.22340
v -0.92955 -0.03897 0.20146
v -0.93956 -0.03897 0.15759
v -0.75543 0.00000 0.13566
v -0.76044 0.03897 0.15759
v -0.77045 0.03897 0.20146
v -0.77546 0.00000 0.22340
v -0.77045 -0.03897 0.20146
v -0.76044 -0.03897 0.15759
v -0.58502 0.00000 0.21772
v -0.59905 0.03897 0.23531
v -0.62710 0.03897 0.27050
v -0.64113 0.00000 0.28809
v -0.62710 -0.03897 0.27050
v -0.59905 -0.03897 0.23531
v -0.46709 0.00000 0.36560
v -0.48736 0.03897 0.37536
v -0.52790 0.03897 0.39489
v -0.54818 0.00000 0.40465
v -0.52790 -0.03897 0.39489
v -0.48736 -0.03897 0.37536
v -0.77000 -0.04000 0.55000
v -0.77000 0.04000 0.55000
v -0.78528 -0.04000 0.59702
v -0.78528 0.04000 0.59702
v -0.82528 -0.04000 0.62608
v -0.82528 0.04000 0.62608
v -0.87472 -0.04000 0.62608
v -0.87472 0.04000 0.62608
v -0.91472 -0.04000 0.59702
v -0.91472 0.04000 0.59702
v -0.93000 -0.04000 0.55000
v -0.93000 0.04000 0.55000
v -0.91472 -0.04000 0.50298
v -0.91472 0.04000 0.50298
v -0.87472 -0.04000 0.47392
v -0.87472 0.04000 0.47392
v -0.82528 -0.04000 0.47392
v -0.82528 0.04000 0.47392
v -0.78528 -0.04000 0.50298
v -0.78528 0.04000 0.50298
v 1.27500 0.00000 0.55000
v 1.25250 0.03897 0.55000
v 1.20750 0.03897 0.55000
v 1.18500 0.00000 0.55000
v 1.20750 -0.03897 0.55000
v 1.25250 -0.03897 0.55000
v 1.23291 0.00000 0.73440
v 1.21264 0.03897 0.72464
v 1.17210 0.03897 0.70511
v 1.15182 0.00000 0.69535
v 1.17210 -0.03897 0.70511
v 1.21264 -0.03897 0.72464
v 1.11498 0.00000 0.88228
v 1.10095 0.03897 0.86469
v 1.07290 0.03897 0.82950
v 1.05887 0.00000 0.81191
v 1.07290 -0.03897 0.82950
v 1.10095 -0.03897 0.86469
v 0.94457 0.00000 0.96434
v 0.93956 0.03897 0.94241
v 0.92955 0.03897 0.89854
v 0.92454 0.00000 0.87660
v 0.92955 -0.03897 0.89854
v 0.93956 -0.03897 0.94241
v 0.75543 0.00000 0.96434
v 0.76044 0.03897 0.94241
v 0.77045 0.03897 0.89854
v 0.77546 0.00000 0.87660
v 0.77045 -0.03897 0.89854
v 0.76044 -0.03897 0.94241
v 0.58502 0.00000 0.88228
v 0.59905 0.03897 0.86469
v 0.62710 0.03897 0.82950
v 0.64113 0.00000 0.81191
v 0.62710 -0.03897 0.82950
v 0.59905 -0.03897 0.86469
v 0.46709 0.00000 0.73440
v 0.48736 0.03897 0.72464
v 0.52790 0.03897 0.70511
v 0.54818 0.00000 0.69535
v 0.52790 -0.03897 0.70511
v 0.48736 -0.03897 0.72464
v 0.42500 0.00000 0.55000
v 0.44750 0.03897 0.55000
v 0.49250 0.03897 0.55000
v 0.51500 0.00000 0.55000
v 0.49250 -0.03897 0.55000
v 0.44750 -0.03897 0.55000
v 0.46709 0.00000 0.36560
v 0.48736 0.03897 0.37536
v 0.52790 0.03897 0.39489
v 0.54818 0.00000 0.40465
v 0.52790 -0.03897 0.39489
v 0.48736 -0.03897 0.37536
v 0.58502 0.00000 0.21772
v 0.59905 0.03897 0.23531
v 0.62710 0.03897 0.27050
v 0.64113 0.00000 0.28809
v 0.62710 -0.03897 0.27050
v 0.59905 -0.03897 0.23531
v 0.75543 0.00000 0.13566
v 0.76044 0.03897 0.15759
v 0.77045 0.03897 0.20146
v 0.77546 0.00000 0.22340
v 0.77045 -0.03897 0.20146
v 0.76044 -0.03897 0.15759
v 0.94457 0.00000 0.13566
v 0.93956 0.03897 0.15759
v 0.92955 0.03897 0.20146
v 0.92454 0.00000 0.22340
v 0.92955 -0.03897 0.20146
v 0.93956 -0.03897 0.15759
v 1.11498 0.00000 0.21772
v 1.10095 0.03897 0.23531
v 1.07290 0.03897 0.27050
v 1.05887 0.00000 0.28809
v 1.07290 -0.03897 0.27050
v 1.10095 -0.03897 0.23531
v 1.23291 0.00000 0.36560
v 1.21264 0.03897 0.37536
v 1.17210 0.03897 0.39489
v 1.15182 0.00000 0.40465
v 1.17210 -0.03897 0.39489
v 1.21264 -0.03897 0.37536
v 0.93000 -0.04000 0.55000
v 0.93000 0.04000 0.55000
v 0.91472 -0.04000 0.59702
v 0.91472 0.04000 0.59702
v 0.87472 -0.04000 0.62608
v 0.87472 0.04000 0.62608
v 0.82528 -0.04000 0.62608
v 0.82528 0.04000 0.62608
v 0.78528 -0.04000 0.59702
v 0.78528 0.04000 0.59702
v 0.77000 -0.04000 0.55000
v 0.77000 0.04000 0.55000
v 0.78528 -0.04000 0.50298
v 0.78528 0.04000 0.50298
v 0.82528 -0.04000 0.47392
v 0.82528 0.04000 0.47392
v 0.87472 -0.04000 0.47392
v 0.87472 0.04000 0.47392
v 0.91472 -0.04000 0.50298
v 0.91472 0.04000 0.50298
v -0.62500 0.03500 0.78000
v 0.62500 0.03500 0.78000
v -0.62500 0.02832 0.80057
v 0.62500 0.02832 0.80057
v -0.62500 0.01082 0.81329
v 0.62500 0.01082 0.81329
v -0.62500 -0.01082 0.81329
v 0.62500 -0.01082 0.81329
v -0.62500 -0.02832 0.80057
v 0.62500 -0.02832 0.80057
v -0.62500 -0.03500 0.78000
v 0.62500 -0.03500 0.78000
v -0.62500 -0.02832 0.75943
v 0.62500 -0.02832 0.75943
v -0.62500 -0.01082 0.74671
v 0.62500 -0.01082 0.74671
v -0.62500 0.01082 0.74671
v 0.62500 0.01082 0.74671
v -0.62500 0.02832 0.75943
v 0.62500 0.02832 0.75943
v -0.92500 0.03500 0.95000
v 0.02500 0.03500 0.95000
v -0.92500 0.02832 0.97057
v 0.02500 0.02832 0.97057
v -0.92500 0.01082 0.98329
v 0.02500 0.01082 0.98329
v -0.92500 -0.01082 0.98329
v 0.02500 -0.01082 0.98329
v -0.92500 -0.02832 0.97057
v 0.02500 -0.02832 0.97057
v -0.92500 -0.03500 0.95000
v 0.02500 -0.03500 0.95000
v -0.92500 -0.02832 0.92943
v 0.02500 -0.02832 0.92943
v -0.92500 -0.01082 0.91671
v 0.02500 -0.01082 0.91671
v -0.92500 0.01082 0.91671
v 0.02500 0.01082 0.91671
v -0.92500 0.02832 0.92943
v 0.02500 0.02832 0.92943
v -0.02500 0.03500 0.95000
v 0.92500 0.03500 0.95000
v -0.02500 0.02832 0.97057
v 0.92500 0.02832 0.97057
v -0.02500 0.01082 0.98329
v 0.92500 0.01082 0.98329
v -0.02500 -0.01082 0.98329
v 0.92500 -0.01082 0.98329
v -0.02500 -0.02832 0.97057
v 0.92500 -0.02832 0.97057
v -0.02500 -0.03500 0.95000
v 0.92500 -0.03500 0.95000
v -0.02500 -0.02832 0.92943
v 0.92500 -0.02832 0.92943
v -0.02500 -0.01082 0.91671
v 0.92500 -0.01082 0.91671
v -0.02500 0.01082 0.91671
v 0.92500 0.01082 0.91671
v -0.02500 0.02832 0.92943
v 0.92500 0.02832 0.92943
v 0.04000 0.00000 0.62500
v 0.04000 0.00000 1.37500
v 0.03236 0.02351 0.62500
v 0.03236 0.02351 1.37500
v 0.01236 0.03804 0.62500
v 0.01236 0.03804 1.37500
v -0.01236 0.03804 0.62500
v -0.01236 0.03804 1.37500
v -0.03236 0.02351 0.62500
v -0.03236 0.02351 1.37500
v -0.04000 0.00000 0.62500
v -0.04000 0.00000 1.37500
v -0.03236 -0.02351 0.62500
v -0.03236 -0.02351 1.37500
v -0.01236 -0.03804 0.62500
v -0.01236 -0.03804 1.37500
v 0.01236 -0.03804 0.62500
v 0.01236 -0.03804 1.37500
v 0.03236 -0.02351 0.62500
v 0.03236 -0.02351 1.37500
v 0.00000 0.00000 2.10000
v 0.00000 0.00000 2.10000
v 0.00000 0.00000 2.10000
v 0.00000 0.00000 2.10000
v 0.00000 0.00000 2.10000
v 0.00000 0.00000 2.10000
v 0.00000 0.00000 2.10000
v 0.00000 0.00000 2.10000
v 0.00000 0.00000 2.10000
v 0.00000 0.00000 2.10000
v 0.14000 0.00000 2.03971
v 0.11326 0.05878 2.03971
v 0.04326 0.09511 2.03971
v -0.04326 0.09511 2.03971
v -0.11326 0.05878 2.03971
v -0.14000 0.00000 2.03971
v -0.11326 -0.05878 2.03971
v -0.04326 -0.09511 2.03971
v 0.04326 -0.09511 2.03971
v 0.11326 -0.05878 2.03971
v 0.24249 0.00000 1.87500
v 0.19618 0.10181 1.87500
v 0.07493 0.16473 1.87500
v -0.07493 0.16473 1.87500
v -0.19618 0.10181 1.87500
v -0.24249 0.00000 1.87500
v -0.19618 -0.10181 1.87500
v -0.07493 -0.16473 1.87500
v 0.07493 -0.16473 1.87500
v 0.19618 -0.10181 1.87500
v 0.28000 0.00000 1.65000
v 0.22652 0.11756 1.65000
v 0.08652 0.19021 1.65000
v -0.08652 0.19021 1.65000
v -0.22652 0.11756 1.65000
v -0.28000 0.00000 1.65000
v -0.22652 -0.11756 1.65000
v -0.08652 -0.19021 1.65000
v 0.08652 -0.19021 1.65000
v 0.22652 -0.11756 1.65000
v 0.24249 0.00000 1.42500
v 0.19618 0.10181 1.42500
v 0.07493 0.16473 1.42500
v -0.07493 0.16473 1.42500
v -0.19618 0.10181 1.42500
v -0.24249 0.00000 1.42500
v -0.19618 -0.10181 1.42500
v -0.07493 -0.16473 1.42500
v 0.07493 -0.16473 1.42500
v 0.19618 -0.10181 1.42500
v 0.14000 0.00000 1.26029
v 0.11326 0.05878 1.26029
v 0.04326 0.09511 1.26029
v -0.04326 0.09511 1.26029
v -0.11326 0.05878 1.26029
v -0.14000 0.00000 1.26029
v -0.11326 -0.05878 1.26029
v -0.04326 -0.09511 1.26029
v 0.04326 -0.09511 1.26029
v 0.11326 -0.05878 1.26029
v 0.00000 0.00000 1.20000
v 0.00000 0.00000 1.20000
v 0.00000 0.00000 1.20000
v -0.00000 0.00000 1.20000
v -0.00000 0.00000 1.20000
v -0.00000 0.00000 1.20000
v -0.00000 -0.00000 1.20000
v -0.00000 -0.00000 1.20000
v 0.00000 -0.00000 1.20000
v 0.00000 -0.00000 1.20000
v 0.12000 0.00000 2.30000
v 0.12000 0.00000 2.30000
v 0.12000 0.00000 2.30000
v 0.12000 0.00000 2.30000
v 0.12000 0.00000 2.30000
v 0.12000 0.00000 2.30000
v 0.12000 0.00000 2.30000
v 0.12000 0.00000 2.30000
v 0.12000 0.00000 2.30000
v 0.12000 0.00000 2.30000
v 0.21000 0.00000 2.27588
v 0.19281 0.05290 2.27588
v 0.14781 0.08560 2.27588
v 0.09219 0.08560 2.27588
v 0.04719 0.05290 2.27588
v 0.03000 0.00000 2.27588
v 0.04719 -0.05290 2.27588
v 0.09219 -0.08560 2.27588
v 0.14781 -0.08560 2.27588
v 0.19281 -0.05290 2.27588
v 0.27588 0.00000 2.21000
v 0.24611 0.09163 2.21000
v 0.16817 0.14826 2.21000
v 0.07183 0.14826 2.21000
v -0.00611 0.09163 2.21000
v -0.03588 0.00000 2.21000
v -0.00611 -0.09163 2.21000
v 0.07183 -0.14826 2.21000
v 0.16817 -0.14826 2.21000
v 0.24611 -0.09163 2.21000
v 0.30000 0.00000 2.12000
v 0.26562 0.10580 2.12000
v 0.17562 0.17119 2.12000
v 0.06438 0.17119 2.12000
v -0.02562 0.10580 2.12000
v -0.06000 0.00000 2.12000
v -0.02562 -0.10580 2.12000
v 0.06438 -0.17119 2.12000
v 0.17562 -0.17119 2.12000
v 0.26562 -0.10580 2.12000
v 0.27588 0.00000 2.03000
v 0.24611 0.09163 2.03000
v 0.16817 0.14826 2.03000
v 0.07183 0.14826 2.03000
v -0.00611 0.09163 2.03000
v -0.03588 0.00000 2.03000
v -0.00611 -0.09163 2.03000
v 0.07183 -0.14826 2.03000
v 0.16817 -0.14826 2.03000
v 0.24611 -0.09163 2.03000
v 0.21000 0.00000 1.96412
v 0.19281 0.05290 1.96412
v 0.14781 0.08560 1.96412
v 0.09219 0.08560 1.96412
v 0.04719 0.05290 1.96412
v 0.03000 0.00000 1.96412
v 0.04719 -0.05290 1.96412
v 0.09219 -0.08560 1.96412
v 0.14781 -0.08560 1.96412
v 0.19281 -0.05290 1.96412
v 0.12000 0.00000 1.94000
v 0.12000 0.00000 1.94000
v 0.12000 0.00000 1.94000
v 0.12000 0.00000 1.94000
v 0.12000 0.00000 1.94000
v 0.12000 0.00000 1.94000
v 0.12000 -0.00000 1.94000
v 0.12000 -0.00000 1.94000
v 0.12000 -0.00000 1.94000
v 0.12000 -0.00000 1.94000
v -0.13500 0.00000 0.87000
v -0.13500 0.00000 1.69000
v -0.14359 0.02645 0.87000
v -0.14359 0.02645 1.69000
v -0.16609 0.04280 0.87000
v -0.16609 0.04280 1.69000
v -0.19391 0.04280 0.87000
v -0.19391 0.04280 1.69000
v -0.21641 0.02645 0.87000
v -0.21641 0.02645 1.69000
v -0.22500 0.00000 0.87000
v -0.22500 0.00000 1.69000
v -0.21641 -0.02645 0.87000
v -0.21641 -0.02645 1.69000
v -0.19391 -0.04280 0.87000
v -0.19391 -0.04280 1.69000
v -0.16609 -0.04280 0.87000
v -0.16609 -0.04280 1.69000
v -0.14359 -0.02645 0.87000
v -0.14359 -0.02645 1.69000
v 0.39500 0.00000 0.84000
v 0.39500 0.00000 1.66000
v 0.38641 0.02645 0.84000
v 0.38641 0.02645 1.66000
v 0.36391 0.04280 0.84000
v 0.36391 0.04280 1.66000
v 0.33609 0.04280 0.84000
v 0.33609 0.04280 1.66000
v 0.31359 0.02645 0.84000
v 0.31359 0.02645 1.66000
v 0.30500 0.00000 0.84000
v 0.30500 0.00000 1.66000
v 0.31359 -0.02645 0.84000
v 0.31359 -0.02645 1.66000
v 0.33609 -0.04280 0.84000
v 0.33609 -0.04280 1.66000
v 0.36391 -0.04280 0.84000
v 0.36391 -0.04280 1.66000
v 0.38641 -0.02645 0.84000
v 0.38641 -0.02645 1.66000
v -0.01000 0.04000 1.72000
v 0.71000 0.04000 1.72000
v -0.01000 0.03236 1.74351
v 0.71000 0.03236 1.74351
v -0.01000 0.01236 1.75804
v 0.71000 0.01236 1.75804
v -0.01000 -0.01236 1.75804
v 0.71000 -0.01236 1.75804
v -0.01000 -0.03236 1.74351
v 0.71000 -0.03236 1.74351
v -0.01000 -0.04000 1.72000
v 0.71000 -0.04000 1.72000
v -0.01000 -0.03236 1.69649
v 0.71000 -0.03236 1.69649
v -0.01000 -0.01236 1.68196
v 0.71000 -0.01236 1.68196
v -0.01000 0.01236 1.68196
v 0.71000 0.01236 1.68196
v -0.01000 0.03236 1.69649
v 0.71000 0.03236 1.69649
usemtl black
f 1 7 8 2
f 2 8 9 3
f 3 9 10 4
f 4 10 11 5
f 5 11 12 6
f 6 12 7 1
f 7 13 14 8
f 8 14 15 9
f 9 15 16 10
f 10 16 17 11
f 11 17 18 12
f 12 18 13 7
f 13 19 20 14
f 14 20 21 15
f 15 21 22 16
f 16 22 23 17
f 17 23 24 18
f 18 24 19 13
f 19 25 26 20
f 20 26 27 21
f 21 27 28 22
f 22 28 29 23
f 23 29 30 24
f 24 30 25 19
f 25 31 32 26
f 26 32 33 27
f 27 33 34 28
f 28 34 35 29
f 29 35 36 30
f 30 36 31 25
f 31 37 38 32
f 32 38 39 33
f 33 39 40 34
f 34 40 41 35
f 35 41 42 36
f 36 42 37 31
f 37 43 44 38
f 38 44 45 39
f 39 45 46 40
f 40 46 47 41
f 41 47 48 42
f 42 48 43 37
f 43 49 50 44
f 44 50 51 45
f 45 51 52 46
f 46 52 53 47
f 47 53 54 48
f 48 54 49 43
f 49 55 56 50
f 50 56 57 51
f 51 57 58 52
f 52 58 59 53
f 53 59 60 54
f 54 60 55 49
f 55 61 62 56
f 56 62 63 57
f 57 63 64 58
f 58 64 65 59
f 59 65 66 60
f 60 66 61 55
f 61 67 68 62
f 62 68 69 63
f 63 69 70 64
f 64 70 71 65
f 65 71 72 66
f 66 72 67 61
f 67 73 74 68
f 68 74 75 69
f 69 75 76 70
f 70 76 77 71
f 71 77 78 72
f 72 78 73 67
f 73 79 80 74
f 74 80 81 75
f 75 81 82 76
f 76 82 83 77
f 77 83 84 78
f 78 84 79 73
f 79 1 2 80
f 80 2 3 81
f 81 3 4 82
f 82 4 5 83
f 83 5 6 84
f 84 6 1 79
usemtl metal
f 85 87 88 86
f 87 89 90 88
f 89 91 92 90
f 91 93 94 92
f 93 95 96 94
f 95 97 98 96
f 97 99 100 98
f 99 101 102 100
f 101 103 104 102
f 103 85 86 104
f 103 101 99 97 95 93 91 89 87 85
f 86 88 90 92 94 96 98 100 102 104
usemtl black
f 105 111 112 106
f 106 112 113 107
f 107 113 114 108
f 108 114 115 109
f 109 115 116 110
f 110 116 111 105
f 111 117 118 112
f 112 118 119 113
f 113 119 120 114
f 114 120 121 115
f 115 121 122 116
f 116 122 117 111
f 117 123 124 118
f 118 124 125 119
f 119 125 126 120
f 120 126 127 121
f 121 127 128 122
f 122 128 123 117
f 123 129 130 124
f 124 130 131 125
f 125 131 132 126
f 126 132 133 127
f 127 133 134 128
f 128 134 129 123
f 129 135 136 130
f 130 136 137 131
f 131 137 138 132
f 132 138 139 133
f 133 139 140 134
f 134 140 135 129
f 135 141 142 136
f 136 142 143 137
f 137 143 144 138
f 138 144 145 139
f 139 145 146 140
f 140 146 141 135
f 141 147 148 142
f 142 148 149 143
f 143 149 150 144
f 144 150 151 145
f 145 151 152 146
f 146 152 147 141
f 147 153 154 148
f 148 154 155 149
f 149 155 156 150
f 150 156 157 151
f 151 157 158 152
f 152 158 153 147
f 153 159 160 154
f 154 160 161 155
f 155 161 162 156
f 156 162 163 157
f 157 163 164 158
f 158 164 159 153
f 159 165 166 160
f 160 166 167 161
f 161 167 168 162
f 162 168 169 163
f 163 169 170 164
f 164 170 165 159
f 165 171 172 166
f 166 172 173 167
f 167 173 174 168
f 168 174 175 169
f 169 175 176 170
f 170 176 171 165
f 171 177 178 172
f 172 178 179 173
f 173 179 180 174
f 174 180 181 175
f 175 181 182 176
f 176 182 177 171
f 177 183 184 178
f 178 184 185 179
f 179 185 186 180
f 180 186 187 181
f 181 187 188 182
f 182 188 183 177
f 183 105 106 184
f 184 106 107 185
f 185 107 108 186
f 186 108 109 187
f 187 109 110 188
f 188 110 105 183
usemtl metal
f 189 191 192 190
f 191 193 194 192
f 193 195 196 194
f 195 197 198 196
f 197 199 200 198
f 199 201 202 200
f 201 203 204 202
f 203 205 206 204
f 205 207 208 206
f 207 189 190 208
f 207 205 203 201 199 197 195 193 191 189
f 190 192 194 196 198 200 202 204 206 208
usemtl yellow
f 209 211 212 210
f 211 213 214 212
f 213 215 216 214
f 215 217 218 216
f 217 219 220 218
f 219 221 222 220
f 221 223 224 222
f 223 225 226 224
f 225 227 228 226
f 227 209 210 228
f 227 225 223 221 219 217 215 213 211 209
f 210 212 214 216 218 220 222 224 226 228
f 229 231 232 230
f 231 233 234 232
f 233 235 236 234
f 235 237 238 236
f 237 239 240 238
f 239 241 242 240
f 241 243 244 242
f 243 245 246 244
f 245 247 248 246
f 247 229 230 248
f 247 245 243 241 239 237 235 233 231 229
f 230 232 234 236 238 240 242 244 246 248
f 249 251 252 250
f 251 253 254 252
f 253 255 256 254
f 255 257 258 256
f 257 259 260 258
f 259 261 262 260
f 261 263 264 262
f 263 265 266 264
f 265 267 268 266
f 267 249 250 268
f 267 265 263 261 259 257 255 253 251 249
f 250 252 254 256 258 260 262 264 266 268
usemtl metal
f 269 271 272 270
f 271 273 274 272
f 273 275 276 274
f 275 277 278 276
f 277 279 280 278
f 279 281 282 280
f 281 283 284 282
f 283 285 286 284
f 285 287 288 286
f 287 269 270 288
f 287 285 283 281 279 277 275 273 271 269
f 270 272 274 276 278 280 282 284 286 288
usemtl blue
f 289 290 300 299
f 290 291 301 300
f 291 292 302 301
f 292 293 303 302
f 293 294 304 303
f 294 295 305 304
f 295 296 306 305
f 296 297 307 306
f 297 298 308 307
f 298 289 299 308
f 299 300 310 309
f 300 301 311 310
f 301 302 312 311
f 302 303 313 312
f 303 304 314 313
f 304 305 315 314
f 305 306 316 315
f 306 307 317 316
f 307 308 318 317
f 308 299 309 318
f 309 310 320 319
f 310 311 321 320
f 311 312 322 321
f 312 313 323 322
f 313 314 324 323
f 314 315 325 324
f 315 316 326 325
f 316 317 327 326
f 317 318 328 327
f 318 309 319 328
f 319 320 330 329
f 320 321 331 330
f 321 322 332 331
f 322 323 333 332
f 323 324 334 333
f 324 325 335 334
f 325 326 336 335
f 326 327 337 336
f 327 328 338 337
f 328 319 329 338
f 329 330 340 339
f 330 331 341 340
f 331 332 342 341
f 332 333 343 342
f 333 334 344 343
f 334 335 345 344
f 335 336 346 345
f 336 337 347 346
f 337 338 348 347
f 338 329 339 348
f 339 340 350 349
f 340 341 351 350
f 341 342 352 351
f 342 343 353 352
f 343 344 354 353
f 344 345 355 354
f 345 346 356 355
f 346 347 357 356
f 347 348 358 357
f 348 339 349 358
usemtl cream
f 359 360 370 369
f 360 361 371 370
f 361 362 372 371
f 362 363 373 372
f 363 364 374 373
f 364 365 375 374
f 365 366 376 375
f 366 367 377 376
f 367 368 378 377
f 368 359 369 378
f 369 370 380 379
f 370 371 381 380
f 371 372 382 381
f 372 373 383 382
f 373 374 384 383
f 374 375 385 384
f 375 376 386 385
f 376 377 387 386
f 377 378 388 387
f 378 369 379 388
f 379 380 390 389
f 380 381 391 390
f 381 382 392 391
f 382 383 393 392
f 383 384 394 393
f 384 385 395 394
f 385 386 396 395
f 386 387 397 396
f 387 388 398 397
f 388 379 389 398
f 389 390 400 399
f 390 391 401 400
f 391 392 402 401
f 392 393 403 402
f 393 394 404 403
f 394 395 405 404
f 395 396 406 405
f 396 397 407 406
f 397 398 408 407
f 398 389 399 408
f 399 400 410 409
f 400 401 411 410
f 401 402 412 411
f 402 403 413 412
f 403 404 414 413
f 404 405 415 414
f 405 406 416 415
f 406 407 417 416
f 407 408 418 417
f 408 399 409 418
f 409 410 420 419
f 410 411 421 420
f 411 412 422 421
f 412 413 423 422
f 413 414 424 423
f 414 415 425 424
f 415 416 426 425
f 416 417 427 426
f 417 418 428 427
f 418 409 419 428
f 429 431 432 430
f 431 433 434 432
f 433 435 436 434
f 435 437 438 436
f 437 439 440 438
f 439 441 442 440
f 441 443 444 442
f 443 445 446 444
f 445 447 448 446
f 447 429 430 448
f 447 445 443 441 439 437 435 433 431 429
f 430 432 434 436 438 440 442 444 446 448
f 449 451 452 450
f 451 453 454 452
f 453 455 456 454
f 455 457 458 456
f 457 459 460 458
f 459 461 462 460
f 461 463 464 462
f 463 465 466 464
f 465 467 468 466
f 467 449 450 468
f 467 465 463 461 459 457 455 453 451 449
f 450 452 454 456 458 460 462 464 466 468
f 469 471 472 470
f 471 473 474 472
f 473 475 476 474
f 475 477 478 476
f 477 479 480 478
f 479 481 482 480
f 481 483 484 482
f 483 485 486 484
f 485 487 488 486
f 487 469 470 488
f 487 485 483 481 479 477 475 473 471 469
f 470 472 474 476 478 480 482 484 486 488
