mtllib car.mtl
o XYT_generated
v -1.20000 -0.52500 0.47500
v 1.20000 -0.52500 0.47500
v 1.20000 0.52500 0.47500
v -1.20000 0.52500 0.47500
v -1.20000 -0.52500 1.02500
v 1.20000 -0.52500 1.02500
v 1.20000 0.52500 1.02500
v -1.20000 0.52500 1.02500
v -0.80000 -0.42500 0.94000
v 0.30000 -0.42500 0.94000
v 0.30000 0.42500 0.94000
v -0.80000 0.42500 0.94000
v -0.80000 -0.42500 1.42000
v 0.30000 -0.42500 1.42000
v 0.30000 0.42500 1.42000
v -0.80000 0.42500 1.42000
v -0.64000 -0.45000 1.09500
v 0.14000 -0.45000 1.09500
v 0.14000 -0.41000 1.09500
v -0.64000 -0.41000 1.09500
v -0.64000 -0.45000 1.34500
v 0.14000 -0.45000 1.34500
v 0.14000 -0.41000 1.34500
v -0.64000 -0.41000 1.34500
v -0.64000 0.41000 1.09500
v 0.14000 0.41000 1.09500
v 0.14000 0.45000 1.09500
v -0.64000 0.45000 1.09500
v -0.64000 0.41000 1.34500
v 0.14000 0.41000 1.34500
v 0.14000 0.45000 1.34500
v -0.64000 0.45000 1.34500
v -0.44000 -0.58000 0.45000
v -0.47500 -0.51938 0.45000
v -0.54500 -0.51938 0.45000
v -0.58000 -0.58000 0.45000
v -0.54500 -0.64062 0.45000
v -0.47500 -0.64062 0.45000
v -0.47070 -0.58000 0.58450
v -0.50223 -0.51938 0.56932
v -0.56530 -0.51938 0.53895
v -0.59684 -0.58000 0.52376
v -0.56530 -0.64062 0.53895
v -0.50223 -0.64062 0.56932
v -0.55672 -0.58000 0.69237
v -0.57854 -0.51938 0.66500
v -0.62218 -0.51938 0.61028
v -0.64401 -0.58000 0.58291
v -0.62218 -0.64062 0.61028
v -0.57854 -0.64062 0.66500
v -0.68102 -0.58000 0.75223
v -0.68881 -0.51938 0.71811
v -0.70438 -0.51938 0.64986
v -0.71217 -0.58000 0.61574
v -0.70438 -0.64062 0.64986
v -0.68881 -0.64062 0.71811
v -0.81898 -0.58000 0.75223
v -0.81119 -0.51938 0.71811
v -0.79562 -0.51938 0.64986
v -0.78783 -0.58000 0.61574
v -0.79562 -0.64062 0.64986
v -0.81119 -0.64062 0.71811
v -0.94328 -0.58000 0.69237
v -0.92146 -0.51938 0.66500
v -0.87782 -0.51938 0.61028
v -0.85599 -0.58000 0.58291
v -0.87782 -0.64062 0.61028
v -0.92146 -0.64062 0.66500
v -1.02930 -0.58000 0.58450
v -0.99777 -0.51938 0.56932
v -0.93470 -0.51938 0.53895
v -0.90316 -0.58000 0.52376
v -0.93470 -0.64062 0.53895
v -0.99777 -0.64062 0.56932
v -1.06000 -0.58000 0.45000
v -1.02500 -0.51938 0.45000
v -0.95500 -0.51938 0.45000
v -0.92000 -0.58000 0.45000
v -0.95500 -0.64062 0.45000
v -1.02500 -0.64062 0.45000
v -1.02930 -0.58000 0.31550
v -0.99777 -0.51938 0.33068
v -0.93470 -0.51938 0.36105
v -0.90316 -0.58000 0.37624
v -0.93470 -0.64062 0.36105
v -0.99777 -0.64062 0.33068
v -0.94328 -0.58000 0.20763
v -0.92146 -0.51938 0.23500
v -0.87782 -0.51938 0.28972
v -0.85599 -0.58000 0.31709
v -0.87782 -0.64062 0.28972
v -0.92146 -0.64062 0.23500
v -0.81898 -0.58000 0.14777
v -0.81119 -0.51938 0.18189
v -0.79562 -0.51938 0.25014
v -0.78783 -0.58000 0.28426
v -0.79562 -0.64062 0.25014
v -0.81119 -0.64062 0.18189
v -0.68102 -0.58000 0.14777
v -0.68881 -0.51938 0.18189
v -0.70438 -0.51938 0.25014
v -0.71217 -0.58000 0.28426
v -0.70438 -0.64062 0.25014
v -0.68881 -0.64062 0.18189
v -0.55672 -0.58000 0.20763
v -0.57854 -0.51938 0.23500
v -0.62218 -0.51938 0.28972
v -0.64401 -0.58000 0.31709
v -0.62218 -0.64062 0.28972
v -0.57854 -0.64062 0.23500
v -0.47070 -0.58000 0.31550
v -0.50223 -0.51938 0.33068
v -0.56530 -0.51938 0.36105
v -0.59684 -0.58000 0.37624
v -0.56530 -0.64062 0.36105
v -0.50223 -0.64062 0.33068
v -0.62000 -0.62000 0.45000
v -0.62000 -0.54000 0.45000
v -0.64483 -0.62000 0.52641
v -0.64483 -0.54000 0.52641
v -0.70983 -0.62000 0.57364
v -0.70983 -0.54000 0.57364
v -0.79017 -0.62000 0.57364
v -0.79017 -0.54000 0.57364
v -0.85517 -0.62000 0.52641
v -0.85517 -0.54000 0.52641
v -0.88000 -0.62000 0.45000
v -0.88000 -0.54000 0.45000
v -0.85517 -0.62000 0.37359
v -0.85517 -0.54000 0.37359
v -0.79017 -0.62000 0.32636
v -0.79017 -0.54000 0.32636
v -0.70983 -0.62000 0.32636
v -0.70983 -0.54000 0.32636
v -0.64483 -0.62000 0.37359
v -0.64483 -0.54000 0.37359
v -0.44000 0.58000 0.45000
v -0.47500 0.64062 0.45000
v -0.54500 0.64062 0.45000
v -0.58000 0.58000 0.45000
v -0.54500 0.51938 0.45000
v -0.47500 0.51938 0.45000
v -0.47070 0.58000 0.58450
v -0.50223 0.64062 0.56932
v -0.56530 0.64062 0.53895
v -0.59684 0.58000 0.52376
v -0.56530 0.51938 0.53895
v -0.50223 0.51938 0.56932
v -0.55672 0.58000 0.69237
v -0.57854 0.64062 0.66500
v -0.62218 0.64062 0.61028
v -0.64401 0.58000 0.58291
v -0.62218 0.51938 0.61028
v -0.57854 0.51938 0.66500
v -0.68102 0.58000 0.75223
v -0.68881 0.64062 0.71811
v -0.70438 0.64062 0.64986
v -0.71217 0.58000 0.61574
v -0.70438 0.51938 0.64986
v -0.68881 0.51938 0.71811
v -0.81898 0.58000 0.75223
v -0.81119 0.64062 0.71811
v -0.79562 0.64062 0.64986
v -0.78783 0.58000 0.61574
v -0.79562 0.51938 0.64986
v -0.81119 0.51938 0.71811
v -0.94328 0.58000 0.69237
v -0.92146 0.64062 0.66500
v -0.87782 0.64062 0.61028
v -0.85599 0.58000 0.58291
v -0.87782 0.51938 0.61028
v -0.92146 0.51938 0.66500
v -1.02930 0.58000 0.58450
v -0.99777 0.64062 0.56932
v -0.93470 0.64062 0.53895
v -0.90316 0.58000 0.52376
v -0.93470 0.51938 0.53895
v -0.99777 0.51938 0.56932
v -1.06000 0.58000 0.45000
v -1.02500 0.64062 0.45000
v -0.95500 0.64062 0.45000
v -0.92000 0.58000 0.45000
v -0.95500 0.51938 0.45000
v -1.02500 0.51938 0.45000
v -1.02930 0.58000 0.31550
v -0.99777 0.64062 0.33068
v -0.93470 0.64062 0.36105
v -0.90316 0.58000 0.37624
v -0.93470 0.51938 0.36105
v -0.99777 0.51938 0.33068
v -0.94328 0.58000 0.20763
v -0.92146 0.64062 0.23500
v -0.87782 0.64062 0.28972
v -0.85599 0.58000 0.31709
v -0.87782 0.51938 0.28972
v -0.92146 0.51938 0.23500
v -0.81898 0.58000 0.14777
v -0.81119 0.64062 0.18189
v -0.79562 0.64062 0.25014
v -0.78783 0.58000 0.28426
v -0.79562 0.51938 0.25014
v -0.81119 0.51938 0.18189
v -0.68102 0.58000 0.14777
v -0.68881 0.64062 0.18189
v -0.70438 0.64062 0.25014
v -0.71217 0.58000 0.28426
v -0.70438 0.51938 0.25014
v -0.68881 0.51938 0.18189
v -0.55672 0.58000 0.20763
v -0.57854 0.64062 0.23500
v -0.62218 0.64062 0.28972
v -0.64401 0.58000 0.31709
v -0.62218 0.51938 0.28972
v -0.57854 0.51938 0.23500
v -0.47070 0.58000 0.31550
v -0.50223 0.64062 0.33068
v -0.56530 0.64062 0.36105
v -0.59684 0.58000 0.37624
v -0.56530 0.51938 0.36105
v -0.50223 0.51938 0.33068
v -0.62000 0.54000 0.45000
v -0.62000 0.62000 0.45000
v -0.64483 0.54000 0.52641
v -0.64483 0.62000 0.52641
v -0.70983 0.54000 0.57364
v -0.70983 0.62000 0.57364
v -0.79017 0.54000 0.57364
v -0.79017 0.62000 0.57364
v -0.85517 0.54000 0.52641
v -0.85517 0.62000 0.52641
v -0.88000 0.54000 0.45000
v -0.88000 0.62000 0.45000
v -0.85517 0.54000 0.37359
v -0.85517 0.62000 0.37359
v -0.79017 0.54000 0.32636
v -0.79017 0.62000 0.32636
v -0.70983 0.54000 0.32636
v -0.70983 0.62000 0.32636
v -0.64483 0.54000 0.37359
v -0.64483 0.62000 0.37359
v 1.06000 -0.58000 0.45000
v 1.02500 -0.51938 0.45000
v 0.95500 -0.51938 0.45000
v 0.92000 -0.58000 0.45000
v 0.95500 -0.64062 0.45000
v 1.02500 -0.64062 0.45000
v 1.02930 -0.58000 0.58450
v 0.99777 -0.51938 0.56932
v 0.93470 -0.51938 0.53895
v 0.90316 -0.58000 0.52376
v 0.93470 -0.64062 0.53895
v 0.99777 -0.64062 0.56932
v 0.94328 -0.58000 0.69237
v 0.92146 -0.51938 0.66500
v 0.87782 -0.51938 0.61028
v 0.85599 -0.58000 0.58291
v 0.87782 -0.64062 0.61028
v 0.92146 -0.64062 0.66500
v 0.81898 -0.58000 0.75223
v 0.81119 -0.51938 0.71811
v 0.79562 -0.51938 0.64986
v 0.78783 -0.58000 0.61574
v 0.79562 -0.64062 0.64986
v 0.81119 -0.64062 0.71811
v 0.68102 -0.58000 0.75223
v 0.68881 -0.51938 0.71811
v 0.70438 -0.51938 0.64986
v 0.71217 -0.58000 0.61574
v 0.70438 -0.64062 0.64986
v 0.68881 -0.64062 0.71811
v 0.55672 -0.58000 0.69237
v 0.57854 -0.51938 0.66500
v 0.62218 -0.51938 0.61028
v 0.64401 -0.58000 0.58291
v 0.62218 -0.64062 0.61028
v 0.57854 -0.64062 0.66500
v 0.47070 -0.58000 0.58450
v 0.50223 -0.51938 0.56932
v 0.56530 -0.51938 0.53895
v 0.59684 -0.58000 0.52376
v 0.56530 -0.64062 0.53895
v 0.50223 -0.64062 0.56932
v 0.44000 -0.58000 0.45000
v 0.47500 -0.51938 0.45000
v 0.54500 -0.51938 0.45000
v 0.58000 -0.58000 0.45000
v 0.54500 -0.64062 0.45000
v 0.47500 -0.64062 0.45000
v 0.47070 -0.58000 0.31550
v 0.50223 -0.51938 0.33068
v 0.56530 -0.51938 0.36105
v 0.59684 -0.58000 0.37624
v 0.56530 -0.64062 0.36105
v 0.50223 -0.64062 0.33068
v 0.55672 -0.58000 0.20763
v 0.57854 -0.51938 0.23500
v 0.62218 -0.51938 0.28972
v 0.64401 -0.58000 0.31709
v 0.62218 -0.64062 0.28972
v 0.57854 -0.64062 0.23500
v 0.68102 -0.58000 0.14777
v 0.68881 -0.51938 0.18189
v 0.70438 -0.51938 0.25014
v 0.71217 -0.58000 0.28426
v 0.70438 -0.64062 0.25014
v 0.68881 -0.64062 0.18189
v 0.81898 -0.58000 0.14777
v 0.81119 -0.51938 0.18189
v 0.79562 -0.51938 0.25014
v 0.78783 -0.58000 0.28426
v 0.79562 -0.64062 0.25014
v 0.81119 -0.64062 0.18189
v 0.94328 -0.58000 0.20763
v 0.92146 -0.51938 0.23500
v 0.87782 -0.51938 0.28972
v 0.85599 -0.58000 0.31709
v 0.87782 -0.64062 0.28972
v 0.92146 -0.64062 0.23500
v 1.02930 -0.58000 0.31550
v 0.99777 -0.51938 0.33068
v 0.93470 -0.51938 0.36105
v 0.90316 -0.58000 0.37624
v 0.93470 -0.64062 0.36105
v 0.99777 -0.64062 0.33068
v 0.88000 -0.62000 0.45000
v 0.88000 -0.54000 0.45000
v 0.85517 -0.62000 0.52641
v 0.85517 -0.54000 0.52641
v 0.79017 -0.62000 0.57364
v 0.79017 -0.54000 0.57364
v 0.70983 -0.62000 0.57364
v 0.70983 -0.54000 0.57364
v 0.64483 -0.62000 0.52641
v 0.64483 -0.54000 0.52641
v 0.62000 -0.62000 0.45000
v 0.62000 -0.54000 0.45000
v 0.64483 -0.62000 0.37359
v 0.64483 -0.54000 0.37359
v 0.70983 -0.62000 0.32636
v 0.70983 -0.54000 0.32636
v 0.79017 -0.62000 0.32636
v 0.79017 -0.54000 0.32636
v 0.85517 -0.62000 0.37359
v 0.85517 -0.54000 0.37359
v 1.06000 0.58000 0.45000
v 1.02500 0.64062 0.45000
v 0.95500 0.64062 0.45000
v 0.92000 0.58000 0.45000
v 0.95500 0.51938 0.45000
v 1.02500 0.51938 0.45000
v 1.02930 0.58000 0.58450
v 0.99777 0.64062 0.56932
v 0.93470 0.64062 0.53895
v 0.90316 0.58000 0.52376
v 0.93470 0.51938 0.53895
v 0.99777 0.51938 0.56932
v 0.94328 0.58000 0.69237
v 0.92146 0.64062 0.66500
v 0.87782 0.64062 0.61028
v 0.85599 0.58000 0.58291
v 0.87782 0.51938 0.61028
v 0.92146 0.51938 0.66500
v 0.81898 0.58000 0.75223
v 0.81119 0.64062 0.71811
v 0.79562 0.64062 0.64986
v 0.78783 0.58000 0.61574
v 0.79562 0.51938 0.64986
v 0.81119 0.51938 0.71811
v 0.68102 0.58000 0.75223
v 0.68881 0.64062 0.71811
v 0.70438 0.64062 0.64986
v 0.71217 0.58000 0.61574
v 0.70438 0.51938 0.64986
v 0.68881 0.51938 0.71811
v 0.55672 0.58000 0.69237
v 0.57854 0.64062 0.66500
v 0.62218 0.64062 0.61028
v 0.64401 0.58000 0.58291
v 0.62218 0.51938 0.61028
v 0.57854 0.51938 0.66500
v 0.47070 0.58000 0.58450
v 0.50223 0.64062 0.56932
v 0.56530 0.64062 0.53895
v 0.59684 0.58000 0.52376
v 0.56530 0.51938 0.53895
v 0.50223 0.51938 0.56932
v 0.44000 0.58000 0.45000
v 0.47500 0.64062 0.45000
v 0.54500 0.64062 0.45000
v 0.58000 0.58000 0.45000
v 0.54500 0.51938 0.45000
v 0.47500 0.51938 0.45000
v 0.47070 0.58000 0.31550
v 0.50223 0.64062 0.33068
v 0.56530 0.64062 0.36105
v 0.59684 0.58000 0.37624
v 0.56530 0.51938 0.36105
v 0.50223 0.51938 0.33068
v 0.55672 0.58000 0.20763
v 0.57854 0.64062 0.23500
v 0.62218 0.64062 0.28972
v 0.64401 0.58000 0.31709
v 0.62218 0.51938 0.28972
v 0.57854 0.51938 0.23500
v 0.68102 0.58000 0.14777
v 0.68881 0.64062 0.18189
v 0.70438 0.64062 0.25014
v 0.71217 0.58000 0.28426
v 0.70438 0.51938 0.25014
v 0.68881 0.51938 0.18189
v 0.81898 0.58000 0.14777
v 0.81119 0.64062 0.18189
v 0.79562 0.64062 0.25014
v 0.78783 0.58000 0.28426
v 0.79562 0.51938 0.25014
v 0.81119 0.51938 0.18189
v 0.94328 0.58000 0.20763
v 0.92146 0.64062 0.23500
v 0.87782 0.64062 0.28972
v 0.85599 0.58000 0.31709
v 0.87782 0.51938 0.28972
v 0.92146 0.51938 0.23500
v 1.02930 0.58000 0.31550
v 0.99777 0.64062 0.33068
v 0.93470 0.64062 0.36105
v 0.90316 0.58000 0.37624
v 0.93470 0.51938 0.36105
v 0.99777 0.51938 0.33068
v 0.88000 0.54000 0.45000
v 0.88000 0.62000 0.45000
v 0.85517 0.54000 0.52641
v 0.85517 0.62000 0.52641
v 0.79017 0.54000 0.57364
v 0.79017 0.62000 0.57364
v 0.70983 0.54000 0.57364
v 0.70983 0.62000 0.57364
v 0.64483 0.54000 0.52641
v 0.64483 0.62000 0.52641
v 0.62000 0.54000 0.45000
v 0.62000 0.62000 0.45000
v 0.64483 0.54000 0.37359
v 0.64483 0.62000 0.37359
v 0.70983 0.54000 0.32636
v 0.70983 0.62000 0.32636
v 0.79017 0.54000 0.32636
v 0.79017 0.62000 0.32636
v 0.85517 0.54000 0.37359
v 0.85517 0.62000 0.37359
usemtl red
f 1 2 3 4
f 5 8 7 6
f 1 5 6 2
f 2 6 7 3
f 3 7 8 4
f 4 8 5 1
f 9 10 11 12
f 13 16 15 14
f 9 13 14 10
f 10 14 15 11
f 11 15 16 12
f 12 16 13 9
usemtl glass
f 17 18 19 20
f 21 24 23 22
f 17 21 22 18
f 18 22 23 19
f 19 23 24 20
f 20 24 21 17
f 25 26 27 28
f 29 32 31 30
f 25 29 30 26
f 26 30 31 27
f 27 31 32 28
f 28 32 29 25
usemtl black
f 33 39 40 34
f 34 40 41 35
f 35 41 42 36
f 36 42 43 37
f 37 43 44 38
f 38 44 39 33
f 39 45 46 40
f 40 46 47 41
f 41 47 48 42
f 42 48 49 43
f 43 49 50 44
f 44 50 45 39
f 45 51 52 46
f 46 52 53 47
f 47 53 54 48
f 48 54 55 49
f 49 55 56 50
f 50 56 51 45
f 51 57 58 52
f 52 58 59 53
f 53 59 60 54
f 54 60 61 55
f 55 61 62 56
f 56 62 57 51
f 57 63 64 58
f 58 64 65 59
f 59 65 66 60
f 60 66 67 61
f 61 67 68 62
f 62 68 63 57
f 63 69 70 64
f 64 70 71 65
f 65 71 72 66
f 66 72 73 67
f 67 73 74 68
f 68 74 69 63
f 69 75 76 70
f 70 76 77 71
f 71 77 78 72
f 72 78 79 73
f 73 79 80 74
f 74 80 75 69
f 75 81 82 76
f 76 82 83 77
f 77 83 84 78
f 78 84 85 79
f 79 85 86 80
f 80 86 81 75
f 81 87 88 82
f 82 88 89 83
f 83 89 90 84
f 84 90 91 85
f 85 91 92 86
f 86 92 87 81
f 87 93 94 88
f 88 94 95 89
f 89 95 96 90
f 90 96 97 91
f 91 97 98 92
f 92 98 93 87
f 93 99 100 94
f 94 100 101 95
f 95 101 102 96
f 96 102 103 97
f 97 103 104 98
f 98 104 99 93
f 99 105 106 100
f 100 106 107 101
f 101 107 108 102
f 102 108 109 103
f 103 109 110 104
f 104 110 105 99
f 105 111 112 106
f 106 112 113 107
f 107 113 114 108
f 108 114 115 109
f 109 115 116 110
f 110 116 111 105
f 111 33 34 112
f 112 34 35 113
f 113 35 36 114
f 114 36 37 115
f 115 37 38 116
f 116 38 33 111
usemtl metal
f 117 119 120 118
f 119 121 122 120
f 121 123 124 122
f 123 125 126 124
f 125 127 128 126
f 127 129 130 128
f 129 131 132 130
f 131 133 134 132
f 133 135 136 134
f 135 117 118 136
f 135 133 131 129 127 125 123 121 119 117
f 118 120 122 124 126 128 130 132 134 136
usemtl black
f 137 143 144 138
f 138 144 145 139
f 139 145 146 140
f 140 146 147 141
f 141 147 148 142
f 142 148 143 137
f 143 149 150 144
f 144 150 151 145
f 145 151 152 146
f 146 152 153 147
f 147 153 154 148
f 148 154 149 143
f 149 155 156 150
f 150 156 157 151
f 151 157 158 152
f 152 158 159 153
f 153 159 160 154
f 154 160 155 149
f 155 161 162 156
f 156 162 163 157
f 157 163 164 158
f 158 164 165 159
f 159 165 166 160
f 160 166 161 155
f 161 167 168 162
f 162 168 169 163
f 163 169 170 164
f 164 170 171 165
f 165 171 172 166
f 166 172 167 161
f 167 173 174 168
f 168 174 175 169
f 169 175 176 170
f 170 176 177 171
f 171 177 178 172
f 172 178 173 167
f 173 179 180 174
f 174 180 181 175
f 175 181 182 176
f 176 182 183 177
f 177 183 184 178
f 178 184 179 173
f 179 185 186 180
f 180 186 187 181
f 181 187 188 182
f 182 188 189 183
f 183 189 190 184
f 184 190 185 179
f 185 191 192 186
f 186 192 193 187
f 187 193 194 188
f 188 194 195 189
f 189 195 196 190
f 190 196 191 185
f 191 197 198 192
f 192 198 199 193
f 193 199 200 194
f 194 200 201 195
f 195 201 202 196
f 196 202 197 191
f 197 203 204 198
f 198 204 205 199
f 199 205 206 200
f 200 206 207 201
f 201 207 208 202
f 202 208 203 197
f 203 209 210 204
f 204 210 211 205
f 205 211 212 206
f 206 212 213 207
f 207 213 214 208
f 208 214 209 203
f 209 215 216 210
f 210 216 217 211
f 211 217 218 212
f 212 218 219 213
f 213 219 220 214
f 214 220 215 209
f 215 137 138 216
f 216 138 139 217
f 217 139 140 218
f 218 140 141 219
f 219 141 142 220
f 220 142 137 215
usemtl metal
f 221 223 224 222
f 223 225 226 224
f 225 227 228 226
f 227 229 230 228
f 229 231 232 230
f 231 233 234 232
f 233 235 236 234
f 235 237 238 236
f 237 239 240 238
f 239 221 222 240
f 239 237 235 233 231 229 227 225 223 221
f 222 224 226 228 230 232 234 236 238 240
usemtl black
f 241 247 248 242
f 242 248 249 243
f 243 249 250 244
f 244 250 251 245
f 245 251 252 246
f 246 252 247 241
f 247 253 254 248
f 248 254 255 249
f 249 255 256 250
f 250 256 257 251
f 251 257 258 252
f 252 258 253 247
f 253 259 260 254
f 254 260 261 255
f 255 261 262 256
f 256 262 263 257
f 257 263 264 258
f 258 264 259 253
f 259 265 266 260
f 260 266 267 261
f 261 267 268 262
f 262 268 269 263
f 263 269 270 264
f 264 270 265 259
f 265 271 272 266
f 266 272 273 267
f 267 273 274 268
f 268 274 275 269
f 269 275 276 270
f 270 276 271 265
f 271 277 278 272
f 272 278 279 273
f 273 279 280 274
f 274 280 281 275
f 275 281 282 276
f 276 282 277 271
f 277 283 284 278
f 278 284 285 279
f 279 285 286 280
f 280 286 287 281
f 281 287 288 282
f 282 288 283 277
f 283 289 290 284
f 284 290 291 285
f 285 291 292 286
f 286 292 293 287
f 287 293 294 288
f 288 294 289 283
f 289 295 296 290
f 290 296 297 291
f 291 297 298 292
f 292 298 299 293
f 293 299 300 294
f 294 300 295 289
f 295 301 302 296
f 296 302 303 297
f 297 303 304 298
f 298 304 305 299
f 299 305 306 300
f 300 306 301 295
f 301 307 308 302
f 302 308 309 303
f 303 309 310 304
f 304 310 311 305
f 305 311 312 306
f 306 312 307 301
f 307 313 314 308
f 308 314 315 309
f 309 315 316 310
f 310 316 317 311
f 311 317 318 312
f 312 318 313 307
f 313 319 320 314
f 314 320 321 315
f 315 321 322 316
f 316 322 323 317
f 317 323 324 318
f 318 324 319 313
f 319 241 242 320
f 320 242 243 321
f 321 243 244 322
f 322 244 245 323
f 323 245 246 324
f 324 246 241 319
usemtl metal
f 325 327 328 326
f 327 329 330 328
f 329 331 332 330
f 331 333 334 332
f 333 335 336 334
f 335 337 338 336
f 337 339 340 338
f 339 341 342 340
f 341 343 344 342
f 343 325 326 344
f 343 341 339 337 335 333 331 329 327 325
f 326 328 330 332 334 336 338 340 342 344
usemtl black
f 345 351 352 346
f 346 352 353 347
f 347 353 354 348
f 348 354 355 349
f 349 355 356 350
f 350 356 351 345
f 351 357 358 352
f 352 358 359 353
f 353 359 360 354
f 354 360 361 355
f 355 361 362 356
f 356 362 357 351
f 357 363 364 358
f 358 364 365 359
f 359 365 366 360
f 360 366 367 361
f 361 367 368 362
f 362 368 363 357
f 363 369 370 364
f 364 370 371 365
f 365 371 372 366
f 366 372 373 367
f 367 373 374 368
f 368 374 369 363
f 369 375 376 370
f 370 376 377 371
f 371 377 378 372
f 372 378 379 373
f 373 379 380 374
f 374 380 375 369
f 375 381 382 376
f 376 382 383 377
f 377 383 384 378
f 378 384 385 379
f 379 385 386 380
f 380 386 381 375
f 381 387 388 382
f 382 388 389 383
f 383 389 390 384
f 384 390 391 385
f 385 391 392 386
f 386 392 387 381
f 387 393 394 388
f 388 394 395 389
f 389 395 396 390
f 390 396 397 391
f 391 397 398 392
f 392 398 393 387
f 393 399 400 394
f 394 400 401 395
f 395 401 402 396
f 396 402 403 397
f 397 403 404 398
f 398 404 399 393
f 399 405 406 400
f 400 406 407 401
f 401 407 408 402
f 402 408 409 403
f 403 409 410 404
f 404 410 405 399
f 405 411 412 406
f 406 412 413 407
f 407 413 414 408
f 408 414 415 409
f 409 415 416 410
f 410 416 411 405
f 411 417 418 412
f 412 418 419 413
f 413 419 420 414
f 414 420 421 415
f 415 421 422 416
f 416 422 417 411
f 417 423 424 418
f 418 424 425 419
f 419 425 426 420
f 420 426 427 421
f 421 427 428 422
f 422 428 423 417
f 423 345 346 424
f 424 346 347 425
f 425 347 348 426
f 426 348 349 427
f 427 349 350 428
f 428 350 345 423
usemtl metal
f 429 431 432 430
f 431 433 434 432
f 433 435 436 434
f 435 437 438 436
f 437 439 440 438
f 439 441 442 440
f 441 443 444 442
f 443 445 446 444
f 445 447 448 446
f 447 429 430 448
f 447 445 443 441 439 437 435 433 431 429
f 430 432 434 436 438 440 442 444 446 448
