mtllib cow.mtl
o XYT_generated
v 0.00000 0.00000 1.85000
v 0.00000 0.00000 1.85000
v 0.00000 0.00000 1.85000
v 0.00000 0.00000 1.85000
v 0.00000 0.00000 1.85000
v 0.00000 0.00000 1.85000
v 0.00000 0.00000 1.85000
v 0.00000 0.00000 1.85000
v 0.00000 0.00000 1.85000
v 0.00000 0.00000 1.85000
v 0.67500 0.00000 1.77631
v 0.54609 0.16164 1.77631
v 0.20859 0.26154 1.77631
v -0.20859 0.26154 1.77631
v -0.54609 0.16164 1.77631
v -0.67500 0.00000 1.77631
v -0.54609 -0.16164 1.77631
v -0.20859 -0.26154 1.77631
v 0.20859 -0.26154 1.77631
v 0.54609 -0.16164 1.77631
v 1.16913 0.00000 1.57500
v 0.94585 0.27997 1.57500
v 0.36128 0.45300 1.57500
v -0.36128 0.45300 1.57500
v -0.94585 0.27997 1.57500
v -1.16913 0.00000 1.57500
v -0.94585 -0.27997 1.57500
v -0.36128 -0.45300 1.57500
v 0.36128 -0.45300 1.57500
v 0.94585 -0.27997 1.57500
v 1.35000 0.00000 1.30000
v 1.09217 0.32328 1.30000
v 0.41717 0.52308 1.30000
v -0.41717 0.52308 1.30000
v -1.09217 0.32328 1.30000
v -1.35000 0.00000 1.30000
v -1.09217 -0.32328 1.30000
v -0.41717 -0.52308 1.30000
v 0.41717 -0.52308 1.30000
v 1.09217 -0.32328 1.30000
v 1.16913 0.00000 1.02500
v 0.94585 0.27997 1.02500
v 0.36128 0.45300 1.02500
v -0.36128 0.45300 1.02500
v -0.94585 0.27997 1.02500
v -1.16913 0.00000 1.02500
v -0.94585 -0.27997 1.02500
v -0.36128 -0.45300 1.02500
v 0.36128 -0.45300 1.02500
v 0.94585 -0.27997 1.02500
v 0.67500 0.00000 0.82369
v 0.54609 0.16164 0.82369
v 0.20859 0.26154 0.82369
v -0.20859 0.26154 0.82369
v -0.54609 0.16164 0.82369
v -0.67500 0.00000 0.82369
v -0.54609 -0.16164 0.82369
v -0.20859 -0.26154 0.82369
v 0.20859 -0.26154 0.82369
v 0.54609 -0.16164 0.82369
v 0.00000 0.00000 0.75000
v 0.00000 0.00000 0.75000
v 0.00000 0.00000 0.75000
v -0.00000 0.00000 0.75000
v -0.00000 0.00000 0.75000
v -0.00000 0.00000 0.75000
v -0.00000 -0.00000 0.75000
v -0.00000 -0.00000 0.75000
v 0.00000 -0.00000 0.75000
v 0.00000 -0.00000 0.75000
v -0.35000 -0.15000 1.63000
v -0.35000 -0.15000 1.63000
v -0.35000 -0.15000 1.63000
v -0.35000 -0.15000 1.63000
v -0.35000 -0.15000 1.63000
v -0.35000 -0.15000 1.63000
v -0.35000 -0.15000 1.63000
v -0.35000 -0.15000 1.63000
v -0.35000 -0.15000 1.63000
v -0.35000 -0.15000 1.63000
v -0.17500 -0.15000 1.60588
v -0.20842 -0.09710 1.60588
v -0.29592 -0.06440 1.60588
v -0.40408 -0.06440 1.60588
v -0.49158 -0.09710 1.60588
v -0.52500 -0.15000 1.60588
v -0.49158 -0.20290 1.60588
v -0.40408 -0.23560 1.60588
v -0.29592 -0.23560 1.60588
v -0.20842 -0.20290 1.60588
v -0.04689 -0.15000 1.54000
v -0.10478 -0.05837 1.54000
v -0.25633 -0.00174 1.54000
v -0.44367 -0.00174 1.54000
v -0.59522 -0.05837 1.54000
v -0.65311 -0.15000 1.54000
v -0.59522 -0.24163 1.54000
v -0.44367 -0.29826 1.54000
v -0.25633 -0.29826 1.54000
v -0.10478 -0.24163 1.54000
v 0.00000 -0.15000 1.45000
v -0.06684 -0.04420 1.45000
v -0.24184 0.02119 1.45000
v -0.45816 0.02119 1.45000
v -0.63316 -0.04420 1.45000
v -0.70000 -0.15000 1.45000
v -0.63316 -0.25580 1.45000
v -0.45816 -0.32119 1.45000
v -0.24184 -0.32119 1.45000
v -0.06684 -0.25580 1.45000
v -0.04689 -0.15000 1.36000
v -0.10478 -0.05837 1.36000
v -0.25633 -0.00174 1.36000
v -0.44367 -0.00174 1.36000
v -0.59522 -0.05837 1.36000
v -0.65311 -0.15000 1.36000
v -0.59522 -0.24163 1.36000
v -0.44367 -0.29826 1.36000
v -0.25633 -0.29826 1.36000
v -0.10478 -0.24163 1.36000
v -0.17500 -0.15000 1.29412
v -0.20842 -0.09710 1.29412
v -0.29592 -0.06440 1.29412
v -0.40408 -0.06440 1.29412
v -0.49158 -0.09710 1.29412
v -0.52500 -0.15000 1.29412
v -0.49158 -0.20290 1.29412
v -0.40408 -0.23560 1.29412
v -0.29592 -0.23560 1.29412
v -0.20842 -0.20290 1.29412
v -0.35000 -0.15000 1.27000
v -0.35000 -0.15000 1.27000
v -0.35000 -0.15000 1.27000
v -0.35000 -0.15000 1.27000
v -0.35000 -0.15000 1.27000
v -0.35000 -0.15000 1.27000
v -0.35000 -0.15000 1.27000
v -0.35000 -0.15000 1.27000
v -0.35000 -0.15000 1.27000
v -0.35000 -0.15000 1.27000
v 0.45000 0.18000 1.36000
v 0.45000 0.18000 1.36000
v 0.45000 0.18000 1.36000
v 0.45000 0.18000 1.36000
v 0.45000 0.18000 1.36000
v 0.45000 0.18000 1.36000
v 0.45000 0.18000 1.36000
v 0.45000 0.18000 1.36000
v 0.45000 0.18000 1.36000
v 0.45000 0.18000 1.36000
v 0.61000 0.18000 1.33856
v 0.57944 0.22702 1.33856
v 0.49944 0.25608 1.33856
v 0.40056 0.25608 1.33856
v 0.32056 0.22702 1.33856
v 0.29000 0.18000 1.33856
v 0.32056 0.13298 1.33856
v 0.40056 0.10392 1.33856
v 0.49944 0.10392 1.33856
v 0.57944 0.13298 1.33856
v 0.72713 0.18000 1.28000
v 0.67420 0.26145 1.28000
v 0.53564 0.31178 1.28000
v 0.36436 0.31178 1.28000
v 0.22580 0.26145 1.28000
v 0.17287 0.18000 1.28000
v 0.22580 0.09855 1.28000
v 0.36436 0.04822 1.28000
v 0.53564 0.04822 1.28000
v 0.67420 0.09855 1.28000
v 0.77000 0.18000 1.20000
v 0.70889 0.27405 1.20000
v 0.54889 0.33217 1.20000
v 0.35111 0.33217 1.20000
v 0.19111 0.27405 1.20000
v 0.13000 0.18000 1.20000
v 0.19111 0.08595 1.20000
v 0.35111 0.02783 1.20000
v 0.54889 0.02783 1.20000
v 0.70889 0.08595 1.20000
v 0.72713 0.18000 1.12000
v 0.67420 0.26145 1.12000
v 0.53564 0.31178 1.12000
v 0.36436 0.31178 1.12000
v 0.22580 0.26145 1.12000
v 0.17287 0.18000 1.12000
v 0.22580 0.09855 1.12000
v 0.36436 0.04822 1.12000
v 0.53564 0.04822 1.12000
v 0.67420 0.09855 1.12000
v 0.61000 0.18000 1.06144
v 0.57944 0.22702 1.06144
v 0.49944 0.25608 1.06144
v 0.40056 0.25608 1.06144
v 0.32056 0.22702 1.06144
v 0.29000 0.18000 1.06144
v 0.32056 0.13298 1.06144
v 0.40056 0.10392 1.06144
v 0.49944 0.10392 1.06144
v 0.57944 0.13298 1.06144
v 0.45000 0.18000 1.04000
v 0.45000 0.18000 1.04000
v 0.45000 0.18000 1.04000
v 0.45000 0.18000 1.04000
v 0.45000 0.18000 1.04000
v 0.45000 0.18000 1.04000
v 0.45000 0.18000 1.04000
v 0.45000 0.18000 1.04000
v 0.45000 0.18000 1.04000
v 0.45000 0.18000 1.04000
v -0.75000 0.18000 1.71000
v -0.75000 0.18000 1.71000
v -0.75000 0.18000 1.71000
v -0.75000 0.18000 1.71000
v -0.75000 0.18000 1.71000
v -0.75000 0.18000 1.71000
v -0.75000 0.18000 1.71000
v -0.75000 0.18000 1.71000
v -0.75000 0.18000 1.71000
v -0.75000 0.18000 1.71000
v -0.61000 0.18000 1.68856
v -0.63674 0.22114 1.68856
v -0.70674 0.24657 1.68856
v -0.79326 0.24657 1.68856
v -0.86326 0.22114 1.68856
v -0.89000 0.18000 1.68856
v -0.86326 0.13886 1.68856
v -0.79326 0.11343 1.68856
v -0.70674 0.11343 1.68856
v -0.63674 0.13886 1.68856
v -0.50751 0.18000 1.63000
v -0.55382 0.25127 1.63000
v -0.67507 0.29531 1.63000
v -0.82493 0.29531 1.63000
v -0.94618 0.25127 1.63000
v -0.99249 0.18000 1.63000
v -0.94618 0.10873 1.63000
v -0.82493 0.06469 1.63000
v -0.67507 0.06469 1.63000
v -0.55382 0.10873 1.63000
v -0.47000 0.18000 1.55000
v -0.52348 0.26229 1.55000
v -0.66348 0.31315 1.55000
v -0.83652 0.31315 1.55000
v -0.97652 0.26229 1.55000
v -1.03000 0.18000 1.55000
v -0.97652 0.09771 1.55000
v -0.83652 0.04685 1.55000
v -0.66348 0.04685 1.55000
v -0.52348 0.09771 1.55000
v -0.50751 0.18000 1.47000
v -0.55382 0.25127 1.47000
v -0.67507 0.29531 1.47000
v -0.82493 0.29531 1.47000
v -0.94618 0.25127 1.47000
v -0.99249 0.18000 1.47000
v -0.94618 0.10873 1.47000
v -0.82493 0.06469 1.47000
v -0.67507 0.06469 1.47000
v -0.55382 0.10873 1.47000
v -0.61000 0.18000 1.41144
v -0.63674 0.22114 1.41144
v -0.70674 0.24657 1.41144
v -0.79326 0.24657 1.41144
v -0.86326 0.22114 1.41144
v -0.89000 0.18000 1.41144
v -0.86326 0.13886 1.41144
v -0.79326 0.11343 1.41144
v -0.70674 0.11343 1.41144
v -0.63674 0.13886 1.41144
v -0.75000 0.18000 1.39000
v -0.75000 0.18000 1.39000
v -0.75000 0.18000 1.39000
v -0.75000 0.18000 1.39000
v -0.75000 0.18000 1.39000
v -0.75000 0.18000 1.39000
v -0.75000 0.18000 1.39000
v -0.75000 0.18000 1.39000
v -0.75000 0.18000 1.39000
v -0.75000 0.18000 1.39000
v 0.15000 -0.32000 1.60000
v 0.15000 -0.32000 1.60000
v 0.15000 -0.32000 1.60000
v 0.15000 -0.32000 1.60000
v 0.15000 -0.32000 1.60000
v 0.15000 -0.32000 1.60000
v 0.15000 -0.32000 1.60000
v 0.15000 -0.32000 1.60000
v 0.15000 -0.32000 1.60000
v 0.15000 -0.32000 1.60000
v 0.30000 -0.32000 1.57588
v 0.27135 -0.28473 1.57588
v 0.19635 -0.26294 1.57588
v 0.10365 -0.26294 1.57588
v 0.02865 -0.28473 1.57588
v 0.00000 -0.32000 1.57588
v 0.02865 -0.35527 1.57588
v 0.10365 -0.37706 1.57588
v 0.19635 -0.37706 1.57588
v 0.27135 -0.35527 1.57588
v 0.40981 -0.32000 1.51000
v 0.36019 -0.25892 1.51000
v 0.23028 -0.22116 1.51000
v 0.06972 -0.22116 1.51000
v -0.06019 -0.25892 1.51000
v -0.10981 -0.32000 1.51000
v -0.06019 -0.38108 1.51000
v 0.06972 -0.41884 1.51000
v 0.23028 -0.41884 1.51000
v 0.36019 -0.38108 1.51000
v 0.45000 -0.32000 1.42000
v 0.39271 -0.24947 1.42000
v 0.24271 -0.20587 1.42000
v 0.05729 -0.20587 1.42000
v -0.09271 -0.24947 1.42000
v -0.15000 -0.32000 1.42000
v -0.09271 -0.39053 1.42000
v 0.05729 -0.43413 1.42000
v 0.24271 -0.43413 1.42000
v 0.39271 -0.39053 1.42000
v 0.40981 -0.32000 1.33000
v 0.36019 -0.25892 1.33000
v 0.23028 -0.22116 1.33000
v 0.06972 -0.22116 1.33000
v -0.06019 -0.25892 1.33000
v -0.10981 -0.32000 1.33000
v -0.06019 -0.38108 1.33000
v 0.06972 -0.41884 1.33000
v 0.23028 -0.41884 1.33000
v 0.36019 -0.38108 1.33000
v 0.30000 -0.32000 1.26412
v 0.27135 -0.28473 1.26412
v 0.19635 -0.26294 1.26412
v 0.10365 -0.26294 1.26412
v 0.02865 -0.28473 1.26412
v 0.00000 -0.32000 1.26412
v 0.02865 -0.35527 1.26412
v 0.10365 -0.37706 1.26412
v 0.19635 -0.37706 1.26412
v 0.27135 -0.35527 1.26412
v 0.15000 -0.32000 1.24000
v 0.15000 -0.32000 1.24000
v 0.15000 -0.32000 1.24000
v 0.15000 -0.32000 1.24000
v 0.15000 -0.32000 1.24000
v 0.15000 -0.32000 1.24000
v 0.15000 -0.32000 1.24000
v 0.15000 -0.32000 1.24000
v 0.15000 -0.32000 1.24000
v 0.15000 -0.32000 1.24000
v 1.55000 0.00000 1.67000
v 1.55000 0.00000 1.67000
v 1.55000 0.00000 1.67000
v 1.55000 0.00000 1.67000
v 1.55000 0.00000 1.67000
v 1.55000 0.00000 1.67000
v 1.55000 0.00000 1.67000
v 1.55000 0.00000 1.67000
v 1.55000 0.00000 1.67000
v 1.55000 0.00000 1.67000
v 1.77500 0.00000 1.62713
v 1.73203 0.10286 1.62713
v 1.61953 0.16643 1.62713
v 1.48047 0.16643 1.62713
v 1.36797 0.10286 1.62713
v 1.32500 0.00000 1.62713
v 1.36797 -0.10286 1.62713
v 1.48047 -0.16643 1.62713
v 1.61953 -0.16643 1.62713
v 1.73203 -0.10286 1.62713
v 1.93971 0.00000 1.51000
v 1.86528 0.17816 1.51000
v 1.67043 0.28827 1.51000
v 1.42957 0.28827 1.51000
v 1.23472 0.17816 1.51000
v 1.16029 0.00000 1.51000
v 1.23472 -0.17816 1.51000
v 1.42957 -0.28827 1.51000
v 1.67043 -0.28827 1.51000
v 1.86528 -0.17816 1.51000
v 2.00000 0.00000 1.35000
v 1.91406 0.20572 1.35000
v 1.68906 0.33287 1.35000
v 1.41094 0.33287 1.35000
v 1.18594 0.20572 1.35000
v 1.10000 0.00000 1.35000
v 1.18594 -0.20572 1.35000
v 1.41094 -0.33287 1.35000
v 1.68906 -0.33287 1.35000
v 1.91406 -0.20572 1.35000
v 1.93971 0.00000 1.19000
v 1.86528 0.17816 1.19000
v 1.67043 0.28827 1.19000
v 1.42957 0.28827 1.19000
v 1.23472 0.17816 1.19000
v 1.16029 0.00000 1.19000
v 1.23472 -0.17816 1.19000
v 1.42957 -0.28827 1.19000
v 1.67043 -0.28827 1.19000
v 1.86528 -0.17816 1.19000
v 1.77500 0.00000 1.07287
v 1.73203 0.10286 1.07287
v 1.61953 0.16643 1.07287
v 1.48047 0.16643 1.07287
v 1.36797 0.10286 1.07287
v 1.32500 0.00000 1.07287
v 1.36797 -0.10286 1.07287
v 1.48047 -0.16643 1.07287
v 1.61953 -0.16643 1.07287
v 1.73203 -0.10286 1.07287
v 1.55000 0.00000 1.03000
v 1.55000 0.00000 1.03000
v 1.55000 0.00000 1.03000
v 1.55000 0.00000 1.03000
v 1.55000 0.00000 1.03000
v 1.55000 0.00000 1.03000
v 1.55000 -0.00000 1.03000
v 1.55000 -0.00000 1.03000
v 1.55000 -0.00000 1.03000
v 1.55000 -0.00000 1.03000
v 1.95000 0.00000 1.43000
v 1.95000 0.00000 1.43000
v 1.95000 0.00000 1.43000
v 1.95000 0.00000 1.43000
v 1.95000 0.00000 1.43000
v 1.95000 0.00000 1.43000
v 1.95000 0.00000 1.43000
v 1.95000 0.00000 1.43000
v 1.95000 0.00000 1.43000
v 1.95000 0.00000 1.43000
v 2.07500 0.00000 1.40588
v 2.05113 0.07347 1.40588
v 1.98863 0.11888 1.40588
v 1.91137 0.11888 1.40588
v 1.84887 0.07347 1.40588
v 1.82500 0.00000 1.40588
v 1.84887 -0.07347 1.40588
v 1.91137 -0.11888 1.40588
v 1.98863 -0.11888 1.40588
v 2.05113 -0.07347 1.40588
v 2.16651 0.00000 1.34000
v 2.12516 0.12726 1.34000
v 2.01690 0.20591 1.34000
v 1.88310 0.20591 1.34000
v 1.77484 0.12726 1.34000
v 1.73349 0.00000 1.34000
v 1.77484 -0.12726 1.34000
v 1.88310 -0.20591 1.34000
v 2.01690 -0.20591 1.34000
v 2.12516 -0.12726 1.34000
v 2.20000 0.00000 1.25000
v 2.15225 0.14695 1.25000
v 2.02725 0.23776 1.25000
v 1.87275 0.23776 1.25000
v 1.74775 0.14695 1.25000
v 1.70000 0.00000 1.25000
v 1.74775 -0.14695 1.25000
v 1.87275 -0.23776 1.25000
v 2.02725 -0.23776 1.25000
v 2.15225 -0.14695 1.25000
v 2.16651 0.00000 1.16000
v 2.12516 0.12726 1.16000
v 2.01690 0.20591 1.16000
v 1.88310 0.20591 1.16000
v 1.77484 0.12726 1.16000
v 1.73349 0.00000 1.16000
v 1.77484 -0.12726 1.16000
v 1.88310 -0.20591 1.16000
v 2.01690 -0.20591 1.16000
v 2.12516 -0.12726 1.16000
v 2.07500 0.00000 1.09412
v 2.05113 0.07347 1.09412
v 1.98863 0.11888 1.09412
v 1.91137 0.11888 1.09412
v 1.84887 0.07347 1.09412
v 1.82500 0.00000 1.09412
v 1.84887 -0.07347 1.09412
v 1.91137 -0.11888 1.09412
v 1.98863 -0.11888 1.09412
v 2.05113 -0.07347 1.09412
v 1.95000 0.00000 1.07000
v 1.95000 0.00000 1.07000
v 1.95000 0.00000 1.07000
v 1.95000 0.00000 1.07000
v 1.95000 0.00000 1.07000
v 1.95000 0.00000 1.07000
v 1.95000 -0.00000 1.07000
v 1.95000 -0.00000 1.07000
v 1.95000 -0.00000 1.07000
v 1.95000 -0.00000 1.07000
v 1.53000 -0.53500 1.75000
v 1.51472 -0.53500 1.79702
v 1.47472 -0.53500 1.82608
v 1.42528 -0.53500 1.82608
v 1.38528 -0.53500 1.79702
v 1.37000 -0.53500 1.75000
v 1.38528 -0.53500 1.70298
v 1.42528 -0.53500 1.67392
v 1.47472 -0.53500 1.67392
v 1.51472 -0.53500 1.70298
v 1.45000 -0.18500 1.75000
v 1.53000 0.18500 1.75000
v 1.51472 0.18500 1.79702
v 1.47472 0.18500 1.82608
v 1.42528 0.18500 1.82608
v 1.38528 0.18500 1.79702
v 1.37000 0.18500 1.75000
v 1.38528 0.18500 1.70298
v 1.42528 0.18500 1.67392
v 1.47472 0.18500 1.67392
v 1.51472 0.18500 1.70298
v 1.45000 0.53500 1.75000
v -0.65000 -0.34000 0.12500
v -0.65000 -0.34000 1.17500
v -0.66910 -0.28122 0.12500
v -0.66910 -0.28122 1.17500
v -0.71910 -0.24489 0.12500
v -0.71910 -0.24489 1.17500
v -0.78090 -0.24489 0.12500
v -0.78090 -0.24489 1.17500
v -0.83090 -0.28122 0.12500
v -0.83090 -0.28122 1.17500
v -0.85000 -0.34000 0.12500
v -0.85000 -0.34000 1.17500
v -0.83090 -0.39878 0.12500
v -0.83090 -0.39878 1.17500
v -0.78090 -0.43511 0.12500
v -0.78090 -0.43511 1.17500
v -0.71910 -0.43511 0.12500
v -0.71910 -0.43511 1.17500
v -0.66910 -0.39878 0.12500
v -0.66910 -0.39878 1.17500
v -0.65000 0.34000 0.12500
v -0.65000 0.34000 1.17500
v -0.66910 0.39878 0.12500
v -0.66910 0.39878 1.17500
v -0.71910 0.43511 0.12500
v -0.71910 0.43511 1.17500
v -0.78090 0.43511 0.12500
v -0.78090 0.43511 1.17500
v -0.83090 0.39878 0.12500
v -0.83090 0.39878 1.17500
v -0.85000 0.34000 0.12500
v -0.85000 0.34000 1.17500
v -0.83090 0.28122 0.12500
v -0.83090 0.28122 1.17500
v -0.78090 0.24489 0.12500
v -0.78090 0.24489 1.17500
v -0.71910 0.24489 0.12500
v -0.71910 0.24489 1.17500
v -0.66910 0.28122 0.12500
v -0.66910 0.28122 1.17500
v 0.85000 -0.34000 0.12500
v 0.85000 -0.34000 1.17500
v 0.83090 -0.28122 0.12500
v 0.83090 -0.28122 1.17500
v 0.78090 -0.24489 0.12500
v 0.78090 -0.24489 1.17500
v 0.71910 -0.24489 0.12500
v 0.71910 -0.24489 1.17500
v 0.66910 -0.28122 0.12500
v 0.66910 -0.28122 1.17500
v 0.65000 -0.34000 0.12500
v 0.65000 -0.34000 1.17500
v 0.66910 -0.39878 0.12500
v 0.66910 -0.39878 1.17500
v 0.71910 -0.43511 0.12500
v 0.71910 -0.43511 1.17500
v 0.78090 -0.43511 0.12500
v 0.78090 -0.43511 1.17500
v 0.83090 -0.39878 0.12500
v 0.83090 -0.39878 1.17500
v 0.85000 0.34000 0.12500
v 0.85000 0.34000 1.17500
v 0.83090 0.39878 0.12500
v 0.83090 0.39878 1.17500
v 0.78090 0.43511 0.12500
v 0.78090 0.43511 1.17500
v 0.71910 0.43511 0.12500
v 0.71910 0.43511 1.17500
v 0.66910 0.39878 0.12500
v 0.66910 0.39878 1.17500
v 0.65000 0.34000 0.12500
v 0.65000 0.34000 1.17500
v 0.66910 0.28122 0.12500
v 0.66910 0.28122 1.17500
v 0.71910 0.24489 0.12500
v 0.71910 0.24489 1.17500
v 0.78090 0.24489 0.12500
v 0.78090 0.24489 1.17500
v 0.83090 0.28122 0.12500
v 0.83090 0.28122 1.17500
v -1.85000 0.03500 1.25000
v -1.05000 0.03500 1.25000
v -1.85000 0.02832 1.27057
v -1.05000 0.02832 1.27057
v -1.85000 0.01082 1.28329
v -1.05000 0.01082 1.28329
v -1.85000 -0.01082 1.28329
v -1.05000 -0.01082 1.28329
v -1.85000 -0.02832 1.27057
v -1.05000 -0.02832 1.27057
v -1.85000 -0.03500 1.25000
v -1.05000 -0.03500 1.25000
v -1.85000 -0.02832 1.22943
v -1.05000 -0.02832 1.22943
v -1.85000 -0.01082 1.21671
v -1.05000 -0.01082 1.21671
v -1.85000 0.01082 1.21671
v -1.05000 0.01082 1.21671
v -1.85000 0.02832 1.22943
v -1.05000 0.02832 1.22943
usemtl white
f 1 2 12 11
f 2 3 13 12
f 3 4 14 13
f 4 5 15 14
f 5 6 16 15
f 6 7 17 16
f 7 8 18 17
f 8 9 19 18
f 9 10 20 19
f 10 1 11 20
f 11 12 22 21
f 12 13 23 22
f 13 14 24 23
f 14 15 25 24
f 15 16 26 25
f 16 17 27 26
f 17 18 28 27
f 18 19 29 28
f 19 20 30 29
f 20 11 21 30
f 21 22 32 31
f 22 23 33 32
f 23 24 34 33
f 24 25 35 34
f 25 26 36 35
f 26 27 37 36
f 27 28 38 37
f 28 29 39 38
f 29 30 40 39
f 30 21 31 40
f 31 32 42 41
f 32 33 43 42
f 33 34 44 43
f 34 35 45 44
f 35 36 46 45
f 36 37 47 46
f 37 38 48 47
f 38 39 49 48
f 39 40 50 49
f 40 31 41 50
f 41 42 52 51
f 42 43 53 52
f 43 44 54 53
f 44 45 55 54
f 45 46 56 55
f 46 47 57 56
f 47 48 58 57
f 48 49 59 58
f 49 50 60 59
f 50 41 51 60
f 51 52 62 61
f 52 53 63 62
f 53 54 64 63
f 54 55 65 64
f 55 56 66 65
f 56 57 67 66
f 57 58 68 67
f 58 59 69 68
f 59 60 70 69
f 60 51 61 70
usemtl black
f 71 72 82 81
f 72 73 83 82
f 73 74 84 83
f 74 75 85 84
f 75 76 86 85
f 76 77 87 86
f 77 78 88 87
f 78 79 89 88
f 79 80 90 89
f 80 71 81 90
f 81 82 92 91
f 82 83 93 92
f 83 84 94 93
f 84 85 95 94
f 85 86 96 95
f 86 87 97 96
f 87 88 98 97
f 88 89 99 98
f 89 90 100 99
f 90 81 91 100
f 91 92 102 101
f 92 93 103 102
f 93 94 104 103
f 94 95 105 104
f 95 96 106 105
f 96 97 107 106
f 97 98 108 107
f 98 99 109 108
f 99 100 110 109
f 100 91 101 110
f 101 102 112 111
f 102 103 113 112
f 103 104 114 113
f 104 105 115 114
f 105 106 116 115
f 106 107 117 116
f 107 108 118 117
f 108 109 119 118
f 109 110 120 119
f 110 101 111 120
f 111 112 122 121
f 112 113 123 122
f 113 114 124 123
f 114 115 125 124
f 115 116 126 125
f 116 117 127 126
f 117 118 128 127
f 118 119 129 128
f 119 120 130 129
f 120 111 121 130
f 121 122 132 131
f 122 123 133 132
f 123 124 134 133
f 124 125 135 134
f 125 126 136 135
f 126 127 137 136
f 127 128 138 137
f 128 129 139 138
f 129 130 140 139
f 130 121 131 140
f 141 142 152 151
f 142 143 153 152
f 143 144 154 153
f 144 145 155 154
f 145 146 156 155
f 146 147 157 156
f 147 148 158 157
f 148 149 159 158
f 149 150 160 159
f 150 141 151 160
f 151 152 162 161
f 152 153 163 162
f 153 154 164 163
f 154 155 165 164
f 155 156 166 165
f 156 157 167 166
f 157 158 168 167
f 158 159 169 168
f 159 160 170 169
f 160 151 161 170
f 161 162 172 171
f 162 163 173 172
f 163 164 174 173
f 164 165 175 174
f 165 166 176 175
f 166 167 177 176
f 167 168 178 177
f 168 169 179 178
f 169 170 180 179
f 170 161 171 180
f 171 172 182 181
f 172 173 183 182
f 173 174 184 183
f 174 175 185 184
f 175 176 186 185
f 176 177 187 186
f 177 178 188 187
f 178 179 189 188
f 179 180 190 189
f 180 171 181 190
f 181 182 192 191
f 182 183 193 192
f 183 184 194 193
f 184 185 195 194
f 185 186 196 195
f 186 187 197 196
f 187 188 198 197
f 188 189 199 198
f 189 190 200 199
f 190 181 191 200
f 191 192 202 201
f 192 193 203 202
f 193 194 204 203
f 194 195 205 204
f 195 196 206 205
f 196 197 207 206
f 197 198 208 207
f 198 199 209 208
f 199 200 210 209
f 200 191 201 210
f 211 212 222 221
f 212 213 223 222
f 213 214 224 223
f 214 215 225 224
f 215 216 226 225
f 216 217 227 226
f 217 218 228 227
f 218 219 229 228
f 219 220 230 229
f 220 211 221 230
f 221 222 232 231
f 222 223 233 232
f 223 224 234 233
f 224 225 235 234
f 225 226 236 235
f 226 227 237 236
f 227 228 238 237
f 228 229 239 238
f 229 230 240 239
f 230 221 231 240
f 231 232 242 241
f 232 233 243 242
f 233 234 244 243
f 234 235 245 244
f 235 236 246 245
f 236 237 247 246
f 237 238 248 247
f 238 239 249 248
f 239 240 250 249
f 240 231 241 250
f 241 242 252 251
f 242 243 253 252
f 243 244 254 253
f 244 245 255 254
f 245 246 256 255
f 246 247 257 256
f 247 248 258 257
f 248 249 259 258
f 249 250 260 259
f 250 241 251 260
f 251 252 262 261
f 252 253 263 262
f 253 254 264 263
f 254 255 265 264
f 255 256 266 265
f 256 257 267 266
f 257 258 268 267
f 258 259 269 268
f 259 260 270 269
f 260 251 261 270
f 261 262 272 271
f 262 263 273 272
f 263 264 274 273
f 264 265 275 274
f 265 266 276 275
f 266 267 277 276
f 267 268 278 277
f 268 269 279 278
f 269 270 280 279
f 270 261 271 280
f 281 282 292 291
f 282 283 293 292
f 283 284 294 293
f 284 285 295 294
f 285 286 296 295
f 286 287 297 296
f 287 288 298 297
f 288 289 299 298
f 289 290 300 299
f 290 281 291 300
f 291 292 302 301
f 292 293 303 302
f 293 294 304 303
f 294 295 305 304
f 295 296 306 305
f 296 297 307 306
f 297 298 308 307
f 298 299 309 308
f 299 300 310 309
f 300 291 301 310
f 301 302 312 311
f 302 303 313 312
f 303 304 314 313
f 304 305 315 314
f 305 306 316 315
f 306 307 317 316
f 307 308 318 317
f 308 309 319 318
f 309 310 320 319
f 310 301 311 320
f 311 312 322 321
f 312 313 323 322
f 313 314 324 323
f 314 315 325 324
f 315 316 326 325
f 316 317 327 326
f 317 318 328 327
f 318 319 329 328
f 319 320 330 329
f 320 311 321 330
f 321 322 332 331
f 322 323 333 332
f 323 324 334 333
f 324 325 335 334
f 325 326 336 335
f 326 327 337 336
f 327 328 338 337
f 328 329 339 338
f 329 330 340 339
f 330 321 331 340
f 331 332 342 341
f 332 333 343 342
f 333 334 344 343
f 334 335 345 344
f 335 336 346 345
f 336 337 347 346
f 337 338 348 347
f 338 339 349 348
f 339 340 350 349
f 340 331 341 350
usemtl white
f 351 352 362 361
f 352 353 363 362
f 353 354 364 363
f 354 355 365 364
f 355 356 366 365
f 356 357 367 366
f 357 358 368 367
f 358 359 369 368
f 359 360 370 369
f 360 351 361 370
f 361 362 372 371
f 362 363 373 372
f 363 364 374 373
f 364 365 375 374
f 365 366 376 375
f 366 367 377 376
f 367 368 378 377
f 368 369 379 378
f 369 370 380 379
f 370 361 371 380
f 371 372 382 381
f 372 373 383 382
f 373 374 384 383
f 374 375 385 384
f 375 376 386 385
f 376 377 387 386
f 377 378 388 387
f 378 379 389 388
f 379 380 390 389
f 380 371 381 390
f 381 382 392 391
f 382 383 393 392
f 383 384 394 393
f 384 385 395 394
f 385 386 396 395
f 386 387 397 396
f 387 388 398 397
f 388 389 399 398
f 389 390 400 399
f 390 381 391 400
f 391 392 402 401
f 392 393 403 402
f 393 394 404 403
f 394 395 405 404
f 395 396 406 405
f 396 397 407 406
f 397 398 408 407
f 398 399 409 408
f 399 400 410 409
f 400 391 401 410
f 401 402 412 411
f 402 403 413 412
f 403 404 414 413
f 404 405 415 414
f 405 406 416 415
f 406 407 417 416
f 407 408 418 417
f 408 409 419 418
f 409 410 420 419
f 410 401 411 420
usemtl cream
f 421 422 432 431
f 422 423 433 432
f 423 424 434 433
f 424 425 435 434
f 425 426 436 435
f 426 427 437 436
f 427 428 438 437
f 428 429 439 438
f 429 430 440 439
f 430 421 431 440
f 431 432 442 441
f 432 433 443 442
f 433 434 444 443
f 434 435 445 444
f 435 436 446 445
f 436 437 447 446
f 437 438 448 447
f 438 439 449 448
f 439 440 450 449
f 440 431 441 450
f 441 442 452 451
f 442 443 453 452
f 443 444 454 453
f 444 445 455 454
f 445 446 456 455
f 446 447 457 456
f 447 448 458 457
f 448 449 459 458
f 449 450 460 459
f 450 441 451 460
f 451 452 462 461
f 452 453 463 462
f 453 454 464 463
f 454 455 465 464
f 455 456 466 465
f 456 457 467 466
f 457 458 468 467
f 458 459 469 468
f 459 460 470 469
f 460 451 461 470
f 461 462 472 471
f 462 463 473 472
f 463 464 474 473
f 464 465 475 474
f 465 466 476 475
f 466 467 477 476
f 467 468 478 477
f 468 469 479 478
f 469 470 480 479
f 470 461 471 480
f 471 472 482 481
f 472 473 483 482
f 473 474 484 483
f 474 475 485 484
f 475 476 486 485
f 476 477 487 486
f 477 478 488 487
f 478 479 489 488
f 479 480 490 489
f 480 471 481 490
f 500 499 498 497 496 495 494 493 492 491
f 491 492 501
f 492 493 501
f 493 494 501
f 494 495 501
f 495 496 501
f 496 497 501
f 497 498 501
f 498 499 501
f 499 500 501
f 500 491 501
f 511 510 509 508 507 506 505 504 503 502
f 502 503 512
f 503 504 512
f 504 505 512
f 505 506 512
f 506 507 512
f 507 508 512
f 508 509 512
f 509 510 512
f 510 511 512
f 511 502 512
usemtl dark_brown
f 513 515 516 514
f 515 517 518 516
f 517 519 520 518
f 519 521 522 520
f 521 523 524 522
f 523 525 526 524
f 525 527 528 526
f 527 529 530 528
f 529 531 532 530
f 531 513 514 532
f 531 529 527 525 523 521 519 517 515 513
f 514 516 518 520 522 524 526 528 530 532
f 533 535 536 534
f 535 537 538 536
f 537 539 540 538
f 539 541 542 540
f 541 543 544 542
f 543 545 546 544
f 545 547 548 546
f 547 549 550 548
f 549 551 552 550
f 551 533 534 552
f 551 549 547 545 543 541 539 537 535 533
f 534 536 538 540 542 544 546 548 550 552
f 553 555 556 554
f 555 557 558 556
f 557 559 560 558
f 559 561 562 560
f 561 563 564 562
f 563 565 566 564
f 565 567 568 566
f 567 569 570 568
f 569 571 572 570
f 571 553 554 572
f 571 569 567 565 563 561 559 557 555 553
f 554 556 558 560 562 564 566 568 570 572
f 573 575 576 574
f 575 577 578 576
f 577 579 580 578
f 579 581 582 580
f 581 583 584 582
f 583 585 586 584
f 585 587 588 586
f 587 589 590 588
f 589 591 592 590
f 591 573 574 592
f 591 589 587 585 583 581 579 577 575 573
f 574 576 578 580 582 584 586 588 590 592
f 593 595 596 594
f 595 597 598 596
f 597 599 600 598
f 599 601 602 600
f 601 603 604 602
f 603 605 606 604
f 605 607 608 606
f 607 609 610 608
f 609 611 612 610
f 611 593 594 612
f 611 609 607 605 603 601 599 597 595 593
f 594 596 598 600 602 604 606 608 610 612
