mtllib tree.mtl
o XYT_generated
v 0.20000 0.00000 0.00000
v 0.20000 0.00000 1.50000
v 0.17321 0.10000 0.00000
v 0.17321 0.10000 1.50000
v 0.10000 0.17321 0.00000
v 0.10000 0.17321 1.50000
v 0.00000 0.20000 0.00000
v 0.00000 0.20000 1.50000
v -0.10000 0.17321 0.00000
v -0.10000 0.17321 1.50000
v -0.17321 0.10000 0.00000
v -0.17321 0.10000 1.50000
v -0.20000 0.00000 0.00000
v -0.20000 0.00000 1.50000
v -0.17321 -0.10000 0.00000
v -0.17321 -0.10000 1.50000
v -0.10000 -0.17321 0.00000
v -0.10000 -0.17321 1.50000
v -0.00000 -0.20000 0.00000
v -0.00000 -0.20000 1.50000
v 0.10000 -0.17321 0.00000
v 0.10000 -0.17321 1.50000
v 0.17321 -0.10000 0.00000
v 0.17321 -0.10000 1.50000
v 0.00000 0.00000 2.70000
v 0.00000 0.00000 2.70000
v 0.00000 0.00000 2.70000
v 0.00000 0.00000 2.70000
v 0.00000 0.00000 2.70000
v 0.00000 0.00000 2.70000
v 0.00000 0.00000 2.70000
v 0.00000 0.00000 2.70000
v 0.00000 0.00000 2.70000
v 0.00000 0.00000 2.70000
v 0.00000 0.00000 2.70000
v 0.00000 0.00000 2.70000
v 0.42500 0.00000 2.61292
v 0.36806 0.18750 2.61292
v 0.21250 0.32476 2.61292
v 0.00000 0.37500 2.61292
v -0.21250 0.32476 2.61292
v -0.36806 0.18750 2.61292
v -0.42500 0.00000 2.61292
v -0.36806 -0.18750 2.61292
v -0.21250 -0.32476 2.61292
v -0.00000 -0.37500 2.61292
v 0.21250 -0.32476 2.61292
v 0.36806 -0.18750 2.61292
v 0.73612 0.00000 2.37500
v 0.63750 0.32476 2.37500
v 0.36806 0.56250 2.37500
v 0.00000 0.64952 2.37500
v -0.36806 0.56250 2.37500
v -0.63750 0.32476 2.37500
v -0.73612 0.00000 2.37500
v -0.63750 -0.32476 2.37500
v -0.36806 -0.56250 2.37500
v -0.00000 -0.64952 2.37500
v 0.36806 -0.56250 2.37500
v 0.63750 -0.32476 2.37500
v 0.85000 0.00000 2.05000
v 0.73612 0.37500 2.05000
v 0.42500 0.64952 2.05000
v 0.00000 0.75000 2.05000
v -0.42500 0.64952 2.05000
v -0.73612 0.37500 2.05000
v -0.85000 0.00000 2.05000
v -0.73612 -0.37500 2.05000
v -0.42500 -0.64952 2.05000
v -0.00000 -0.75000 2.05000
v 0.42500 -0.64952 2.05000
v 0.73612 -0.37500 2.05000
v 0.73612 0.00000 1.72500
v 0.63750 0.32476 1.72500
v 0.36806 0.56250 1.72500
v 0.00000 0.64952 1.72500
v -0.36806 0.56250 1.72500
v -0.63750 0.32476 1.72500
v -0.73612 0.00000 1.72500
v -0.63750 -0.32476 1.72500
v -0.36806 -0.56250 1.72500
v -0.00000 -0.64952 1.72500
v 0.36806 -0.56250 1.72500
v 0.63750 -0.32476 1.72500
v 0.42500 0.00000 1.48708
v 0.36806 0.18750 1.48708
v 0.21250 0.32476 1.48708
v 0.00000 0.37500 1.48708
v -0.21250 0.32476 1.48708
v -0.36806 0.18750 1.48708
v -0.42500 0.00000 1.48708
v -0.36806 -0.18750 1.48708
v -0.21250 -0.32476 1.48708
v -0.00000 -0.37500 1.48708
v 0.21250 -0.32476 1.48708
v 0.36806 -0.18750 1.48708
v 0.00000 0.00000 1.40000
v 0.00000 0.00000 1.40000
v 0.00000 0.00000 1.40000
v 0.00000 0.00000 1.40000
v -0.00000 0.00000 1.40000
v -0.00000 0.00000 1.40000
v -0.00000 0.00000 1.40000
v -0.00000 -0.00000 1.40000
v -0.00000 -0.00000 1.40000
v -0.00000 -0.00000 1.40000
v 0.00000 -0.00000 1.40000
v 0.00000 -0.00000 1.40000
v -0.42000 0.10000 2.74000
v -0.42000 0.10000 2.74000
v -0.42000 0.10000 2.74000
v -0.42000 0.10000 2.74000
v -0.42000 0.10000 2.74000
v -0.42000 0.10000 2.74000
v -0.42000 0.10000 2.74000
v -0.42000 0.10000 2.74000
v -0.42000 0.10000 2.74000
v -0.42000 0.10000 2.74000
v -0.11435 0.10000 2.65979
v -0.17273 0.25547 2.65979
v -0.32555 0.35156 2.65979
v -0.51445 0.35156 2.65979
v -0.66727 0.25547 2.65979
v -0.72565 0.10000 2.65979
v -0.66727 -0.05547 2.65979
v -0.51445 -0.15156 2.65979
v -0.32555 -0.15156 2.65979
v -0.17273 -0.05547 2.65979
v 0.07455 0.10000 2.44979
v -0.01990 0.35156 2.44979
v -0.26718 0.50703 2.44979
v -0.57282 0.50703 2.44979
v -0.82010 0.35156 2.44979
v -0.91455 0.10000 2.44979
v -0.82010 -0.15156 2.44979
v -0.57282 -0.30703 2.44979
v -0.26718 -0.30703 2.44979
v -0.01990 -0.15156 2.44979
v 0.07455 0.10000 2.19021
v -0.01990 0.35156 2.19021
v -0.26718 0.50703 2.19021
v -0.57282 0.50703 2.19021
v -0.82010 0.35156 2.19021
v -0.91455 0.10000 2.19021
v -0.82010 -0.15156 2.19021
v -0.57282 -0.30703 2.19021
v -0.26718 -0.30703 2.19021
v -0.01990 -0.15156 2.19021
v -0.11435 0.10000 1.98021
v -0.17273 0.25547 1.98021
v -0.32555 0.35156 1.98021
v -0.51445 0.35156 1.98021
v -0.66727 0.25547 1.98021
v -0.72565 0.10000 1.98021
v -0.66727 -0.05547 1.98021
v -0.51445 -0.15156 1.98021
v -0.32555 -0.15156 1.98021
v -0.17273 -0.05547 1.98021
v -0.42000 0.10000 1.90000
v -0.42000 0.10000 1.90000
v -0.42000 0.10000 1.90000
v -0.42000 0.10000 1.90000
v -0.42000 0.10000 1.90000
v -0.42000 0.10000 1.90000
v -0.42000 0.10000 1.90000
v -0.42000 0.10000 1.90000
v -0.42000 0.10000 1.90000
v -0.42000 0.10000 1.90000
v 0.42000 -0.10000 2.72000
v 0.42000 -0.10000 2.72000
v 0.42000 -0.10000 2.72000
v 0.42000 -0.10000 2.72000
v 0.42000 -0.10000 2.72000
v 0.42000 -0.10000 2.72000
v 0.42000 -0.10000 2.72000
v 0.42000 -0.10000 2.72000
v 0.42000 -0.10000 2.72000
v 0.42000 -0.10000 2.72000
v 0.72565 -0.10000 2.63979
v 0.66727 0.05547 2.63979
v 0.51445 0.15156 2.63979
v 0.32555 0.15156 2.63979
v 0.17273 0.05547 2.63979
v 0.11435 -0.10000 2.63979
v 0.17273 -0.25547 2.63979
v 0.32555 -0.35156 2.63979
v 0.51445 -0.35156 2.63979
v 0.66727 -0.25547 2.63979
v 0.91455 -0.10000 2.42979
v 0.82010 0.15156 2.42979
v 0.57282 0.30703 2.42979
v 0.26718 0.30703 2.42979
v 0.01990 0.15156 2.42979
v -0.07455 -0.10000 2.42979
v 0.01990 -0.35156 2.42979
v 0.26718 -0.50703 2.42979
v 0.57282 -0.50703 2.42979
v 0.82010 -0.35156 2.42979
v 0.91455 -0.10000 2.17021
v 0.82010 0.15156 2.17021
v 0.57282 0.30703 2.17021
v 0.26718 0.30703 2.17021
v 0.01990 0.15156 2.17021
v -0.07455 -0.10000 2.17021
v 0.01990 -0.35156 2.17021
v 0.26718 -0.50703 2.17021
v 0.57282 -0.50703 2.17021
v 0.82010 -0.35156 2.17021
v 0.72565 -0.10000 1.96021
v 0.66727 0.05547 1.96021
v 0.51445 0.15156 1.96021
v 0.32555 0.15156 1.96021
v 0.17273 0.05547 1.96021
v 0.11435 -0.10000 1.96021
v 0.17273 -0.25547 1.96021
v 0.32555 -0.35156 1.96021
v 0.51445 -0.35156 1.96021
v 0.66727 -0.25547 1.96021
v 0.42000 -0.10000 1.88000
v 0.42000 -0.10000 1.88000
v 0.42000 -0.10000 1.88000
v 0.42000 -0.10000 1.88000
v 0.42000 -0.10000 1.88000
v 0.42000 -0.10000 1.88000
v 0.42000 -0.10000 1.88000
v 0.42000 -0.10000 1.88000
v 0.42000 -0.10000 1.88000
v 0.42000 -0.10000 1.88000
v 0.00000 0.00000 3.12000
v 0.00000 0.00000 3.12000
v 0.00000 0.00000 3.12000
v 0.00000 0.00000 3.12000
v 0.00000 0.00000 3.12000
v 0.00000 0.00000 3.12000
v 0.00000 0.00000 3.12000
v 0.00000 0.00000 3.12000
v 0.00000 0.00000 3.12000
v 0.00000 0.00000 3.12000
v 0.28214 0.00000 3.04361
v 0.22825 0.14511 3.04361
v 0.08719 0.23479 3.04361
v -0.08719 0.23479 3.04361
v -0.22825 0.14511 3.04361
v -0.28214 0.00000 3.04361
v -0.22825 -0.14511 3.04361
v -0.08719 -0.23479 3.04361
v 0.08719 -0.23479 3.04361
v 0.22825 -0.14511 3.04361
v 0.45651 0.00000 2.84361
v 0.36932 0.23479 2.84361
v 0.14107 0.37989 2.84361
v -0.14107 0.37989 2.84361
v -0.36932 0.23479 2.84361
v -0.45651 0.00000 2.84361
v -0.36932 -0.23479 2.84361
v -0.14107 -0.37989 2.84361
v 0.14107 -0.37989 2.84361
v 0.36932 -0.23479 2.84361
v 0.45651 0.00000 2.59639
v 0.36932 0.23479 2.59639
v 0.14107 0.37989 2.59639
v -0.14107 0.37989 2.59639
v -0.36932 0.23479 2.59639
v -0.45651 0.00000 2.59639
v -0.36932 -0.23479 2.59639
v -0.14107 -0.37989 2.59639
v 0.14107 -0.37989 2.59639
v 0.36932 -0.23479 2.59639
v 0.28214 0.00000 2.39639
v 0.22825 0.14511 2.39639
v 0.08719 0.23479 2.39639
v -0.08719 0.23479 2.39639
v -0.22825 0.14511 2.39639
v -0.28214 0.00000 2.39639
v -0.22825 -0.14511 2.39639
v -0.08719 -0.23479 2.39639
v 0.08719 -0.23479 2.39639
v 0.22825 -0.14511 2.39639
v 0.00000 0.00000 2.32000
v 0.00000 0.00000 2.32000
v 0.00000 0.00000 2.32000
v -0.00000 0.00000 2.32000
v -0.00000 0.00000 2.32000
v -0.00000 0.00000 2.32000
v -0.00000 -0.00000 2.32000
v -0.00000 -0.00000 2.32000
v 0.00000 -0.00000 2.32000
v 0.00000 -0.00000 2.32000
usemtl brown
f 1 3 4 2
f 3 5 6 4
f 5 7 8 6
f 7 9 10 8
f 9 11 12 10
f 11 13 14 12
f 13 15 16 14
f 15 17 18 16
f 17 19 20 18
f 19 21 22 20
f 21 23 24 22
f 23 1 2 24
f 23 21 19 17 15 13 11 9 7 5 3 1
f 2 4 6 8 10 12 14 16 18 20 22 24
usemtl dark_green
f 25 26 38 37
f 26 27 39 38
f 27 28 40 39
f 28 29 41 40
f 29 30 42 41
f 30 31 43 42
f 31 32 44 43
f 32 33 45 44
f 33 34 46 45
f 34 35 47 46
f 35 36 48 47
f 36 25 37 48
f 37 38 50 49
f 38 39 51 50
f 39 40 52 51
f 40 41 53 52
f 41 42 54 53
f 42 43 55 54
f 43 44 56 55
f 44 45 57 56
f 45 46 58 57
f 46 47 59 58
f 47 48 60 59
f 48 37 49 60
f 49 50 62 61
f 50 51 63 62
f 51 52 64 63
f 52 53 65 64
f 53 54 66 65
f 54 55 67 66
f 55 56 68 67
f 56 57 69 68
f 57 58 70 69
f 58 59 71 70
f 59 60 72 71
f 60 49 61 72
f 61 62 74 73
f 62 63 75 74
f 63 64 76 75
f 64 65 77 76
f 65 66 78 77
f 66 67 79 78
f 67 68 80 79
f 68 69 81 80
f 69 70 82 81
f 70 71 83 82
f 71 72 84 83
f 72 61 73 84
f 73 74 86 85
f 74 75 87 86
f 75 76 88 87
f 76 77 89 88
f 77 78 90 89
f 78 79 91 90
f 79 80 92 91
f 80 81 93 92
f 81 82 94 93
f 82 83 95 94
f 83 84 96 95
f 84 73 85 96
f 85 86 98 97
f 86 87 99 98
f 87 88 100 99
f 88 89 101 100
f 89 90 102 101
f 90 91 103 102
f 91 92 104 103
f 92 93 105 104
f 93 94 106 105
f 94 95 107 106
f 95 96 108 107
f 96 85 97 108
usemtl green
f 109 110 120 119
f 110 111 121 120
f 111 112 122 121
f 112 113 123 122
f 113 114 124 123
f 114 115 125 124
f 115 116 126 125
f 116 117 127 126
f 117 118 128 127
f 118 109 119 128
f 119 120 130 129
f 120 121 131 130
f 121 122 132 131
f 122 123 133 132
f 123 124 134 133
f 124 125 135 134
f 125 126 136 135
f 126 127 137 136
f 127 128 138 137
f 128 119 129 138
f 129 130 140 139
f 130 131 141 140
f 131 132 142 141
f 132 133 143 142
f 133 134 144 143
f 134 135 145 144
f 135 136 146 145
f 136 137 147 146
f 137 138 148 147
f 138 129 139 148
f 139 140 150 149
f 140 141 151 150
f 141 142 152 151
f 142 143 153 152
f 143 144 154 153
f 144 145 155 154
f 145 146 156 155
f 146 147 157 156
f 147 148 158 157
f 148 139 149 158
f 149 150 160 159
f 150 151 161 160
f 151 152 162 161
f 152 153 163 162
f 153 154 164 163
f 154 155 165 164
f 155 156 166 165
f 156 157 167 166
f 157 158 168 167
f 158 149 159 168
f 169 170 180 179
f 170 171 181 180
f 171 172 182 181
f 172 173 183 182
f 173 174 184 183
f 174 175 185 184
f 175 176 186 185
f 176 177 187 186
f 177 178 188 187
f 178 169 179 188
f 179 180 190 189
f 180 181 191 190
f 181 182 192 191
f 182 183 193 192
f 183 184 194 193
f 184 185 195 194
f 185 186 196 195
f 186 187 197 196
f 187 188 198 197
f 188 179 189 198
f 189 190 200 199
f 190 191 201 200
f 191 192 202 201
f 192 193 203 202
f 193 194 204 203
f 194 195 205 204
f 195 196 206 205
f 196 197 207 206
f 197 198 208 207
f 198 189 199 208
f 199 200 210 209
f 200 201 211 210
f 201 202 212 211
f 202 203 213 212
f 203 204 214 213
f 204 205 215 214
f 205 206 216 215
f 206 207 217 216
f 207 208 218 217
f 208 199 209 218
f 209 210 220 219
f 210 211 221 220
f 211 212 222 221
f 212 213 223 222
f 213 214 224 223
f 214 215 225 224
f 215 216 226 225
f 216 217 227 226
f 217 218 228 227
f 218 209 219 228
usemtl dark_green
f 229 230 240 239
f 230 231 241 240
f 231 232 242 241
f 232 233 243 242
f 233 234 244 243
f 234 235 245 244
f 235 236 246 245
f 236 237 247 246
f 237 238 248 247
f 238 229 239 248
f 239 240 250 249
f 240 241 251 250
f 241 242 252 251
f 242 243 253 252
f 243 244 254 253
f 244 245 255 254
f 245 246 256 255
f 246 247 257 256
f 247 248 258 257
f 248 239 249 258
f 249 250 260 259
f 250 251 261 260
f 251 252 262 261
f 252 253 263 262
f 253 254 264 263
f 254 255 265 264
f 255 256 266 265
f 256 257 267 266
f 257 258 268 267
f 258 249 259 268
f 259 260 270 269
f 260 261 271 270
f 261 262 272 271
f 262 263 273 272
f 263 264 274 273
f 264 265 275 274
f 265 266 276 275
f 266 267 277 276
f 267 268 278 277
f 268 259 269 278
f 269 270 280 279
f 270 271 281 280
f 271 272 282 281
f 272 273 283 282
f 273 274 284 283
f 274 275 285 284
f 275 276 286 285
f 276 277 287 286
f 277 278 288 287
f 278 269 279 288
