mtllib truck.mtl
o XYT_generated
v -1.80000 -0.55000 0.50000
v 0.70000 -0.55000 0.50000
v 0.70000 0.55000 0.50000
v -1.80000 0.55000 0.50000
v -1.80000 -0.55000 1.40000
v 0.70000 -0.55000 1.40000
v 0.70000 0.55000 1.40000
v -1.80000 0.55000 1.40000
v 0.65000 -0.52500 0.47500
v 1.65000 -0.52500 0.47500
v 1.65000 0.52500 0.47500
v 0.65000 0.52500 0.47500
v 0.65000 -0.52500 1.22500
v 1.65000 -0.52500 1.22500
v 1.65000 0.52500 1.22500
v 0.65000 0.52500 1.22500
v 1.12000 -0.55000 0.96000
v 1.54000 -0.55000 0.96000
v 1.54000 -0.51000 0.96000
v 1.12000 -0.51000 0.96000
v 1.12000 -0.55000 1.24000
v 1.54000 -0.55000 1.24000
v 1.54000 -0.51000 1.24000
v 1.12000 -0.51000 1.24000
v -1.04000 -0.62000 0.42000
v -1.07500 -0.55938 0.42000
v -1.14500 -0.55938 0.42000
v -1.18000 -0.62000 0.42000
v -1.14500 -0.68062 0.42000
v -1.07500 -0.68062 0.42000
v -1.07070 -0.62000 0.55450
v -1.10223 -0.55938 0.53932
v -1.16530 -0.55938 0.50895
v -1.19684 -0.62000 0.49376
v -1.16530 -0.68062 0.50895
v -1.10223 -0.68062 0.53932
v -1.15672 -0.62000 0.66237
v -1.17854 -0.55938 0.63500
v -1.22218 -0.55938 0.58028
v -1.24401 -0.62000 0.55291
v -1.22218 -0.68062 0.58028
v -1.17854 -0.68062 0.63500
v -1.28102 -0.62000 0.72223
v -1.28881 -0.55938 0.68811
v -1.30438 -0.55938 0.61986
v -1.31217 -0.62000 0.58574
v -1.30438 -0.68062 0.61986
v -1.28881 -0.68062 0.68811
v -1.41898 -0.62000 0.72223
v -1.41119 -0.55938 0.68811
v -1.39562 -0.55938 0.61986
v -1.38783 -0.62000 0.58574
v -1.39562 -0.68062 0.61986
v -1.41119 -0.68062 0.68811
v -1.54328 -0.62000 0.66237
v -1.52146 -0.55938 0.63500
v -1.47782 -0.55938 0.58028
v -1.45599 -0.62000 0.55291
v -1.47782 -0.68062 0.58028
v -1.52146 -0.68062 0.63500
v -1.62930 -0.62000 0.55450
v -1.59777 -0.55938 0.53932
v -1.53470 -0.55938 0.50895
v -1.50316 -0.62000 0.49376
v -1.53470 -0.68062 0.50895
v -1.59777 -0.68062 0.53932
v -1.66000 -0.62000 0.42000
v -1.62500 -0.55938 0.42000
v -1.55500 -0.55938 0.42000
v -1.52000 -0.62000 0.42000
v -1.55500 -0.68062 0.42000
v -1.62500 -0.68062 0.42000
v -1.62930 -0.62000 0.28550
v -1.59777 -0.55938 0.30068
v -1.53470 -0.55938 0.33105
v -1.50316 -0.62000 0.34624
v -1.53470 -0.68062 0.33105
v -1.59777 -0.68062 0.30068
v -1.54328 -0.62000 0.17763
v -1.52146 -0.55938 0.20500
v -1.47782 -0.55938 0.25972
v -1.45599 -0.62000 0.28709
v -1.47782 -0.68062 0.25972
v -1.52146 -0.68062 0.20500
v -1.41898 -0.62000 0.11777
v -1.41119 -0.55938 0.15189
v -1.39562 -0.55938 0.22014
v -1.38783 -0.62000 0.25426
v -1.39562 -0.68062 0.22014
v -1.41119 -0.68062 0.15189
v -1.28102 -0.62000 0.11777
v -1.28881 -0.55938 0.15189
v -1.30438 -0.55938 0.22014
v -1.31217 -0.62000 0.25426
v -1.30438 -0.68062 0.22014
v -1.28881 -0.68062 0.15189
v -1.15672 -0.62000 0.17763
v -1.17854 -0.55938 0.20500
v -1.22218 -0.55938 0.25972
v -1.24401 -0.62000 0.28709
v -1.22218 -0.68062 0.25972
v -1.17854 -0.68062 0.20500
v -1.07070 -0.62000 0.28550
v -1.10223 -0.55938 0.30068
v -1.16530 -0.55938 0.33105
v -1.19684 -0.62000 0.34624
v -1.16530 -0.68062 0.33105
v -1.10223 -0.68062 0.30068
v -1.22000 -0.66000 0.42000
v -1.22000 -0.58000 0.42000
v -1.24483 -0.66000 0.49641
v -1.24483 -0.58000 0.49641
v -1.30983 -0.66000 0.54364
v -1.30983 -0.58000 0.54364
v -1.39017 -0.66000 0.54364
v -1.39017 -0.58000 0.54364
v -1.45517 -0.66000 0.49641
v -1.45517 -0.58000 0.49641
v -1.48000 -0.66000 0.42000
v -1.48000 -0.58000 0.42000
v -1.45517 -0.66000 0.34359
v -1.45517 -0.58000 0.34359
v -1.39017 -0.66000 0.29636
v -1.39017 -0.58000 0.29636
v -1.30983 -0.66000 0.29636
v -1.30983 -0.58000 0.29636
v -1.24483 -0.66000 0.34359
v -1.24483 -0.58000 0.34359
v -1.04000 0.62000 0.42000
v -1.07500 0.68062 0.42000
v -1.14500 0.68062 0.42000
v -1.18000 0.62000 0.42000
v -1.14500 0.55938 0.42000
v -1.07500 0.55938 0.42000
v -1.07070 0.62000 0.55450
v -1.10223 0.68062 0.53932
v -1.16530 0.68062 0.50895
v -1.19684 0.62000 0.49376
v -1.16530 0.55938 0.50895
v -1.10223 0.55938 0.53932
v -1.15672 0.62000 0.66237
v -1.17854 0.68062 0.63500
v -1.22218 0.68062 0.58028
v -1.24401 0.62000 0.55291
v -1.22218 0.55938 0.58028
v -1.17854 0.55938 0.63500
v -1.28102 0.62000 0.72223
v -1.28881 0.68062 0.68811
v -1.30438 0.68062 0.61986
v -1.31217 0.62000 0.58574
v -1.30438 0.55938 0.61986
v -1.28881 0.55938 0.68811
v -1.41898 0.62000 0.72223
v -1.41119 0.68062 0.68811
v -1.39562 0.68062 0.61986
v -1.38783 0.62000 0.58574
v -1.39562 0.55938 0.61986
v -1.41119 0.55938 0.68811
v -1.54328 0.62000 0.66237
v -1.52146 0.68062 0.63500
v -1.47782 0.68062 0.58028
v -1.45599 0.62000 0.55291
v -1.47782 0.55938 0.58028
v -1.52146 0.55938 0.63500
v -1.62930 0.62000 0.55450
v -1.59777 0.68062 0.53932
v -1.53470 0.68062 0.50895
v -1.50316 0.62000 0.49376
v -1.53470 0.55938 0.50895
v -1.59777 0.55938 0.53932
v -1.66000 0.62000 0.42000
v -1.62500 0.68062 0.42000
v -1.55500 0.68062 0.42000
v -1.52000 0.62000 0.42000
v -1.55500 0.55938 0.42000
v -1.62500 0.55938 0.42000
v -1.62930 0.62000 0.28550
v -1.59777 0.68062 0.30068
v -1.53470 0.68062 0.33105
v -1.50316 0.62000 0.34624
v -1.53470 0.55938 0.33105
v -1.59777 0.55938 0.30068
v -1.54328 0.62000 0.17763
v -1.52146 0.68062 0.20500
v -1.47782 0.68062 0.25972
v -1.45599 0.62000 0.28709
v -1.47782 0.55938 0.25972
v -1.52146 0.55938 0.20500
v -1.41898 0.62000 0.11777
v -1.41119 0.68062 0.15189
v -1.39562 0.68062 0.22014
v -1.38783 0.62000 0.25426
v -1.39562 0.55938 0.22014
v -1.41119 0.55938 0.15189
v -1.28102 0.62000 0.11777
v -1.28881 0.68062 0.15189
v -1.30438 0.68062 0.22014
v -1.31217 0.62000 0.25426
v -1.30438 0.55938 0.22014
v -1.28881 0.55938 0.15189
v -1.15672 0.62000 0.17763
v -1.17854 0.68062 0.20500
v -1.22218 0.68062 0.25972
v -1.24401 0.62000 0.28709
v -1.22218 0.55938 0.25972
v -1.17854 0.55938 0.20500
v -1.07070 0.62000 0.28550
v -1.10223 0.68062 0.30068
v -1.16530 0.68062 0.33105
v -1.19684 0.62000 0.34624
v -1.16530 0.55938 0.33105
v -1.10223 0.55938 0.30068
v -1.22000 0.58000 0.42000
v -1.22000 0.66000 0.42000
v -1.24483 0.58000 0.49641
v -1.24483 0.66000 0.49641
v -1.30983 0.58000 0.54364
v -1.30983 0.66000 0.54364
v -1.39017 0.58000 0.54364
v -1.39017 0.66000 0.54364
v -1.45517 0.58000 0.49641
v -1.45517 0.66000 0.49641
v -1.48000 0.58000 0.42000
v -1.48000 0.66000 0.42000
v -1.45517 0.58000 0.34359
v -1.45517 0.66000 0.34359
v -1.39017 0.58000 0.29636
v -1.39017 0.66000 0.29636
v -1.30983 0.58000 0.29636
v -1.30983 0.66000 0.29636
v -1.24483 0.58000 0.34359
v -1.24483 0.66000 0.34359
v -0.04000 -0.62000 0.42000
v -0.07500 -0.55938 0.42000
v -0.14500 -0.55938 0.42000
v -0.18000 -0.62000 0.42000
v -0.14500 -0.68062 0.42000
v -0.07500 -0.68062 0.42000
v -0.07070 -0.62000 0.55450
v -0.10223 -0.55938 0.53932
v -0.16530 -0.55938 0.50895
v -0.19684 -0.62000 0.49376
v -0.16530 -0.68062 0.50895
v -0.10223 -0.68062 0.53932
v -0.15672 -0.62000 0.66237
v -0.17854 -0.55938 0.63500
v -0.22218 -0.55938 0.58028
v -0.24401 -0.62000 0.55291
v -0.22218 -0.68062 0.58028
v -0.17854 -0.68062 0.63500
v -0.28102 -0.62000 0.72223
v -0.28881 -0.55938 0.68811
v -0.30438 -0.55938 0.61986
v -0.31217 -0.62000 0.58574
v -0.30438 -0.68062 0.61986
v -0.28881 -0.68062 0.68811
v -0.41898 -0.62000 0.72223
v -0.41119 -0.55938 0.68811
v -0.39562 -0.55938 0.61986
v -0.38783 -0.62000 0.58574
v -0.39562 -0.68062 0.61986
v -0.41119 -0.68062 0.68811
v -0.54328 -0.62000 0.66237
v -0.52146 -0.55938 0.63500
v -0.47782 -0.55938 0.58028
v -0.45599 -0.62000 0.55291
v -0.47782 -0.68062 0.58028
v -0.52146 -0.68062 0.63500
v -0.62930 -0.62000 0.55450
v -0.59777 -0.55938 0.53932
v -0.53470 -0.55938 0.50895
v -0.50316 -0.62000 0.49376
v -0.53470 -0.68062 0.50895
v -0.59777 -0.68062 0.53932
v -0.66000 -0.62000 0.42000
v -0.62500 -0.55938 0.42000
v -0.55500 -0.55938 0.42000
v -0.52000 -0.62000 0.42000
v -0.55500 -0.68062 0.42000
v -0.62500 -0.68062 0.42000
v -0.62930 -0.62000 0.28550
v -0.59777 -0.55938 0.30068
v -0.53470 -0.55938 0.33105
v -0.50316 -0.62000 0.34624
v -0.53470 -0.68062 0.33105
v -0.59777 -0.68062 0.30068
v -0.54328 -0.62000 0.17763
v -0.52146 -0.55938 0.20500
v -0.47782 -0.55938 0.25972
v -0.45599 -0.62000 0.28709
v -0.47782 -0.68062 0.25972
v -0.52146 -0.68062 0.20500
v -0.41898 -0.62000 0.11777
v -0.41119 -0.55938 0.15189
v -0.39562 -0.55938 0.22014
v -0.38783 -0.62000 0.25426
v -0.39562 -0.68062 0.22014
v -0.41119 -0.68062 0.15189
v -0.28102 -0.62000 0.11777
v -0.28881 -0.55938 0.15189
v -0.30438 -0.55938 0.22014
v -0.31217 -0.62000 0.25426
v -0.30438 -0.68062 0.22014
v -0.28881 -0.68062 0.15189
v -0.15672 -0.62000 0.17763
v -0.17854 -0.55938 0.20500
v -0.22218 -0.55938 0.25972
v -0.24401 -0.62000 0.28709
v -0.22218 -0.68062 0.25972
v -0.17854 -0.68062 0.20500
v -0.07070 -0.62000 0.28550
v -0.10223 -0.55938 0.30068
v -0.16530 -0.55938 0.33105
v -0.19684 -0.62000 0.34624
v -0.16530 -0.68062 0.33105
v -0.10223 -0.68062 0.30068
v -0.22000 -0.66000 0.42000
v -0.22000 -0.58000 0.42000
v -0.24483 -0.66000 0.49641
v -0.24483 -0.58000 0.49641
v -0.30983 -0.66000 0.54364
v -0.30983 -0.58000 0.54364
v -0.39017 -0.66000 0.54364
v -0.39017 -0.58000 0.54364
v -0.45517 -0.66000 0.49641
v -0.45517 -0.58000 0.49641
v -0.48000 -0.66000 0.42000
v -0.48000 -0.58000 0.42000
v -0.45517 -0.66000 0.34359
v -0.45517 -0.58000 0.34359
v -0.39017 -0.66000 0.29636
v -0.39017 -0.58000 0.29636
v -0.30983 -0.66000 0.29636
v -0.30983 -0.58000 0.29636
v -0.24483 -0.66000 0.34359
v -0.24483 -0.58000 0.34359
v -0.04000 0.62000 0.42000
v -0.07500 0.68062 0.42000
v -0.14500 0.68062 0.42000
v -0.18000 0.62000 0.42000
v -0.14500 0.55938 0.42000
v -0.07500 0.55938 0.42000
v -0.07070 0.62000 0.55450
v -0.10223 0.68062 0.53932
v -0.16530 0.68062 0.50895
v -0.19684 0.62000 0.49376
v -0.16530 0.55938 0.50895
v -0.10223 0.55938 0.53932
v -0.15672 0.62000 0.66237
v -0.17854 0.68062 0.63500
v -0.22218 0.68062 0.58028
v -0.24401 0.62000 0.55291
v -0.22218 0.55938 0.58028
v -0.17854 0.55938 0.63500
v -0.28102 0.62000 0.72223
v -0.28881 0.68062 0.68811
v -0.30438 0.68062 0.61986
v -0.31217 0.62000 0.58574
v -0.30438 0.55938 0.61986
v -0.28881 0.55938 0.68811
v -0.41898 0.62000 0.72223
v -0.41119 0.68062 0.68811
v -0.39562 0.68062 0.61986
v -0.38783 0.62000 0.58574
v -0.39562 0.55938 0.61986
v -0.41119 0.55938 0.68811
v -0.54328 0.62000 0.66237
v -0.52146 0.68062 0.63500
v -0.47782 0.68062 0.58028
v -0.45599 0.62000 0.55291
v -0.47782 0.55938 0.58028
v -0.52146 0.55938 0.63500
v -0.62930 0.62000 0.55450
v -0.59777 0.68062 0.53932
v -0.53470 0.68062 0.50895
v -0.50316 0.62000 0.49376
v -0.53470 0.55938 0.50895
v -0.59777 0.55938 0.53932
v -0.66000 0.62000 0.42000
v -0.62500 0.68062 0.42000
v -0.55500 0.68062 0.42000
v -0.52000 0.62000 0.42000
v -0.55500 0.55938 0.42000
v -0.62500 0.55938 0.42000
v -0.62930 0.62000 0.28550
v -0.59777 0.68062 0.30068
v -0.53470 0.68062 0.33105
v -0.50316 0.62000 0.34624
v -0.53470 0.55938 0.33105
v -0.59777 0.55938 0.30068
v -0.54328 0.62000 0.17763
v -0.52146 0.68062 0.20500
v -0.47782 0.68062 0.25972
v -0.45599 0.62000 0.28709
v -0.47782 0.55938 0.25972
v -0.52146 0.55938 0.20500
v -0.41898 0.62000 0.11777
v -0.41119 0.68062 0.15189
v -0.39562 0.68062 0.22014
v -0.38783 0.62000 0.25426
v -0.39562 0.55938 0.22014
v -0.41119 0.55938 0.15189
v -0.28102 0.62000 0.11777
v -0.28881 0.68062 0.15189
v -0.30438 0.68062 0.22014
v -0.31217 0.62000 0.25426
v -0.30438 0.55938 0.22014
v -0.28881 0.55938 0.15189
v -0.15672 0.62000 0.17763
v -0.17854 0.68062 0.20500
v -0.22218 0.68062 0.25972
v -0.24401 0.62000 0.28709
v -0.22218 0.55938 0.25972
v -0.17854 0.55938 0.20500
v -0.07070 0.62000 0.28550
v -0.10223 0.68062 0.30068
v -0.16530 0.68062 0.33105
v -0.19684 0.62000 0.34624
v -0.16530 0.55938 0.33105
v -0.10223 0.55938 0.30068
v -0.22000 0.58000 0.42000
v -0.22000 0.66000 0.42000
v -0.24483 0.58000 0.49641
v -0.24483 0.66000 0.49641
v -0.30983 0.58000 0.54364
v -0.30983 0.66000 0.54364
v -0.39017 0.58000 0.54364
v -0.39017 0.66000 0.54364
v -0.45517 0.58000 0.49641
v -0.45517 0.66000 0.49641
v -0.48000 0.58000 0.42000
v -0.48000 0.66000 0.42000
v -0.45517 0.58000 0.34359
v -0.45517 0.66000 0.34359
v -0.39017 0.58000 0.29636
v -0.39017 0.66000 0.29636
v -0.30983 0.58000 0.29636
v -0.30983 0.66000 0.29636
v -0.24483 0.58000 0.34359
v -0.24483 0.66000 0.34359
v 1.16000 -0.62000 0.42000
v 1.12500 -0.55938 0.42000
v 1.05500 -0.55938 0.42000
v 1.02000 -0.62000 0.42000
v 1.05500 -0.68062 0.42000
v 1.12500 -0.68062 0.42000
v 1.12930 -0.62000 0.55450
v 1.09777 -0.55938 0.53932
v 1.03470 -0.55938 0.50895
v 1.00316 -0.62000 0.49376
v 1.03470 -0.68062 0.50895
v 1.09777 -0.68062 0.53932
v 1.04328 -0.62000 0.66237
v 1.02146 -0.55938 0.63500
v 0.97782 -0.55938 0.58028
v 0.95599 -0.62000 0.55291
v 0.97782 -0.68062 0.58028
v 1.02146 -0.68062 0.63500
v 0.91898 -0.62000 0.72223
v 0.91119 -0.55938 0.68811
v 0.89562 -0.55938 0.61986
v 0.88783 -0.62000 0.58574
v 0.89562 -0.68062 0.61986
v 0.91119 -0.68062 0.68811
v 0.78102 -0.62000 0.72223
v 0.78881 -0.55938 0.68811
v 0.80438 -0.55938 0.61986
v 0.81217 -0.62000 0.58574
v 0.80438 -0.68062 0.61986
v 0.78881 -0.68062 0.68811
v 0.65672 -0.62000 0.66237
v 0.67854 -0.55938 0.63500
v 0.72218 -0.55938 0.58028
v 0.74401 -0.62000 0.55291
v 0.72218 -0.68062 0.58028
v 0.67854 -0.68062 0.63500
v 0.57070 -0.62000 0.55450
v 0.60223 -0.55938 0.53932
v 0.66530 -0.55938 0.50895
v 0.69684 -0.62000 0.49376
v 0.66530 -0.68062 0.50895
v 0.60223 -0.68062 0.53932
v 0.54000 -0.62000 0.42000
v 0.57500 -0.55938 0.42000
v 0.64500 -0.55938 0.42000
v 0.68000 -0.62000 0.42000
v 0.64500 -0.68062 0.42000
v 0.57500 -0.68062 0.42000
v 0.57070 -0.62000 0.28550
v 0.60223 -0.55938 0.30068
v 0.66530 -0.55938 0.33105
v 0.69684 -0.62000 0.34624
v 0.66530 -0.68062 0.33105
v 0.60223 -0.68062 0.30068
v 0.65672 -0.62000 0.17763
v 0.67854 -0.55938 0.20500
v 0.72218 -0.55938 0.25972
v 0.74401 -0.62000 0.28709
v 0.72218 -0.68062 0.25972
v 0.67854 -0.68062 0.20500
v 0.78102 -0.62000 0.11777
v 0.78881 -0.55938 0.15189
v 0.80438 -0.55938 0.22014
v 0.81217 -0.62000 0.25426
v 0.80438 -0.68062 0.22014
v 0.78881 -0.68062 0.15189
v 0.91898 -0.62000 0.11777
v 0.91119 -0.55938 0.15189
v 0.89562 -0.55938 0.22014
v 0.88783 -0.62000 0.25426
v 0.89562 -0.68062 0.22014
v 0.91119 -0.68062 0.15189
v 1.04328 -0.62000 0.17763
v 1.02146 -0.55938 0.20500
v 0.97782 -0.55938 0.25972
v 0.95599 -0.62000 0.28709
v 0.97782 -0.68062 0.25972
v 1.02146 -0.68062 0.20500
v 1.12930 -0.62000 0.28550
v 1.09777 -0.55938 0.30068
v 1.03470 -0.55938 0.33105
v 1.00316 -0.62000 0.34624
v 1.03470 -0.68062 0.33105
v 1.09777 -0.68062 0.30068
v 0.98000 -0.66000 0.42000
v 0.98000 -0.58000 0.42000
v 0.95517 -0.66000 0.49641
v 0.95517 -0.58000 0.49641
v 0.89017 -0.66000 0.54364
v 0.89017 -0.58000 0.54364
v 0.80983 -0.66000 0.54364
v 0.80983 -0.58000 0.54364
v 0.74483 -0.66000 0.49641
v 0.74483 -0.58000 0.49641
v 0.72000 -0.66000 0.42000
v 0.72000 -0.58000 0.42000
v 0.74483 -0.66000 0.34359
v 0.74483 -0.58000 0.34359
v 0.80983 -0.66000 0.29636
v 0.80983 -0.58000 0.29636
v 0.89017 -0.66000 0.29636
v 0.89017 -0.58000 0.29636
v 0.95517 -0.66000 0.34359
v 0.95517 -0.58000 0.34359
v 1.16000 0.62000 0.42000
v 1.12500 0.68062 0.42000
v 1.05500 0.68062 0.42000
v 1.02000 0.62000 0.42000
v 1.05500 0.55938 0.42000
v 1.12500 0.55938 0.42000
v 1.12930 0.62000 0.55450
v 1.09777 0.68062 0.53932
v 1.03470 0.68062 0.50895
v 1.00316 0.62000 0.49376
v 1.03470 0.55938 0.50895
v 1.09777 0.55938 0.53932
v 1.04328 0.62000 0.66237
v 1.02146 0.68062 0.63500
v 0.97782 0.68062 0.58028
v 0.95599 0.62000 0.55291
v 0.97782 0.55938 0.58028
v 1.02146 0.55938 0.63500
v 0.91898 0.62000 0.72223
v 0.91119 0.68062 0.68811
v 0.89562 0.68062 0.61986
v 0.88783 0.62000 0.58574
v 0.89562 0.55938 0.61986
v 0.91119 0.55938 0.68811
v 0.78102 0.62000 0.72223
v 0.78881 0.68062 0.68811
v 0.80438 0.68062 0.61986
v 0.81217 0.62000 0.58574
v 0.80438 0.55938 0.61986
v 0.78881 0.55938 0.68811
v 0.65672 0.62000 0.66237
v 0.67854 0.68062 0.63500
v 0.72218 0.68062 0.58028
v 0.74401 0.62000 0.55291
v 0.72218 0.55938 0.58028
v 0.67854 0.55938 0.63500
v 0.57070 0.62000 0.55450
v 0.60223 0.68062 0.53932
v 0.66530 0.68062 0.50895
v 0.69684 0.62000 0.49376
v 0.66530 0.55938 0.50895
v 0.60223 0.55938 0.53932
v 0.54000 0.62000 0.42000
v 0.57500 0.68062 0.42000
v 0.64500 0.68062 0.42000
v 0.68000 0.62000 0.42000
v 0.64500 0.55938 0.42000
v 0.57500 0.55938 0.42000
v 0.57070 0.62000 0.28550
v 0.60223 0.68062 0.30068
v 0.66530 0.68062 0.33105
v 0.69684 0.62000 0.34624
v 0.66530 0.55938 0.33105
v 0.60223 0.55938 0.30068
v 0.65672 0.62000 0.17763
v 0.67854 0.68062 0.20500
v 0.72218 0.68062 0.25972
v 0.74401 0.62000 0.28709
v 0.72218 0.55938 0.25972
v 0.67854 0.55938 0.20500
v 0.78102 0.62000 0.11777
v 0.78881 0.68062 0.15189
v 0.80438 0.68062 0.22014
v 0.81217 0.62000 0.25426
v 0.80438 0.55938 0.22014
v 0.78881 0.55938 0.15189
v 0.91898 0.62000 0.11777
v 0.91119 0.68062 0.15189
v 0.89562 0.68062 0.22014
v 0.88783 0.62000 0.25426
v 0.89562 0.55938 0.22014
v 0.91119 0.55938 0.15189
v 1.04328 0.62000 0.17763
v 1.02146 0.68062 0.20500
v 0.97782 0.68062 0.25972
v 0.95599 0.62000 0.28709
v 0.97782 0.55938 0.25972
v 1.02146 0.55938 0.20500
v 1.12930 0.62000 0.28550
v 1.09777 0.68062 0.30068
v 1.03470 0.68062 0.33105
v 1.00316 0.62000 0.34624
v 1.03470 0.55938 0.33105
v 1.09777 0.55938 0.30068
v 0.98000 0.58000 0.42000
v 0.98000 0.66000 0.42000
v 0.95517 0.58000 0.49641
v 0.95517 0.66000 0.49641
v 0.89017 0.58000 0.54364
v 0.89017 0.66000 0.54364
v 0.80983 0.58000 0.54364
v 0.80983 0.66000 0.54364
v 0.74483 0.58000 0.49641
v 0.74483 0.66000 0.49641
v 0.72000 0.58000 0.42000
v 0.72000 0.66000 0.42000
v 0.74483 0.58000 0.34359
v 0.74483 0.66000 0.34359
v 0.80983 0.58000 0.29636
v 0.80983 0.66000 0.29636
v 0.89017 0.58000 0.29636
v 0.89017 0.66000 0.29636
v 0.95517 0.58000 0.34359
v 0.95517 0.66000 0.34359
v 1.76000 -0.62000 0.42000
v 1.72500 -0.55938 0.42000
v 1.65500 -0.55938 0.42000
v 1.62000 -0.62000 0.42000
v 1.65500 -0.68062 0.42000
v 1.72500 -0.68062 0.42000
v 1.72930 -0.62000 0.55450
v 1.69777 -0.55938 0.53932
v 1.63470 -0.55938 0.50895
v 1.60316 -0.62000 0.49376
v 1.63470 -0.68062 0.50895
v 1.69777 -0.68062 0.53932
v 1.64328 -0.62000 0.66237
v 1.62146 -0.55938 0.63500
v 1.57782 -0.55938 0.58028
v 1.55599 -0.62000 0.55291
v 1.57782 -0.68062 0.58028
v 1.62146 -0.68062 0.63500
v 1.51898 -0.62000 0.72223
v 1.51119 -0.55938 0.68811
v 1.49562 -0.55938 0.61986
v 1.48783 -0.62000 0.58574
v 1.49562 -0.68062 0.61986
v 1.51119 -0.68062 0.68811
v 1.38102 -0.62000 0.72223
v 1.38881 -0.55938 0.68811
v 1.40438 -0.55938 0.61986
v 1.41217 -0.62000 0.58574
v 1.40438 -0.68062 0.61986
v 1.38881 -0.68062 0.68811
v 1.25672 -0.62000 0.66237
v 1.27854 -0.55938 0.63500
v 1.32218 -0.55938 0.58028
v 1.34401 -0.62000 0.55291
v 1.32218 -0.68062 0.58028
v 1.27854 -0.68062 0.63500
v 1.17070 -0.62000 0.55450
v 1.20223 -0.55938 0.53932
v 1.26530 -0.55938 0.50895
v 1.29684 -0.62000 0.49376
v 1.26530 -0.68062 0.50895
v 1.20223 -0.68062 0.53932
v 1.14000 -0.62000 0.42000
v 1.17500 -0.55938 0.42000
v 1.24500 -0.55938 0.42000
v 1.28000 -0.62000 0.42000
v 1.24500 -0.68062 0.42000
v 1.17500 -0.68062 0.42000
v 1.17070 -0.62000 0.28550
v 1.20223 -0.55938 0.30068
v 1.26530 -0.55938 0.33105
v 1.29684 -0.62000 0.34624
v 1.26530 -0.68062 0.33105
v 1.20223 -0.68062 0.30068
v 1.25672 -0.62000 0.17763
v 1.27854 -0.55938 0.20500
v 1.32218 -0.55938 0.25972
v 1.34401 -0.62000 0.28709
v 1.32218 -0.68062 0.25972
v 1.27854 -0.68062 0.20500
v 1.38102 -0.62000 0.11777
v 1.38881 -0.55938 0.15189
v 1.40438 -0.55938 0.22014
v 1.41217 -0.62000 0.25426
v 1.40438 -0.68062 0.22014
v 1.38881 -0.68062 0.15189
v 1.51898 -0.62000 0.11777
v 1.51119 -0.55938 0.15189
v 1.49562 -0.55938 0.22014
v 1.48783 -0.62000 0.25426
v 1.49562 -0.68062 0.22014
v 1.51119 -0.68062 0.15189
v 1.64328 -0.62000 0.17763
v 1.62146 -0.55938 0.20500
v 1.57782 -0.55938 0.25972
v 1.55599 -0.62000 0.28709
v 1.57782 -0.68062 0.25972
v 1.62146 -0.68062 0.20500
v 1.72930 -0.62000 0.28550
v 1.69777 -0.55938 0.30068
v 1.63470 -0.55938 0.33105
v 1.60316 -0.62000 0.34624
v 1.63470 -0.68062 0.33105
v 1.69777 -0.68062 0.30068
v 1.58000 -0.66000 0.42000
v 1.58000 -0.58000 0.42000
v 1.55517 -0.66000 0.49641
v 1.55517 -0.58000 0.49641
v 1.49017 -0.66000 0.54364
v 1.49017 -0.58000 0.54364
v 1.40983 -0.66000 0.54364
v 1.40983 -0.58000 0.54364
v 1.34483 -0.66000 0.49641
v 1.34483 -0.58000 0.49641
v 1.32000 -0.66000 0.42000
v 1.32000 -0.58000 0.42000
v 1.34483 -0.66000 0.34359
v 1.34483 -0.58000 0.34359
v 1.40983 -0.66000 0.29636
v 1.40983 -0.58000 0.29636
v 1.49017 -0.66000 0.29636
v 1.49017 -0.58000 0.29636
v 1.55517 -0.66000 0.34359
v 1.55517 -0.58000 0.34359
v 1.76000 0.62000 0.42000
v 1.72500 0.68062 0.42000
v 1.65500 0.68062 0.42000
v 1.62000 0.62000 0.42000
v 1.65500 0.55938 0.42000
v 1.72500 0.55938 0.42000
v 1.72930 0.62000 0.55450
v 1.69777 0.68062 0.53932
v 1.63470 0.68062 0.50895
v 1.60316 0.62000 0.49376
v 1.63470 0.55938 0.50895
v 1.69777 0.55938 0.53932
v 1.64328 0.62000 0.66237
v 1.62146 0.68062 0.63500
v 1.57782 0.68062 0.58028
v 1.55599 0.62000 0.55291
v 1.57782 0.55938 0.58028
v 1.62146 0.55938 0.63500
v 1.51898 0.62000 0.72223
v 1.51119 0.68062 0.68811
v 1.49562 0.68062 0.61986
v 1.48783 0.62000 0.58574
v 1.49562 0.55938 0.61986
v 1.51119 0.55938 0.68811
v 1.38102 0.62000 0.72223
v 1.38881 0.68062 0.68811
v 1.40438 0.68062 0.61986
v 1.41217 0.62000 0.58574
v 1.40438 0.55938 0.61986
v 1.38881 0.55938 0.68811
v 1.25672 0.62000 0.66237
v 1.27854 0.68062 0.63500
v 1.32218 0.68062 0.58028
v 1.34401 0.62000 0.55291
v 1.32218 0.55938 0.58028
v 1.27854 0.55938 0.63500
v 1.17070 0.62000 0.55450
v 1.20223 0.68062 0.53932
v 1.26530 0.68062 0.50895
v 1.29684 0.62000 0.49376
v 1.26530 0.55938 0.50895
v 1.20223 0.55938 0.53932
v 1.14000 0.62000 0.42000
v 1.17500 0.68062 0.42000
v 1.24500 0.68062 0.42000
v 1.28000 0.62000 0.42000
v 1.24500 0.55938 0.42000
v 1.17500 0.55938 0.42000
v 1.17070 0.62000 0.28550
v 1.20223 0.68062 0.30068
v 1.26530 0.68062 0.33105
v 1.29684 0.62000 0.34624
v 1.26530 0.55938 0.33105
v 1.20223 0.55938 0.30068
v 1.25672 0.62000 0.17763
v 1.27854 0.68062 0.20500
v 1.32218 0.68062 0.25972
v 1.34401 0.62000 0.28709
v 1.32218 0.55938 0.25972
v 1.27854 0.55938 0.20500
v 1.38102 0.62000 0.11777
v 1.38881 0.68062 0.15189
v 1.40438 0.68062 0.22014
v 1.41217 0.62000 0.25426
v 1.40438 0.55938 0.22014
v 1.38881 0.55938 0.15189
v 1.51898 0.62000 0.11777
v 1.51119 0.68062 0.15189
v 1.49562 0.68062 0.22014
v 1.48783 0.62000 0.25426
v 1.49562 0.55938 0.22014
v 1.51119 0.55938 0.15189
v 1.64328 0.62000 0.17763
v 1.62146 0.68062 0.20500
v 1.57782 0.68062 0.25972
v 1.55599 0.62000 0.28709
v 1.57782 0.55938 0.25972
v 1.62146 0.55938 0.20500
v 1.72930 0.62000 0.28550
v 1.69777 0.68062 0.30068
v 1.63470 0.68062 0.33105
v 1.60316 0.62000 0.34624
v 1.63470 0.55938 0.33105
v 1.69777 0.55938 0.30068
v 1.58000 0.58000 0.42000
v 1.58000 0.66000 0.42000
v 1.55517 0.58000 0.49641
v 1.55517 0.66000 0.49641
v 1.49017 0.58000 0.54364
v 1.49017 0.66000 0.54364
v 1.40983 0.58000 0.54364
v 1.40983 0.66000 0.54364
v 1.34483 0.58000 0.49641
v 1.34483 0.66000 0.49641
v 1.32000 0.58000 0.42000
v 1.32000 0.66000 0.42000
v 1.34483 0.58000 0.34359
v 1.34483 0.66000 0.34359
v 1.40983 0.58000 0.29636
v 1.40983 0.66000 0.29636
v 1.49017 0.58000 0.29636
v 1.49017 0.66000 0.29636
v 1.55517 0.58000 0.34359
v 1.55517 0.66000 0.34359
usemtl gray
f 1 2 3 4
f 5 8 7 6
f 1 5 6 2
f 2 6 7 3
f 3 7 8 4
f 4 8 5 1
usemtl blue
f 9 10 11 12
f 13 16 15 14
f 9 13 14 10
f 10 14 15 11
f 11 15 16 12
f 12 16 13 9
usemtl glass
f 17 18 19 20
f 21 24 23 22
f 17 21 22 18
f 18 22 23 19
f 19 23 24 20
f 20 24 21 17
usemtl black
f 25 31 32 26
f 26 32 33 27
f 27 33 34 28
f 28 34 35 29
f 29 35 36 30
f 30 36 31 25
f 31 37 38 32
f 32 38 39 33
f 33 39 40 34
f 34 40 41 35
f 35 41 42 36
f 36 42 37 31
f 37 43 44 38
f 38 44 45 39
f 39 45 46 40
f 40 46 47 41
f 41 47 48 42
f 42 48 43 37
f 43 49 50 44
f 44 50 51 45
f 45 51 52 46
f 46 52 53 47
f 47 53 54 48
f 48 54 49 43
f 49 55 56 50
f 50 56 57 51
f 51 57 58 52
f 52 58 59 53
f 53 59 60 54
f 54 60 55 49
f 55 61 62 56
f 56 62 63 57
f 57 63 64 58
f 58 64 65 59
f 59 65 66 60
f 60 66 61 55
f 61 67 68 62
f 62 68 69 63
f 63 69 70 64
f 64 70 71 65
f 65 71 72 66
f 66 72 67 61
f 67 73 74 68
f 68 74 75 69
f 69 75 76 70
f 70 76 77 71
f 71 77 78 72
f 72 78 73 67
f 73 79 80 74
f 74 80 81 75
f 75 81 82 76
f 76 82 83 77
f 77 83 84 78
f 78 84 79 73
f 79 85 86 80
f 80 86 87 81
f 81 87 88 82
f 82 88 89 83
f 83 89 90 84
f 84 90 85 79
f 85 91 92 86
f 86 92 93 87
f 87 93 94 88
f 88 94 95 89
f 89 95 96 90
f 90 96 91 85
f 91 97 98 92
f 92 98 99 93
f 93 99 100 94
f 94 100 101 95
f 95 101 102 96
f 96 102 97 91
f 97 103 104 98
f 98 104 105 99
f 99 105 106 100
f 100 106 107 101
f 101 107 108 102
f 102 108 103 97
f 103 25 26 104
f 104 26 27 105
f 105 27 28 106
f 106 28 29 107
f 107 29 30 108
f 108 30 25 103
usemtl metal
f 109 111 112 110
f 111 113 114 112
f 113 115 116 114
f 115 117 118 116
f 117 119 120 118
f 119 121 122 120
f 121 123 124 122
f 123 125 126 124
f 125 127 128 126
f 127 109 110 128
f 127 125 123 121 119 117 115 113 111 109
f 110 112 114 116 118 120 122 124 126 128
usemtl black
f 129 135 136 130
f 130 136 137 131
f 131 137 138 132
f 132 138 139 133
f 133 139 140 134
f 134 140 135 129
f 135 141 142 136
f 136 142 143 137
f 137 143 144 138
f 138 144 145 139
f 139 145 146 140
f 140 146 141 135
f 141 147 148 142
f 142 148 149 143
f 143 149 150 144
f 144 150 151 145
f 145 151 152 146
f 146 152 147 141
f 147 153 154 148
f 148 154 155 149
f 149 155 156 150
f 150 156 157 151
f 151 157 158 152
f 152 158 153 147
f 153 159 160 154
f 154 160 161 155
f 155 161 162 156
f 156 162 163 157
f 157 163 164 158
f 158 164 159 153
f 159 165 166 160
f 160 166 167 161
f 161 167 168 162
f 162 168 169 163
f 163 169 170 164
f 164 170 165 159
f 165 171 172 166
f 166 172 173 167
f 167 173 174 168
f 168 174 175 169
f 169 175 176 170
f 170 176 171 165
f 171 177 178 172
f 172 178 179 173
f 173 179 180 174
f 174 180 181 175
f 175 181 182 176
f 176 182 177 171
f 177 183 184 178
f 178 184 185 179
f 179 185 186 180
f 180 186 187 181
f 181 187 188 182
f 182 188 183 177
f 183 189 190 184
f 184 190 191 185
f 185 191 192 186
f 186 192 193 187
f 187 193 194 188
f 188 194 189 183
f 189 195 196 190
f 190 196 197 191
f 191 197 198 192
f 192 198 199 193
f 193 199 200 194
f 194 200 195 189
f 195 201 202 196
f 196 202 203 197
f 197 203 204 198
f 198 204 205 199
f 199 205 206 200
f 200 206 201 195
f 201 207 208 202
f 202 208 209 203
f 203 209 210 204
f 204 210 211 205
f 205 211 212 206
f 206 212 207 201
f 207 129 130 208
f 208 130 131 209
f 209 131 132 210
f 210 132 133 211
f 211 133 134 212
f 212 134 129 207
usemtl metal
f 213 215 216 214
f 215 217 218 216
f 217 219 220 218
f 219 221 222 220
f 221 223 224 222
f 223 225 226 224
f 225 227 228 226
f 227 229 230 228
f 229 231 232 230
f 231 213 214 232
f 231 229 227 225 223 221 219 217 215 213
f 214 216 218 220 222 224 226 228 230 232
usemtl black
f 233 239 240 234
f 234 240 241 235
f 235 241 242 236
f 236 242 243 237
f 237 243 244 238
f 238 244 239 233
f 239 245 246 240
f 240 246 247 241
f 241 247 248 242
f 242 248 249 243
f 243 249 250 244
f 244 250 245 239
f 245 251 252 246
f 246 252 253 247
f 247 253 254 248
f 248 254 255 249
f 249 255 256 250
f 250 256 251 245
f 251 257 258 252
f 252 258 259 253
f 253 259 260 254
f 254 260 261 255
f 255 261 262 256
f 256 262 257 251
f 257 263 264 258
f 258 264 265 259
f 259 265 266 260
f 260 266 267 261
f 261 267 268 262
f 262 268 263 257
f 263 269 270 264
f 264 270 271 265
f 265 271 272 266
f 266 272 273 267
f 267 273 274 268
f 268 274 269 263
f 269 275 276 270
f 270 276 277 271
f 271 277 278 272
f 272 278 279 273
f 273 279 280 274
f 274 280 275 269
f 275 281 282 276
f 276 282 283 277
f 277 283 284 278
f 278 284 285 279
f 279 285 286 280
f 280 286 281 275
f 281 287 288 282
f 282 288 289 283
f 283 289 290 284
f 284 290 291 285
f 285 291 292 286
f 286 292 287 281
f 287 293 294 288
f 288 294 295 289
f 289 295 296 290
f 290 296 297 291
f 291 297 298 292
f 292 298 293 287
f 293 299 300 294
f 294 300 301 295
f 295 301 302 296
f 296 302 303 297
f 297 303 304 298
f 298 304 299 293
f 299 305 306 300
f 300 306 307 301
f 301 307 308 302
f 302 308 309 303
f 303 309 310 304
f 304 310 305 299
f 305 311 312 306
f 306 312 313 307
f 307 313 314 308
f 308 314 315 309
f 309 315 316 310
f 310 316 311 305
f 311 233 234 312
f 312 234 235 313
f 313 235 236 314
f 314 236 237 315
f 315 237 238 316
f 316 238 233 311
usemtl metal
f 317 319 320 318
f 319 321 322 320
f 321 323 324 322
f 323 325 326 324
f 325 327 328 326
f 327 329 330 328
f 329 331 332 330
f 331 333 334 332
f 333 335 336 334
f 335 317 318 336
f 335 333 331 329 327 325 323 321 319 317
f 318 320 322 324 326 328 330 332 334 336
usemtl black
f 337 343 344 338
f 338 344 345 339
f 339 345 346 340
f 340 346 347 341
f 341 347 348 342
f 342 348 343 337
f 343 349 350 344
f 344 350 351 345
f 345 351 352 346
f 346 352 353 347
f 347 353 354 348
f 348 354 349 343
f 349 355 356 350
f 350 356 357 351
f 351 357 358 352
f 352 358 359 353
f 353 359 360 354
f 354 360 355 349
f 355 361 362 356
f 356 362 363 357
f 357 363 364 358
f 358 364 365 359
f 359 365 366 360
f 360 366 361 355
f 361 367 368 362
f 362 368 369 363
f 363 369 370 364
f 364 370 371 365
f 365 371 372 366
f 366 372 367 361
f 367 373 374 368
f 368 374 375 369
f 369 375 376 370
f 370 376 377 371
f 371 377 378 372
f 372 378 373 367
f 373 379 380 374
f 374 380 381 375
f 375 381 382 376
f 376 382 383 377
f 377 383 384 378
f 378 384 379 373
f 379 385 386 380
f 380 386 387 381
f 381 387 388 382
f 382 388 389 383
f 383 389 390 384
f 384 390 385 379
f 385 391 392 386
f 386 392 393 387
f 387 393 394 388
f 388 394 395 389
f 389 395 396 390
f 390 396 391 385
f 391 397 398 392
f 392 398 399 393
f 393 399 400 394
f 394 400 401 395
f 395 401 402 396
f 396 402 397 391
f 397 403 404 398
f 398 404 405 399
f 399 405 406 400
f 400 406 407 401
f 401 407 408 402
f 402 408 403 397
f 403 409 410 404
f 404 410 411 405
f 405 411 412 406
f 406 412 413 407
f 407 413 414 408
f 408 414 409 403
f 409 415 416 410
f 410 416 417 411
f 411 417 418 412
f 412 418 419 413
f 413 419 420 414
f 414 420 415 409
f 415 337 338 416
f 416 338 339 417
f 417 339 340 418
f 418 340 341 419
f 419 341 342 420
f 420 342 337 415
usemtl metal
f 421 423 424 422
f 423 425 426 424
f 425 427 428 426
f 427 429 430 428
f 429 431 432 430
f 431 433 434 432
f 433 435 436 434
f 435 437 438 436
f 437 439 440 438
f 439 421 422 440
f 439 437 435 433 431 429 427 425 423 421
f 422 424 426 428 430 432 434 436 438 440
usemtl black
f 441 447 448 442
f 442 448 449 443
f 443 449 450 444
f 444 450 451 445
f 445 451 452 446
f 446 452 447 441
f 447 453 454 448
f 448 454 455 449
f 449 455 456 450
f 450 456 457 451
f 451 457 458 452
f 452 458 453 447
f 453 459 460 454
f 454 460 461 455
f 455 461 462 456
f 456 462 463 457
f 457 463 464 458
f 458 464 459 453
f 459 465 466 460
f 460 466 467 461
f 461 467 468 462
f 462 468 469 463
f 463 469 470 464
f 464 470 465 459
f 465 471 472 466
f 466 472 473 467
f 467 473 474 468
f 468 474 475 469
f 469 475 476 470
f 470 476 471 465
f 471 477 478 472
f 472 478 479 473
f 473 479 480 474
f 474 480 481 475
f 475 481 482 476
f 476 482 477 471
f 477 483 484 478
f 478 484 485 479
f 479 485 486 480
f 480 486 487 481
f 481 487 488 482
f 482 488 483 477
f 483 489 490 484
f 484 490 491 485
f 485 491 492 486
f 486 492 493 487
f 487 493 494 488
f 488 494 489 483
f 489 495 496 490
f 490 496 497 491
f 491 497 498 492
f 492 498 499 493
f 493 499 500 494
f 494 500 495 489
f 495 501 502 496
f 496 502 503 497
f 497 503 504 498
f 498 504 505 499
f 499 505 506 500
f 500 506 501 495
f 501 507 508 502
f 502 508 509 503
f 503 509 510 504
f 504 510 511 505
f 505 511 512 506
f 506 512 507 501
f 507 513 514 508
f 508 514 515 509
f 509 515 516 510
f 510 516 517 511
f 511 517 518 512
f 512 518 513 507
f 513 519 520 514
f 514 520 521 515
f 515 521 522 516
f 516 522 523 517
f 517 523 524 518
f 518 524 519 513
f 519 441 442 520
f 520 442 443 521
f 521 443 444 522
f 522 444 445 523
f 523 445 446 524
f 524 446 441 519
usemtl metal
f 525 527 528 526
f 527 529 530 528
f 529 531 532 530
f 531 533 534 532
f 533 535 536 534
f 535 537 538 536
f 537 539 540 538
f 539 541 542 540
f 541 543 544 542
f 543 525 526 544
f 543 541 539 537 535 533 531 529 527 525
f 526 528 530 532 534 536 538 540 542 544
usemtl black
f 545 551 552 546
f 546 552 553 547
f 547 553 554 548
f 548 554 555 549
f 549 555 556 550
f 550 556 551 545
f 551 557 558 552
f 552 558 559 553
f 553 559 560 554
f 554 560 561 555
f 555 561 562 556
f 556 562 557 551
f 557 563 564 558
f 558 564 565 559
f 559 565 566 560
f 560 566 567 561
f 561 567 568 562
f 562 568 563 557
f 563 569 570 564
f 564 570 571 565
f 565 571 572 566
f 566 572 573 567
f 567 573 574 568
f 568 574 569 563
f 569 575 576 570
f 570 576 577 571
f 571 577 578 572
f 572 578 579 573
f 573 579 580 574
f 574 580 575 569
f 575 581 582 576
f 576 582 583 577
f 577 583 584 578
f 578 584 585 579
f 579 585 586 580
f 580 586 581 575
f 581 587 588 582
f 582 588 589 583
f 583 589 590 584
f 584 590 591 585
f 585 591 592 586
f 586 592 587 581
f 587 593 594 588
f 588 594 595 589
f 589 595 596 590
f 590 596 597 591
f 591 597 598 592
f 592 598 593 587
f 593 599 600 594
f 594 600 601 595
f 595 601 602 596
f 596 602 603 597
f 597 603 604 598
f 598 604 599 593
f 599 605 606 600
f 600 606 607 601
f 601 607 608 602
f 602 608 609 603
f 603 609 610 604
f 604 610 605 599
f 605 611 612 606
f 606 612 613 607
f 607 613 614 608
f 608 614 615 609
f 609 615 616 610
f 610 616 611 605
f 611 617 618 612
f 612 618 619 613
f 613 619 620 614
f 614 620 621 615
f 615 621 622 616
f 616 622 617 611
f 617 623 624 618
f 618 624 625 619
f 619 625 626 620
f 620 626 627 621
f 621 627 628 622
f 622 628 623 617
f 623 545 546 624
f 624 546 547 625
f 625 547 548 626
f 626 548 549 627
f 627 549 550 628
f 628 550 545 623
usemtl metal
f 629 631 632 630
f 631 633 634 632
f 633 635 636 634
f 635 637 638 636
f 637 639 640 638
f 639 641 642 640
f 641 643 644 642
f 643 645 646 644
f 645 647 648 646
f 647 629 630 648
f 647 645 643 641 639 637 635 633 631 629
f 630 632 634 636 638 640 642 644 646 648
usemtl black
f 649 655 656 650
f 650 656 657 651
f 651 657 658 652
f 652 658 659 653
f 653 659 660 654
f 654 660 655 649
f 655 661 662 656
f 656 662 663 657
f 657 663 664 658
f 658 664 665 659
f 659 665 666 660
f 660 666 661 655
f 661 667 668 662
f 662 668 669 663
f 663 669 670 664
f 664 670 671 665
f 665 671 672 666
f 666 672 667 661
f 667 673 674 668
f 668 674 675 669
f 669 675 676 670
f 670 676 677 671
f 671 677 678 672
f 672 678 673 667
f 673 679 680 674
f 674 680 681 675
f 675 681 682 676
f 676 682 683 677
f 677 683 684 678
f 678 684 679 673
f 679 685 686 680
f 680 686 687 681
f 681 687 688 682
f 682 688 689 683
f 683 689 690 684
f 684 690 685 679
f 685 691 692 686
f 686 692 693 687
f 687 693 694 688
f 688 694 695 689
f 689 695 696 690
f 690 696 691 685
f 691 697 698 692
f 692 698 699 693
f 693 699 700 694
f 694 700 701 695
f 695 701 702 696
f 696 702 697 691
f 697 703 704 698
f 698 704 705 699
f 699 705 706 700
f 700 706 707 701
f 701 707 708 702
f 702 708 703 697
f 703 709 710 704
f 704 710 711 705
f 705 711 712 706
f 706 712 713 707
f 707 713 714 708
f 708 714 709 703
f 709 715 716 710
f 710 716 717 711
f 711 717 718 712
f 712 718 719 713
f 713 719 720 714
f 714 720 715 709
f 715 721 722 716
f 716 722 723 717
f 717 723 724 718
f 718 724 725 719
f 719 725 726 720
f 720 726 721 715
f 721 727 728 722
f 722 728 729 723
f 723 729 730 724
f 724 730 731 725
f 725 731 732 726
f 726 732 727 721
f 727 649 650 728
f 728 650 651 729
f 729 651 652 730
f 730 652 653 731
f 731 653 654 732
f 732 654 649 727
usemtl metal
f 733 735 736 734
f 735 737 738 736
f 737 739 740 738
f 739 741 742 740
f 741 743 744 742
f 743 745 746 744
f 745 747 748 746
f 747 749 750 748
f 749 751 752 750
f 751 733 734 752
f 751 749 747 745 743 741 739 737 735 733
f 734 736 738 740 742 744 746 748 750 752
usemtl black
f 753 759 760 754
f 754 760 761 755
f 755 761 762 756
f 756 762 763 757
f 757 763 764 758
f 758 764 759 753
f 759 765 766 760
f 760 766 767 761
f 761 767 768 762
f 762 768 769 763
f 763 769 770 764
f 764 770 765 759
f 765 771 772 766
f 766 772 773 767
f 767 773 774 768
f 768 774 775 769
f 769 775 776 770
f 770 776 771 765
f 771 777 778 772
f 772 778 779 773
f 773 779 780 774
f 774 780 781 775
f 775 781 782 776
f 776 782 777 771
f 777 783 784 778
f 778 784 785 779
f 779 785 786 780
f 780 786 787 781
f 781 787 788 782
f 782 788 783 777
f 783 789 790 784
f 784 790 791 785
f 785 791 792 786
f 786 792 793 787
f 787 793 794 788
f 788 794 789 783
f 789 795 796 790
f 790 796 797 791
f 791 797 798 792
f 792 798 799 793
f 793 799 800 794
f 794 800 795 789
f 795 801 802 796
f 796 802 803 797
f 797 803 804 798
f 798 804 805 799
f 799 805 806 800
f 800 806 801 795
f 801 807 808 802
f 802 808 809 803
f 803 809 810 804
f 804 810 811 805
f 805 811 812 806
f 806 812 807 801
f 807 813 814 808
f 808 814 815 809
f 809 815 816 810
f 810 816 817 811
f 811 817 818 812
f 812 818 813 807
f 813 819 820 814
f 814 820 821 815
f 815 821 822 816
f 816 822 823 817
f 817 823 824 818
f 818 824 819 813
f 819 825 826 820
f 820 826 827 821
f 821 827 828 822
f 822 828 829 823
f 823 829 830 824
f 824 830 825 819
f 825 831 832 826
f 826 832 833 827
f 827 833 834 828
f 828 834 835 829
f 829 835 836 830
f 830 836 831 825
f 831 753 754 832
f 832 754 755 833
f 833 755 756 834
f 834 756 757 835
f 835 757 758 836
f 836 758 753 831
usemtl metal
f 837 839 840 838
f 839 841 842 840
f 841 843 844 842
f 843 845 846 844
f 845 847 848 846
f 847 849 850 848
f 849 851 852 850
f 851 853 854 852
f 853 855 856 854
f 855 837 838 856
f 855 853 851 849 847 845 843 841 839 837
f 838 840 842 844 846 848 850 852 854 856
