mtllib bush.mtl
o XYT_generated
v 0.00000 0.00000 1.10000
v 0.00000 0.00000 1.10000
v 0.00000 0.00000 1.10000
v 0.00000 0.00000 1.10000
v 0.00000 0.00000 1.10000
v 0.00000 0.00000 1.10000
v 0.00000 0.00000 1.10000
v 0.00000 0.00000 1.10000
v 0.00000 0.00000 1.10000
v 0.00000 0.00000 1.10000
v 0.49962 0.00000 1.01406
v 0.40420 0.22457 1.01406
v 0.15439 0.36336 1.01406
v -0.15439 0.36336 1.01406
v -0.40420 0.22457 1.01406
v -0.49962 0.00000 1.01406
v -0.40420 -0.22457 1.01406
v -0.15439 -0.36336 1.01406
v 0.15439 -0.36336 1.01406
v 0.40420 -0.22457 1.01406
v 0.80840 0.00000 0.78906
v 0.65401 0.36336 0.78906
v 0.24981 0.58793 0.78906
v -0.24981 0.58793 0.78906
v -0.65401 0.36336 0.78906
v -0.80840 0.00000 0.78906
v -0.65401 -0.36336 0.78906
v -0.24981 -0.58793 0.78906
v 0.24981 -0.58793 0.78906
v 0.65401 -0.36336 0.78906
v 0.80840 0.00000 0.51094
v 0.65401 0.36336 0.51094
v 0.24981 0.58793 0.51094
v -0.24981 0.58793 0.51094
v -0.65401 0.36336 0.51094
v -0.80840 0.00000 0.51094
v -0.65401 -0.36336 0.51094
v -0.24981 -0.58793 0.51094
v 0.24981 -0.58793 0.51094
v 0.65401 -0.36336 0.51094
v 0.49962 0.00000 0.28594
v 0.40420 0.22457 0.28594
v 0.15439 0.36336 0.28594
v -0.15439 0.36336 0.28594
v -0.40420 0.22457 0.28594
v -0.49962 0.00000 0.28594
v -0.40420 -0.22457 0.28594
v -0.15439 -0.36336 0.28594
v 0.15439 -0.36336 0.28594
v 0.40420 -0.22457 0.28594
v 0.00000 0.00000 0.20000
v 0.00000 0.00000 0.20000
v 0.00000 0.00000 0.20000
v -0.00000 0.00000 0.20000
v -0.00000 0.00000 0.20000
v -0.00000 0.00000 0.20000
v -0.00000 -0.00000 0.20000
v -0.00000 -0.00000 0.20000
v 0.00000 -0.00000 0.20000
v 0.00000 -0.00000 0.20000
v -0.55000 0.05000 1.10000
v -0.55000 0.05000 1.10000
v -0.55000 0.05000 1.10000
v -0.55000 0.05000 1.10000
v -0.55000 0.05000 1.10000
v -0.55000 0.05000 1.10000
v -0.55000 0.05000 1.10000
v -0.55000 0.05000 1.10000
v -0.55000 0.05000 1.10000
v -0.55000 0.05000 1.10000
v -0.22672 0.05000 1.02743
v -0.28846 0.20547 1.02743
v -0.45010 0.30156 1.02743
v -0.64990 0.30156 1.02743
v -0.81154 0.20547 1.02743
v -0.87328 0.05000 1.02743
v -0.81154 -0.10547 1.02743
v -0.64990 -0.20156 1.02743
v -0.45010 -0.20156 1.02743
v -0.28846 -0.10547 1.02743
v -0.02692 0.05000 0.83743
v -0.12682 0.30156 0.83743
v -0.38836 0.45703 0.83743
v -0.71164 0.45703 0.83743
v -0.97318 0.30156 0.83743
v -1.07308 0.05000 0.83743
v -0.97318 -0.20156 0.83743
v -0.71164 -0.35703 0.83743
v -0.38836 -0.35703 0.83743
v -0.12682 -0.20156 0.83743
v -0.02692 0.05000 0.60257
v -0.12682 0.30156 0.60257
v -0.38836 0.45703 0.60257
v -0.71164 0.45703 0.60257
v -0.97318 0.30156 0.60257
v -1.07308 0.05000 0.60257
v -0.97318 -0.20156 0.60257
v -0.71164 -0.35703 0.60257
v -0.38836 -0.35703 0.60257
v -0.12682 -0.20156 0.60257
v -0.22672 0.05000 0.41257
v -0.28846 0.20547 0.41257
v -0.45010 0.30156 0.41257
v -0.64990 0.30156 0.41257
v -0.81154 0.20547 0.41257
v -0.87328 0.05000 0.41257
v -0.81154 -0.10547 0.41257
v -0.64990 -0.20156 0.41257
v -0.45010 -0.20156 0.41257
v -0.28846 -0.10547 0.41257
v -0.55000 0.05000 0.34000
v -0.55000 0.05000 0.34000
v -0.55000 0.05000 0.34000
v -0.55000 0.05000 0.34000
v -0.55000 0.05000 0.34000
v -0.55000 0.05000 0.34000
v -0.55000 0.05000 0.34000
v -0.55000 0.05000 0.34000
v -0.55000 0.05000 0.34000
v -0.55000 0.05000 0.34000
v 0.55000 -0.05000 1.10000
v 0.55000 -0.05000 1.10000
v 0.55000 -0.05000 1.10000
v 0.55000 -0.05000 1.10000
v 0.55000 -0.05000 1.10000
v 0.55000 -0.05000 1.10000
v 0.55000 -0.05000 1.10000
v 0.55000 -0.05000 1.10000
v 0.55000 -0.05000 1.10000
v 0.55000 -0.05000 1.10000
v 0.87328 -0.05000 1.02743
v 0.81154 0.10547 1.02743
v 0.64990 0.20156 1.02743
v 0.45010 0.20156 1.02743
v 0.28846 0.10547 1.02743
v 0.22672 -0.05000 1.02743
v 0.28846 -0.20547 1.02743
v 0.45010 -0.30156 1.02743
v 0.64990 -0.30156 1.02743
v 0.81154 -0.20547 1.02743
v 1.07308 -0.05000 0.83743
v 0.97318 0.20156 0.83743
v 0.71164 0.35703 0.83743
v 0.38836 0.35703 0.83743
v 0.12682 0.20156 0.83743
v 0.02692 -0.05000 0.83743
v 0.12682 -0.30156 0.83743
v 0.38836 -0.45703 0.83743
v 0.71164 -0.45703 0.83743
v 0.97318 -0.30156 0.83743
v 1.07308 -0.05000 0.60257
v 0.97318 0.20156 0.60257
v 0.71164 0.35703 0.60257
v 0.38836 0.35703 0.60257
v 0.12682 0.20156 0.60257
v 0.02692 -0.05000 0.60257
v 0.12682 -0.30156 0.60257
v 0.38836 -0.45703 0.60257
v 0.71164 -0.45703 0.60257
v 0.97318 -0.30156 0.60257
v 0.87328 -0.05000 0.41257
v 0.81154 0.10547 0.41257
v 0.64990 0.20156 0.41257
v 0.45010 0.20156 0.41257
v 0.28846 0.10547 0.41257
v 0.22672 -0.05000 0.41257
v 0.28846 -0.20547 0.41257
v 0.45010 -0.30156 0.41257
v 0.64990 -0.30156 0.41257
v 0.81154 -0.20547 0.41257
v 0.55000 -0.05000 0.34000
v 0.55000 -0.05000 0.34000
v 0.55000 -0.05000 0.34000
v 0.55000 -0.05000 0.34000
v 0.55000 -0.05000 0.34000
v 0.55000 -0.05000 0.34000
v 0.55000 -0.05000 0.34000
v 0.55000 -0.05000 0.34000
v 0.55000 -0.05000 0.34000
v 0.55000 -0.05000 0.34000
v 0.00000 0.28000 1.28000
v 0.00000 0.28000 1.28000
v 0.00000 0.28000 1.28000
v 0.00000 0.28000 1.28000
v 0.00000 0.28000 1.28000
v 0.00000 0.28000 1.28000
v 0.00000 0.28000 1.28000
v 0.00000 0.28000 1.28000
v 0.00000 0.28000 1.28000
v 0.00000 0.28000 1.28000
v 0.32328 0.28000 1.21125
v 0.26154 0.42511 1.21125
v 0.09990 0.51479 1.21125
v -0.09990 0.51479 1.21125
v -0.26154 0.42511 1.21125
v -0.32328 0.28000 1.21125
v -0.26154 0.13489 1.21125
v -0.09990 0.04521 1.21125
v 0.09990 0.04521 1.21125
v 0.26154 0.13489 1.21125
v 0.52308 0.28000 1.03125
v 0.42318 0.51479 1.03125
v 0.16164 0.65989 1.03125
v -0.16164 0.65989 1.03125
v -0.42318 0.51479 1.03125
v -0.52308 0.28000 1.03125
v -0.42318 0.04521 1.03125
v -0.16164 -0.09989 1.03125
v 0.16164 -0.09989 1.03125
v 0.42318 0.04521 1.03125
v 0.52308 0.28000 0.80875
v 0.42318 0.51479 0.80875
v 0.16164 0.65989 0.80875
v -0.16164 0.65989 0.80875
v -0.42318 0.51479 0.80875
v -0.52308 0.28000 0.80875
v -0.42318 0.04521 0.80875
v -0.16164 -0.09989 0.80875
v 0.16164 -0.09989 0.80875
v 0.42318 0.04521 0.80875
v 0.32328 0.28000 0.62875
v 0.26154 0.42511 0.62875
v 0.09990 0.51479 0.62875
v -0.09990 0.51479 0.62875
v -0.26154 0.42511 0.62875
v -0.32328 0.28000 0.62875
v -0.26154 0.13489 0.62875
v -0.09990 0.04521 0.62875
v 0.09990 0.04521 0.62875
v 0.26154 0.13489 0.62875
v 0.00000 0.28000 0.56000
v 0.00000 0.28000 0.56000
v 0.00000 0.28000 0.56000
v -0.00000 0.28000 0.56000
v -0.00000 0.28000 0.56000
v -0.00000 0.28000 0.56000
v -0.00000 0.28000 0.56000
v -0.00000 0.28000 0.56000
v 0.00000 0.28000 0.56000
v 0.00000 0.28000 0.56000
v 0.12000 0.00000 0.00000
v 0.12000 0.00000 0.50000
v 0.08485 0.08485 0.00000
v 0.08485 0.08485 0.50000
v 0.00000 0.12000 0.00000
v 0.00000 0.12000 0.50000
v -0.08485 0.08485 0.00000
v -0.08485 0.08485 0.50000
v -0.12000 0.00000 0.00000
v -0.12000 0.00000 0.50000
v -0.08485 -0.08485 0.00000
v -0.08485 -0.08485 0.50000
v -0.00000 -0.12000 0.00000
v -0.00000 -0.12000 0.50000
v 0.08485 -0.08485 0.00000
v 0.08485 -0.08485 0.50000
usemtl dark_green
f 1 2 12 11
f 2 3 13 12
f 3 4 14 13
f 4 5 15 14
f 5 6 16 15
f 6 7 17 16
f 7 8 18 17
f 8 9 19 18
f 9 10 20 19
f 10 1 11 20
f 11 12 22 21
f 12 13 23 22
f 13 14 24 23
f 14 15 25 24
f 15 16 26 25
f 16 17 27 26
f 17 18 28 27
f 18 19 29 28
f 19 20 30 29
f 20 11 21 30
f 21 22 32 31
f 22 23 33 32
f 23 24 34 33
f 24 25 35 34
f 25 26 36 35
f 26 27 37 36
f 27 28 38 37
f 28 29 39 38
f 29 30 40 39
f 30 21 31 40
f 31 32 42 41
f 32 33 43 42
f 33 34 44 43
f 34 35 45 44
f 35 36 46 45
f 36 37 47 46
f 37 38 48 47
f 38 39 49 48
f 39 40 50 49
f 40 31 41 50
f 41 42 52 51
f 42 43 53 52
f 43 44 54 53
f 44 45 55 54
f 45 46 56 55
f 46 47 57 56
f 47 48 58 57
f 48 49 59 58
f 49 50 60 59
f 50 41 51 60
usemtl green
f 61 62 72 71
f 62 63 73 72
f 63 64 74 73
f 64 65 75 74
f 65 66 76 75
f 66 67 77 76
f 67 68 78 77
f 68 69 79 78
f 69 70 80 79
f 70 61 71 80
f 71 72 82 81
f 72 73 83 82
f 73 74 84 83
f 74 75 85 84
f 75 76 86 85
f 76 77 87 86
f 77 78 88 87
f 78 79 89 88
f 79 80 90 89
f 80 71 81 90
f 81 82 92 91
f 82 83 93 92
f 83 84 94 93
f 84 85 95 94
f 85 86 96 95
f 86 87 97 96
f 87 88 98 97
f 88 89 99 98
f 89 90 100 99
f 90 81 91 100
f 91 92 102 101
f 92 93 103 102
f 93 94 104 103
f 94 95 105 104
f 95 96 106 105
f 96 97 107 106
f 97 98 108 107
f 98 99 109 108
f 99 100 110 109
f 100 91 101 110
f 101 102 112 111
f 102 103 113 112
f 103 104 114 113
f 104 105 115 114
f 105 106 116 115
f 106 107 117 116
f 107 108 118 117
f 108 109 119 118
f 109 110 120 119
f 110 101 111 120
f 121 122 132 131
f 122 123 133 132
f 123 124 134 133
f 124 125 135 134
f 125 126 136 135
f 126 127 137 136
f 127 128 138 137
f 128 129 139 138
f 129 130 140 139
f 130 121 131 140
f 131 132 142 141
f 132 133 143 142
f 133 134 144 143
f 134 135 145 144
f 135 136 146 145
f 136 137 147 146
f 137 138 148 147
f 138 139 149 148
f 139 140 150 149
f 140 131 141 150
f 141 142 152 151
f 142 143 153 152
f 143 144 154 153
f 144 145 155 154
f 145 146 156 155
f 146 147 157 156
f 147 148 158 157
f 148 149 159 158
f 149 150 160 159
f 150 141 151 160
f 151 152 162 161
f 152 153 163 162
f 153 154 164 163
f 154 155 165 164
f 155 156 166 165
f 156 157 167 166
f 157 158 168 167
f 158 159 169 168
f 159 160 170 169
f 160 151 161 170
f 161 162 172 171
f 162 163 173 172
f 163 164 174 173
f 164 165 175 174
f 165 166 176 175
f 166 167 177 176
f 167 168 178 177
f 168 169 179 178
f 169 170 180 179
f 170 161 171 180
usemtl dark_green
f 181 182 192 191
f 182 183 193 192
f 183 184 194 193
f 184 185 195 194
f 185 186 196 195
f 186 187 197 196
f 187 188 198 197
f 188 189 199 198
f 189 190 200 199
f 190 181 191 200
f 191 192 202 201
f 192 193 203 202
f 193 194 204 203
f 194 195 205 204
f 195 196 206 205
f 196 197 207 206
f 197 198 208 207
f 198 199 209 208
f 199 200 210 209
f 200 191 201 210
f 201 202 212 211
f 202 203 213 212
f 203 204 214 213
f 204 205 215 214
f 205 206 216 215
f 206 207 217 216
f 207 208 218 217
f 208 209 219 218
f 209 210 220 219
f 210 201 211 220
f 211 212 222 221
f 212 213 223 222
f 213 214 224 223
f 214 215 225 224
f 215 216 226 225
f 216 217 227 226
f 217 218 228 227
f 218 219 229 228
f 219 220 230 229
f 220 211 221 230
f 221 222 232 231
f 222 223 233 232
f 223 224 234 233
f 224 225 235 234
f 225 226 236 235
f 226 227 237 236
f 227 228 238 237
f 228 229 239 238
f 229 230 240 239
f 230 221 231 240
usemtl brown
f 241 243 244 242
f 243 245 246 244
f 245 247 248 246
f 247 249 250 248
f 249 251 252 250
f 251 253 254 252
f 253 255 256 254
f 255 241 242 256
f 255 253 251 249 247 245 243 241
f 242 244 246 248 250 252 254 256
