mtllib tractor.mtl
o XYT_generated
v -0.87500 -0.50000 0.52500
v 0.57500 -0.50000 0.52500
v 0.57500 0.50000 0.52500
v -0.87500 0.50000 0.52500
v -0.87500 -0.50000 1.17500
v 0.57500 -0.50000 1.17500
v 0.57500 0.50000 1.17500
v -0.87500 0.50000 1.17500
v 0.49000 -0.42500 0.78000
v 1.21000 -0.42500 0.78000
v 1.21000 0.42500 0.78000
v 0.49000 0.42500 0.78000
v 0.49000 -0.42500 1.58000
v 1.21000 -0.42500 1.58000
v 1.21000 0.42500 1.58000
v 0.49000 0.42500 1.58000
v 0.71000 -0.45000 1.12000
v 1.13000 -0.45000 1.12000
v 1.13000 -0.41000 1.12000
v 0.71000 -0.41000 1.12000
v 0.71000 -0.45000 1.44000
v 1.13000 -0.45000 1.44000
v 1.13000 -0.41000 1.44000
v 0.71000 -0.41000 1.44000
v 0.71000 0.41000 1.12000
v 1.13000 0.41000 1.12000
v 1.13000 0.45000 1.12000
v 0.71000 0.45000 1.12000
v 0.71000 0.41000 1.44000
v 1.13000 0.41000 1.44000
v 1.13000 0.45000 1.44000
v 0.71000 0.45000 1.44000
v -1.37500 -0.37500 0.82500
v -0.72500 -0.37500 0.82500
v -0.72500 0.37500 0.82500
v -1.37500 0.37500 0.82500
v -1.37500 -0.37500 1.27500
v -0.72500 -0.37500 1.27500
v -0.72500 0.37500 1.27500
v -1.37500 0.37500 1.27500
v -0.25000 -0.58000 0.58000
v -0.30000 -0.49340 0.58000
v -0.40000 -0.49340 0.58000
v -0.45000 -0.58000 0.58000
v -0.40000 -0.66660 0.58000
v -0.30000 -0.66660 0.58000
v -0.28806 -0.58000 0.77134
v -0.33425 -0.49340 0.75221
v -0.42664 -0.49340 0.71394
v -0.47284 -0.58000 0.69481
v -0.42664 -0.66660 0.71394
v -0.33425 -0.66660 0.75221
v -0.39645 -0.58000 0.93355
v -0.43180 -0.49340 0.89820
v -0.50251 -0.49340 0.82749
v -0.53787 -0.58000 0.79213
v -0.50251 -0.66660 0.82749
v -0.43180 -0.66660 0.89820
v -0.55866 -0.58000 1.04194
v -0.57779 -0.49340 0.99575
v -0.61606 -0.49340 0.90336
v -0.63519 -0.58000 0.85716
v -0.61606 -0.66660 0.90336
v -0.57779 -0.66660 0.99575
v -0.75000 -0.58000 1.08000
v -0.75000 -0.49340 1.03000
v -0.75000 -0.49340 0.93000
v -0.75000 -0.58000 0.88000
v -0.75000 -0.66660 0.93000
v -0.75000 -0.66660 1.03000
v -0.94134 -0.58000 1.04194
v -0.92221 -0.49340 0.99575
v -0.88394 -0.49340 0.90336
v -0.86481 -0.58000 0.85716
v -0.88394 -0.66660 0.90336
v -0.92221 -0.66660 0.99575
v -1.10355 -0.58000 0.93355
v -1.06820 -0.49340 0.89820
v -0.99749 -0.49340 0.82749
v -0.96213 -0.58000 0.79213
v -0.99749 -0.66660 0.82749
v -1.06820 -0.66660 0.89820
v -1.21194 -0.58000 0.77134
v -1.16575 -0.49340 0.75221
v -1.07336 -0.49340 0.71394
v -1.02716 -0.58000 0.69481
v -1.07336 -0.66660 0.71394
v -1.16575 -0.66660 0.75221
v -1.25000 -0.58000 0.58000
v -1.20000 -0.49340 0.58000
v -1.10000 -0.49340 0.58000
v -1.05000 -0.58000 0.58000
v -1.10000 -0.66660 0.58000
v -1.20000 -0.66660 0.58000
v -1.21194 -0.58000 0.38866
v -1.16575 -0.49340 0.40779
v -1.07336 -0.49340 0.44606
v -1.02716 -0.58000 0.46519
v -1.07336 -0.66660 0.44606
v -1.16575 -0.66660 0.40779
v -1.10355 -0.58000 0.22645
v -1.06820 -0.49340 0.26180
v -0.99749 -0.49340 0.33251
v -0.96213 -0.58000 0.36787
v -0.99749 -0.66660 0.33251
v -1.06820 -0.66660 0.26180
v -0.94134 -0.58000 0.11806
v -0.92221 -0.49340 0.16425
v -0.88394 -0.49340 0.25664
v -0.86481 -0.58000 0.30284
v -0.88394 -0.66660 0.25664
v -0.92221 -0.66660 0.16425
v -0.75000 -0.58000 0.08000
v -0.75000 -0.49340 0.13000
v -0.75000 -0.49340 0.23000
v -0.75000 -0.58000 0.28000
v -0.75000 -0.66660 0.23000
v -0.75000 -0.66660 0.13000
v -0.55866 -0.58000 0.11806
v -0.57779 -0.49340 0.16425
v -0.61606 -0.49340 0.25664
v -0.63519 -0.58000 0.30284
v -0.61606 -0.66660 0.25664
v -0.57779 -0.66660 0.16425
v -0.39645 -0.58000 0.22645
v -0.43180 -0.49340 0.26180
v -0.50251 -0.49340 0.33251
v -0.53787 -0.58000 0.36787
v -0.50251 -0.66660 0.33251
v -0.43180 -0.66660 0.26180
v -0.28806 -0.58000 0.38866
v -0.33425 -0.49340 0.40779
v -0.42664 -0.49340 0.44606
v -0.47284 -0.58000 0.46519
v -0.42664 -0.66660 0.44606
v -0.33425 -0.66660 0.40779
v -0.57000 -0.63000 0.58000
v -0.57000 -0.53000 0.58000
v -0.60438 -0.63000 0.68580
v -0.60438 -0.53000 0.68580
v -0.69438 -0.63000 0.75119
v -0.69438 -0.53000 0.75119
v -0.80562 -0.63000 0.75119
v -0.80562 -0.53000 0.75119
v -0.89562 -0.63000 0.68580
v -0.89562 -0.53000 0.68580
v -0.93000 -0.63000 0.58000
v -0.93000 -0.53000 0.58000
v -0.89562 -0.63000 0.47420
v -0.89562 -0.53000 0.47420
v -0.80562 -0.63000 0.40881
v -0.80562 -0.53000 0.40881
v -0.69438 -0.63000 0.40881
v -0.69438 -0.53000 0.40881
v -0.60438 -0.63000 0.47420
v -0.60438 -0.53000 0.47420
v 1.21000 -0.58000 0.48000
v 1.17000 -0.51072 0.48000
v 1.09000 -0.51072 0.48000
v 1.05000 -0.58000 0.48000
v 1.09000 -0.64928 0.48000
v 1.17000 -0.64928 0.48000
v 1.17435 -0.58000 0.63620
v 1.13831 -0.51072 0.61884
v 1.06623 -0.51072 0.58413
v 1.03019 -0.58000 0.56678
v 1.06623 -0.64928 0.58413
v 1.13831 -0.64928 0.61884
v 1.07446 -0.58000 0.76146
v 1.04952 -0.51072 0.73019
v 0.99964 -0.51072 0.66764
v 0.97470 -0.58000 0.63637
v 0.99964 -0.64928 0.66764
v 1.04952 -0.64928 0.73019
v 0.93011 -0.58000 0.83097
v 0.92121 -0.51072 0.79198
v 0.90341 -0.51072 0.71398
v 0.89450 -0.58000 0.67499
v 0.90341 -0.64928 0.71398
v 0.92121 -0.64928 0.79198
v 0.76989 -0.58000 0.83097
v 0.77879 -0.51072 0.79198
v 0.79659 -0.51072 0.71398
v 0.80550 -0.58000 0.67499
v 0.79659 -0.64928 0.71398
v 0.77879 -0.64928 0.79198
v 0.62554 -0.58000 0.76146
v 0.65048 -0.51072 0.73019
v 0.70036 -0.51072 0.66764
v 0.72530 -0.58000 0.63637
v 0.70036 -0.64928 0.66764
v 0.65048 -0.64928 0.73019
v 0.52565 -0.58000 0.63620
v 0.56169 -0.51072 0.61884
v 0.63377 -0.51072 0.58413
v 0.66981 -0.58000 0.56678
v 0.63377 -0.64928 0.58413
v 0.56169 -0.64928 0.61884
v 0.49000 -0.58000 0.48000
v 0.53000 -0.51072 0.48000
v 0.61000 -0.51072 0.48000
v 0.65000 -0.58000 0.48000
v 0.61000 -0.64928 0.48000
v 0.53000 -0.64928 0.48000
v 0.52565 -0.58000 0.32380
v 0.56169 -0.51072 0.34116
v 0.63377 -0.51072 0.37587
v 0.66981 -0.58000 0.39322
v 0.63377 -0.64928 0.37587
v 0.56169 -0.64928 0.34116
v 0.62554 -0.58000 0.19854
v 0.65048 -0.51072 0.22981
v 0.70036 -0.51072 0.29236
v 0.72530 -0.58000 0.32363
v 0.70036 -0.64928 0.29236
v 0.65048 -0.64928 0.22981
v 0.76989 -0.58000 0.12903
v 0.77879 -0.51072 0.16802
v 0.79659 -0.51072 0.24602
v 0.80550 -0.58000 0.28501
v 0.79659 -0.64928 0.24602
v 0.77879 -0.64928 0.16802
v 0.93011 -0.58000 0.12903
v 0.92121 -0.51072 0.16802
v 0.90341 -0.51072 0.24602
v 0.89450 -0.58000 0.28501
v 0.90341 -0.64928 0.24602
v 0.92121 -0.64928 0.16802
v 1.07446 -0.58000 0.19854
v 1.04952 -0.51072 0.22981
v 0.99964 -0.51072 0.29236
v 0.97470 -0.58000 0.32363
v 0.99964 -0.64928 0.29236
v 1.04952 -0.64928 0.22981
v 1.17435 -0.58000 0.32380
v 1.13831 -0.51072 0.34116
v 1.06623 -0.51072 0.37587
v 1.03019 -0.58000 0.39322
v 1.06623 -0.64928 0.37587
v 1.13831 -0.64928 0.34116
v 0.97000 -0.62000 0.48000
v 0.97000 -0.54000 0.48000
v 0.94708 -0.62000 0.55053
v 0.94708 -0.54000 0.55053
v 0.88708 -0.62000 0.59413
v 0.88708 -0.54000 0.59413
v 0.81292 -0.62000 0.59413
v 0.81292 -0.54000 0.59413
v 0.75292 -0.62000 0.55053
v 0.75292 -0.54000 0.55053
v 0.73000 -0.62000 0.48000
v 0.73000 -0.54000 0.48000
v 0.75292 -0.62000 0.40947
v 0.75292 -0.54000 0.40947
v 0.81292 -0.62000 0.36587
v 0.81292 -0.54000 0.36587
v 0.88708 -0.62000 0.36587
v 0.88708 -0.54000 0.36587
v 0.94708 -0.62000 0.40947
v 0.94708 -0.54000 0.40947
v -0.25000 0.58000 0.58000
v -0.30000 0.66660 0.58000
v -0.40000 0.66660 0.58000
v -0.45000 0.58000 0.58000
v -0.40000 0.49340 0.58000
v -0.30000 0.49340 0.58000
v -0.28806 0.58000 0.77134
v -0.33425 0.66660 0.75221
v -0.42664 0.66660 0.71394
v -0.47284 0.58000 0.69481
v -0.42664 0.49340 0.71394
v -0.33425 0.49340 0.75221
v -0.39645 0.58000 0.93355
v -0.43180 0.66660 0.89820
v -0.50251 0.66660 0.82749
v -0.53787 0.58000 0.79213
v -0.50251 0.49340 0.82749
v -0.43180 0.49340 0.89820
v -0.55866 0.58000 1.04194
v -0.57779 0.66660 0.99575
v -0.61606 0.66660 0.90336
v -0.63519 0.58000 0.85716
v -0.61606 0.49340 0.90336
v -0.57779 0.49340 0.99575
v -0.75000 0.58000 1.08000
v -0.75000 0.66660 1.03000
v -0.75000 0.66660 0.93000
v -0.75000 0.58000 0.88000
v -0.75000 0.49340 0.93000
v -0.75000 0.49340 1.03000
v -0.94134 0.58000 1.04194
v -0.92221 0.66660 0.99575
v -0.88394 0.66660 0.90336
v -0.86481 0.58000 0.85716
v -0.88394 0.49340 0.90336
v -0.92221 0.49340 0.99575
v -1.10355 0.58000 0.93355
v -1.06820 0.66660 0.89820
v -0.99749 0.66660 0.82749
v -0.96213 0.58000 0.79213
v -0.99749 0.49340 0.82749
v -1.06820 0.49340 0.89820
v -1.21194 0.58000 0.77134
v -1.16575 0.66660 0.75221
v -1.07336 0.66660 0.71394
v -1.02716 0.58000 0.69481
v -1.07336 0.49340 0.71394
v -1.16575 0.49340 0.75221
v -1.25000 0.58000 0.58000
v -1.20000 0.66660 0.58000
v -1.10000 0.66660 0.58000
v -1.05000 0.58000 0.58000
v -1.10000 0.49340 0.58000
v -1.20000 0.49340 0.58000
v -1.21194 0.58000 0.38866
v -1.16575 0.66660 0.40779
v -1.07336 0.66660 0.44606
v -1.02716 0.58000 0.46519
v -1.07336 0.49340 0.44606
v -1.16575 0.49340 0.40779
v -1.10355 0.58000 0.22645
v -1.06820 0.66660 0.26180
v -0.99749 0.66660 0.33251
v -0.96213 0.58000 0.36787
v -0.99749 0.49340 0.33251
v -1.06820 0.49340 0.26180
v -0.94134 0.58000 0.11806
v -0.92221 0.66660 0.16425
v -0.88394 0.66660 0.25664
v -0.86481 0.58000 0.30284
v -0.88394 0.49340 0.25664
v -0.92221 0.49340 0.16425
v -0.75000 0.58000 0.08000
v -0.75000 0.66660 0.13000
v -0.75000 0.66660 0.23000
v -0.75000 0.58000 0.28000
v -0.75000 0.49340 0.23000
v -0.75000 0.49340 0.13000
v -0.55866 0.58000 0.11806
v -0.57779 0.66660 0.16425
v -0.61606 0.66660 0.25664
v -0.63519 0.58000 0.30284
v -0.61606 0.49340 0.25664
v -0.57779 0.49340 0.16425
v -0.39645 0.58000 0.22645
v -0.43180 0.66660 0.26180
v -0.50251 0.66660 0.33251
v -0.53787 0.58000 0.36787
v -0.50251 0.49340 0.33251
v -0.43180 0.49340 0.26180
v -0.28806 0.58000 0.38866
v -0.33425 0.66660 0.40779
v -0.42664 0.66660 0.44606
v -0.47284 0.58000 0.46519
v -0.42664 0.49340 0.44606
v -0.33425 0.49340 0.40779
v -0.57000 0.53000 0.58000
v -0.57000 0.63000 0.58000
v -0.60438 0.53000 0.68580
v -0.60438 0.63000 0.68580
v -0.69438 0.53000 0.75119
v -0.69438 0.63000 0.75119
v -0.80562 0.53000 0.75119
v -0.80562 0.63000 0.75119
v -0.89562 0.53000 0.68580
v -0.89562 0.63000 0.68580
v -0.93000 0.53000 0.58000
v -0.93000 0.63000 0.58000
v -0.89562 0.53000 0.47420
v -0.89562 0.63000 0.47420
v -0.80562 0.53000 0.40881
v -0.80562 0.63000 0.40881
v -0.69438 0.53000 0.40881
v -0.69438 0.63000 0.40881
v -0.60438 0.53000 0.47420
v -0.60438 0.63000 0.47420
v 1.21000 0.58000 0.48000
v 1.17000 0.64928 0.48000
v 1.09000 0.64928 0.48000
v 1.05000 0.58000 0.48000
v 1.09000 0.51072 0.48000
v 1.17000 0.51072 0.48000
v 1.17435 0.58000 0.63620
v 1.13831 0.64928 0.61884
v 1.06623 0.64928 0.58413
v 1.03019 0.58000 0.56678
v 1.06623 0.51072 0.58413
v 1.13831 0.51072 0.61884
v 1.07446 0.58000 0.76146
v 1.04952 0.64928 0.73019
v 0.99964 0.64928 0.66764
v 0.97470 0.58000 0.63637
v 0.99964 0.51072 0.66764
v 1.04952 0.51072 0.73019
v 0.93011 0.58000 0.83097
v 0.92121 0.64928 0.79198
v 0.90341 0.64928 0.71398
v 0.89450 0.58000 0.67499
v 0.90341 0.51072 0.71398
v 0.92121 0.51072 0.79198
v 0.76989 0.58000 0.83097
v 0.77879 0.64928 0.79198
v 0.79659 0.64928 0.71398
v 0.80550 0.58000 0.67499
v 0.79659 0.51072 0.71398
v 0.77879 0.51072 0.79198
v 0.62554 0.58000 0.76146
v 0.65048 0.64928 0.73019
v 0.70036 0.64928 0.66764
v 0.72530 0.58000 0.63637
v 0.70036 0.51072 0.66764
v 0.65048 0.51072 0.73019
v 0.52565 0.58000 0.63620
v 0.56169 0.64928 0.61884
v 0.63377 0.64928 0.58413
v 0.66981 0.58000 0.56678
v 0.63377 0.51072 0.58413
v 0.56169 0.51072 0.61884
v 0.49000 0.58000 0.48000
v 0.53000 0.64928 0.48000
v 0.61000 0.64928 0.48000
v 0.65000 0.58000 0.48000
v 0.61000 0.51072 0.48000
v 0.53000 0.51072 0.48000
v 0.52565 0.58000 0.32380
v 0.56169 0.64928 0.34116
v 0.63377 0.64928 0.37587
v 0.66981 0.58000 0.39322
v 0.63377 0.51072 0.37587
v 0.56169 0.51072 0.34116
v 0.62554 0.58000 0.19854
v 0.65048 0.64928 0.22981
v 0.70036 0.64928 0.29236
v 0.72530 0.58000 0.32363
v 0.70036 0.51072 0.29236
v 0.65048 0.51072 0.22981
v 0.76989 0.58000 0.12903
v 0.77879 0.64928 0.16802
v 0.79659 0.64928 0.24602
v 0.80550 0.58000 0.28501
v 0.79659 0.51072 0.24602
v 0.77879 0.51072 0.16802
v 0.93011 0.58000 0.12903
v 0.92121 0.64928 0.16802
v 0.90341 0.64928 0.24602
v 0.89450 0.58000 0.28501
v 0.90341 0.51072 0.24602
v 0.92121 0.51072 0.16802
v 1.07446 0.58000 0.19854
v 1.04952 0.64928 0.22981
v 0.99964 0.64928 0.29236
v 0.97470 0.58000 0.32363
v 0.99964 0.51072 0.29236
v 1.04952 0.51072 0.22981
v 1.17435 0.58000 0.32380
v 1.13831 0.64928 0.34116
v 1.06623 0.64928 0.37587
v 1.03019 0.58000 0.39322
v 1.06623 0.51072 0.37587
v 1.13831 0.51072 0.34116
v 0.97000 0.54000 0.48000
v 0.97000 0.62000 0.48000
v 0.94708 0.54000 0.55053
v 0.94708 0.62000 0.55053
v 0.88708 0.54000 0.59413
v 0.88708 0.62000 0.59413
v 0.81292 0.54000 0.59413
v 0.81292 0.62000 0.59413
v 0.75292 0.54000 0.55053
v 0.75292 0.62000 0.55053
v 0.73000 0.54000 0.48000
v 0.73000 0.62000 0.48000
v 0.75292 0.54000 0.40947
v 0.75292 0.62000 0.40947
v 0.81292 0.54000 0.36587
v 0.81292 0.62000 0.36587
v 0.88708 0.54000 0.36587
v 0.88708 0.62000 0.36587
v 0.94708 0.54000 0.40947
v 0.94708 0.62000 0.40947
v -0.13000 0.00000 1.07500
v -0.13000 0.00000 1.82500
v -0.14337 0.04114 1.07500
v -0.14337 0.04114 1.82500
v -0.17837 0.06657 1.07500
v -0.17837 0.06657 1.82500
v -0.22163 0.06657 1.07500
v -0.22163 0.06657 1.82500
v -0.25663 0.04114 1.07500
v -0.25663 0.04114 1.82500
v -0.27000 0.00000 1.07500
v -0.27000 0.00000 1.82500
v -0.25663 -0.04114 1.07500
v -0.25663 -0.04114 1.82500
v -0.22163 -0.06657 1.07500
v -0.22163 -0.06657 1.82500
v -0.17837 -0.06657 1.07500
v -0.17837 -0.06657 1.82500
v -0.14337 -0.04114 1.07500
v -0.14337 -0.04114 1.82500
usemtl green
f 1 2 3 4
f 5 8 7 6
f 1 5 6 2
f 2 6 7 3
f 3 7 8 4
f 4 8 5 1
f 9 10 11 12
f 13 16 15 14
f 9 13 14 10
f 10 14 15 11
f 11 15 16 12
f 12 16 13 9
usemtl glass
f 17 18 19 20
f 21 24 23 22
f 17 21 22 18
f 18 22 23 19
f 19 23 24 20
f 20 24 21 17
f 25 26 27 28
f 29 32 31 30
f 25 29 30 26
f 26 30 31 27
f 27 31 32 28
f 28 32 29 25
usemtl yellow
f 33 34 35 36
f 37 40 39 38
f 33 37 38 34
f 34 38 39 35
f 35 39 40 36
f 36 40 37 33
usemtl black
f 41 47 48 42
f 42 48 49 43
f 43 49 50 44
f 44 50 51 45
f 45 51 52 46
f 46 52 47 41
f 47 53 54 48
f 48 54 55 49
f 49 55 56 50
f 50 56 57 51
f 51 57 58 52
f 52 58 53 47
f 53 59 60 54
f 54 60 61 55
f 55 61 62 56
f 56 62 63 57
f 57 63 64 58
f 58 64 59 53
f 59 65 66 60
f 60 66 67 61
f 61 67 68 62
f 62 68 69 63
f 63 69 70 64
f 64 70 65 59
f 65 71 72 66
f 66 72 73 67
f 67 73 74 68
f 68 74 75 69
f 69 75 76 70
f 70 76 71 65
f 71 77 78 72
f 72 78 79 73
f 73 79 80 74
f 74 80 81 75
f 75 81 82 76
f 76 82 77 71
f 77 83 84 78
f 78 84 85 79
f 79 85 86 80
f 80 86 87 81
f 81 87 88 82
f 82 88 83 77
f 83 89 90 84
f 84 90 91 85
f 85 91 92 86
f 86 92 93 87
f 87 93 94 88
f 88 94 89 83
f 89 95 96 90
f 90 96 97 91
f 91 97 98 92
f 92 98 99 93
f 93 99 100 94
f 94 100 95 89
f 95 101 102 96
f 96 102 103 97
f 97 103 104 98
f 98 104 105 99
f 99 105 106 100
f 100 106 101 95
f 101 107 108 102
f 102 108 109 103
f 103 109 110 104
f 104 110 111 105
f 105 111 112 106
f 106 112 107 101
f 107 113 114 108
f 108 114 115 109
f 109 115 116 110
f 110 116 117 111
f 111 117 118 112
f 112 118 113 107
f 113 119 120 114
f 114 120 121 115
f 115 121 122 116
f 116 122 123 117
f 117 123 124 118
f 118 124 119 113
f 119 125 126 120
f 120 126 127 121
f 121 127 128 122
f 122 128 129 123
f 123 129 130 124
f 124 130 125 119
f 125 131 132 126
f 126 132 133 127
f 127 133 134 128
f 128 134 135 129
f 129 135 136 130
f 130 136 131 125
f 131 41 42 132
f 132 42 43 133
f 133 43 44 134
f 134 44 45 135
f 135 45 46 136
f 136 46 41 131
usemtl yellow
f 137 139 140 138
f 139 141 142 140
f 141 143 144 142
f 143 145 146 144
f 145 147 148 146
f 147 149 150 148
f 149 151 152 150
f 151 153 154 152
f 153 155 156 154
f 155 137 138 156
f 155 153 151 149 147 145 143 141 139 137
f 138 140 142 144 146 148 150 152 154 156
usemtl black
f 157 163 164 158
f 158 164 165 159
f 159 165 166 160
f 160 166 167 161
f 161 167 168 162
f 162 168 163 157
f 163 169 170 164
f 164 170 171 165
f 165 171 172 166
f 166 172 173 167
f 167 173 174 168
f 168 174 169 163
f 169 175 176 170
f 170 176 177 171
f 171 177 178 172
f 172 178 179 173
f 173 179 180 174
f 174 180 175 169
f 175 181 182 176
f 176 182 183 177
f 177 183 184 178
f 178 184 185 179
f 179 185 186 180
f 180 186 181 175
f 181 187 188 182
f 182 188 189 183
f 183 189 190 184
f 184 190 191 185
f 185 191 192 186
f 186 192 187 181
f 187 193 194 188
f 188 194 195 189
f 189 195 196 190
f 190 196 197 191
f 191 197 198 192
f 192 198 193 187
f 193 199 200 194
f 194 200 201 195
f 195 201 202 196
f 196 202 203 197
f 197 203 204 198
f 198 204 199 193
f 199 205 206 200
f 200 206 207 201
f 201 207 208 202
f 202 208 209 203
f 203 209 210 204
f 204 210 205 199
f 205 211 212 206
f 206 212 213 207
f 207 213 214 208
f 208 214 215 209
f 209 215 216 210
f 210 216 211 205
f 211 217 218 212
f 212 218 219 213
f 213 219 220 214
f 214 220 221 215
f 215 221 222 216
f 216 222 217 211
f 217 223 224 218
f 218 224 225 219
f 219 225 226 220
f 220 226 227 221
f 221 227 228 222
f 222 228 223 217
f 223 229 230 224
f 224 230 231 225
f 225 231 232 226
f 226 232 233 227
f 227 233 234 228
f 228 234 229 223
f 229 235 236 230
f 230 236 237 231
f 231 237 238 232
f 232 238 239 233
f 233 239 240 234
f 234 240 235 229
f 235 157 158 236
f 236 158 159 237
f 237 159 160 238
f 238 160 161 239
f 239 161 162 240
f 240 162 157 235
usemtl yellow
f 241 243 244 242
f 243 245 246 244
f 245 247 248 246
f 247 249 250 248
f 249 251 252 250
f 251 253 254 252
f 253 255 256 254
f 255 257 258 256
f 257 259 260 258
f 259 241 242 260
f 259 257 255 253 251 249 247 245 243 241
f 242 244 246 248 250 252 254 256 258 260
usemtl black
f 261 267 268 262
f 262 268 269 263
f 263 269 270 264
f 264 270 271 265
f 265 271 272 266
f 266 272 267 261
f 267 273 274 268
f 268 274 275 269
f 269 275 276 270
f 270 276 277 271
f 271 277 278 272
f 272 278 273 267
f 273 279 280 274
f 274 280 281 275
f 275 281 282 276
f 276 282 283 277
f 277 283 284 278
f 278 284 279 273
f 279 285 286 280
f 280 286 287 281
f 281 287 288 282
f 282 288 289 283
f 283 289 290 284
f 284 290 285 279
f 285 291 292 286
f 286 292 293 287
f 287 293 294 288
f 288 294 295 289
f 289 295 296 290
f 290 296 291 285
f 291 297 298 292
f 292 298 299 293
f 293 299 300 294
f 294 300 301 295
f 295 301 302 296
f 296 302 297 291
f 297 303 304 298
f 298 304 305 299
f 299 305 306 300
f 300 306 307 301
f 301 307 308 302
f 302 308 303 297
f 303 309 310 304
f 304 310 311 305
f 305 311 312 306
f 306 312 313 307
f 307 313 314 308
f 308 314 309 303
f 309 315 316 310
f 310 316 317 311
f 311 317 318 312
f 312 318 319 313
f 313 319 320 314
f 314 320 315 309
f 315 321 322 316
f 316 322 323 317
f 317 323 324 318
f 318 324 325 319
f 319 325 326 320
f 320 326 321 315
f 321 327 328 322
f 322 328 329 323
f 323 329 330 324
f 324 330 331 325
f 325 331 332 326
f 326 332 327 321
f 327 333 334 328
f 328 334 335 329
f 329 335 336 330
f 330 336 337 331
f 331 337 338 332
f 332 338 333 327
f 333 339 340 334
f 334 340 341 335
f 335 341 342 336
f 336 342 343 337
f 337 343 344 338
f 338 344 339 333
f 339 345 346 340
f 340 346 347 341
f 341 347 348 342
f 342 348 349 343
f 343 349 350 344
f 344 350 345 339
f 345 351 352 346
f 346 352 353 347
f 347 353 354 348
f 348 354 355 349
f 349 355 356 350
f 350 356 351 345
f 351 261 262 352
f 352 262 263 353
f 353 263 264 354
f 354 264 265 355
f 355 265 266 356
f 356 266 261 351
usemtl yellow
f 357 359 360 358
f 359 361 362 360
f 361 363 364 362
f 363 365 366 364
f 365 367 368 366
f 367 369 370 368
f 369 371 372 370
f 371 373 374 372
f 373 375 376 374
f 375 357 358 376
f 375 373 371 369 367 365 363 361 359 357
f 358 360 362 364 366 368 370 372 374 376
usemtl black
f 377 383 384 378
f 378 384 385 379
f 379 385 386 380
f 380 386 387 381
f 381 387 388 382
f 382 388 383 377
f 383 389 390 384
f 384 390 391 385
f 385 391 392 386
f 386 392 393 387
f 387 393 394 388
f 388 394 389 383
f 389 395 396 390
f 390 396 397 391
f 391 397 398 392
f 392 398 399 393
f 393 399 400 394
f 394 400 395 389
f 395 401 402 396
f 396 402 403 397
f 397 403 404 398
f 398 404 405 399
f 399 405 406 400
f 400 406 401 395
f 401 407 408 402
f 402 408 409 403
f 403 409 410 404
f 404 410 411 405
f 405 411 412 406
f 406 412 407 401
f 407 413 414 408
f 408 414 415 409
f 409 415 416 410
f 410 416 417 411
f 411 417 418 412
f 412 418 413 407
f 413 419 420 414
f 414 420 421 415
f 415 421 422 416
f 416 422 423 417
f 417 423 424 418
f 418 424 419 413
f 419 425 426 420
f 420 426 427 421
f 421 427 428 422
f 422 428 429 423
f 423 429 430 424
f 424 430 425 419
f 425 431 432 426
f 426 432 433 427
f 427 433 434 428
f 428 434 435 429
f 429 435 436 430
f 430 436 431 425
f 431 437 438 432
f 432 438 439 433
f 433 439 440 434
f 434 440 441 435
f 435 441 442 436
f 436 442 437 431
f 437 443 444 438
f 438 444 445 439
f 439 445 446 440
f 440 446 447 441
f 441 447 448 442
f 442 448 443 437
f 443 449 450 444
f 444 450 451 445
f 445 451 452 446
f 446 452 453 447
f 447 453 454 448
f 448 454 449 443
f 449 455 456 450
f 450 456 457 451
f 451 457 458 452
f 452 458 459 453
f 453 459 460 454
f 454 460 455 449
f 455 377 378 456
f 456 378 379 457
f 457 379 380 458
f 458 380 381 459
f 459 381 382 460
f 460 382 377 455
usemtl yellow
f 461 463 464 462
f 463 465 466 464
f 465 467 468 466
f 467 469 470 468
f 469 471 472 470
f 471 473 474 472
f 473 475 476 474
f 475 477 478 476
f 477 479 480 478
f 479 461 462 480
f 479 477 475 473 471 469 467 465 463 461
f 462 464 466 468 470 472 474 476 478 480
usemtl black
f 481 483 484 482
f 483 485 486 484
f 485 487 488 486
f 487 489 490 488
f 489 491 492 490
f 491 493 494 492
f 493 495 496 494
f 495 497 498 496
f 497 499 500 498
f 499 481 482 500
f 499 497 495 493 491 489 487 485 483 481
f 482 484 486 488 490 492 494 496 498 500
